<mxfile host="app.diagrams.net" agent="Mozilla/5.0 (Windows NT 10.0; Win64; x64) AppleWebKit/537.36 (KHTML, like Gecko) Chrome/139.0.0.0 Safari/537.36" version="28.1.1">
  <diagram id="C5RBs43oDa-KdzZeNtuy" name="Page-1">
    <mxGraphModel dx="3706" dy="1816" grid="1" gridSize="10" guides="1" tooltips="1" connect="1" arrows="1" fold="1" page="1" pageScale="1" pageWidth="827" pageHeight="1169" math="0" shadow="0">
      <root>
        <mxCell id="WIyWlLk6GJQsqaUBKTNV-0" />
        <mxCell id="WIyWlLk6GJQsqaUBKTNV-1" parent="WIyWlLk6GJQsqaUBKTNV-0" />
        <UserObject label="" plantUmlData="{&#xa;  &quot;data&quot;: &quot;@startuml\n!theme plain\n\n&#39; ########## Enums ##########\nenum UserRole {\n    STUDENT\n    STAFF\n    ADMIN\n}\n\nenum OrderStatus {\n    PENDING\n    PREPARING\n    READY\n    COMPLETED\n    CANCELLED\n}\n\nenum MenuCategory {\n    MAIN_COURSE\n    SNACK\n    DRINK\n    DESSERT\n}\n\nenum PaymentStatus {\n    PENDING\n    PROCESSING\n    COMPLETED\n    FAILED\n    REFUNDED\n}\n\nenum PaymentMethod {\n    CASH\n    CREDIT_CARD\n    DEBIT_CARD\n    LOYALTY_POINTS\n}\n\n&#39; ########## Main Classes ##########\nclass User {\n    -userId: String\n    -username: String\n    -password: String\n    -role: UserRole\n    +login(username: String, password: String): boolean\n    +logout(): void\n}\n\nclass Student {\n    -studentId: String\n    -name: String\n    -email: String\n    -pointsBalance: int\n    +viewPointsBalance(): int\n    +redeemPoints(rewardId: String): boolean\n}\n\nclass Staff {\n    -staffId: String\n    -name: String\n    +updateOrderStatus(orderId: String, status: OrderStatus): boolean\n    +viewPendingOrders(): List&lt;Order&gt;\n    +generateReport(reportType: String, date: Date): String\n}\n\nclass MenuItem {\n    -itemId: String\n    -name: String\n    -description: String\n    -price: double\n    -category: MenuCategory\n    +updateDetails(name: String, description: String, price: double): void\n}\n\n&#39; ########## Refactored Order Classes ##########\nclass Order {\n    -orderId: String\n    -student: Student\n    -status: OrderStatus\n    -orderDate: Date\n    +changeStatus(newStatus: OrderStatus): void\n    +getStatus(): OrderStatus\n}\n\nclass OrderItems {\n    -order: Order\n    -items: List&lt;MenuItem&gt;\n    +addItem(item: MenuItem): void\n    +removeItem(itemId: String): boolean\n    +getItems(): List&lt;MenuItem&gt;\n    +containsItem(itemId: String): boolean\n}\n\nclass OrderCalculator {\n    -order: Order\n    -items: OrderItems\n    +calculateSubtotal(): double\n    +calculateTax(): double\n    +calculateTotal(): double\n    +applyDiscount(discountPercentage: double): double\n}\n\nclass OrderConfirmation {\n    -order: Order\n    +confirmOrder(): boolean\n    +isConfirmed(): boolean\n    +getConfirmationTime(): Date\n}\n\nclass Payment {\n    -paymentId: String\n    -order: Order\n    -amount: double\n    -paymentDate: Date\n    -status: PaymentStatus\n    -method: PaymentMethod\n    +processPayment(): boolean\n    +refundPayment(): boolean\n    +getPaymentDetails(): String\n    +isPaymentSuccessful(): boolean\n}\n\nclass LoyaltyProgram {\n    -pointsPerCurrency: double = 0.1\n    -rewards: Map&lt;String, Reward&gt;\n    +calculatePoints(orderAmount: double): int\n    +redeemReward(student: Student, rewardId: String): boolean\n    +addReward(reward: Reward): void\n}\n\nclass Reward {\n    -rewardId: String\n    -name: String\n    -pointCost: int\n    -description: String\n    +applyReward(student: Student): boolean\n}\n\nclass NotificationService {\n    +sendNotification(user: User, message: String): boolean\n}\n\nclass ReportGenerator {\n    +generateDailySalesReport(date: Date): String\n    +generateWeeklySalesReport(startDate: Date): String\n    +generateLoyaltyReport(): String\n    +generateCallv5siteReport(date: Date): String\n    +generateView5siteReport(date: Date): String\n    +generateLoginReport(): String\n}\n\nclass OrderProcessor {\n    -currentOrders: List&lt;Order&gt;\n    +processOrder(order: Order): boolean\n    +getOrderStatus(orderId: String): OrderStatus\n}\n\n&#39; ########## Interfaces ##########\ninterface IMenuProvider {\n    +getMenuItems(): List&lt;MenuItem&gt;\n    +addMenuItem(item: MenuItem): boolean\n    +updateMenuItem(itemId: String, newItem: MenuItem): boolean\n    +removeMenuItem(itemId: String): boolean\n}\n\ninterface IOrderProcessor {\n    +processOrder(order: Order): boolean\n    +updateOrderStatus(orderId: String, status: OrderStatus): boolean\n}\n\ninterface IStudentRepository {\n    +getStudent(studentId: String): Student\n    +updateStudent(student: Student): boolean\n}\n\ninterface IPaymentProcessor {\n    +processPayment(payment: Payment): boolean\n    +refundPayment(paymentId: String): boolean\n}\n\ninterface IOrderCalculator {\n    +calculateTotal(): double\n}\n\ninterface IOrderItems {\n    +addItem(item: MenuItem): void\n    +removeItem(itemId: String): boolean\n    +getItems(): List&lt;MenuItem&gt;\n}\n\n&#39; ########## Relationships ##########\nUser &lt;|-- Student\nUser &lt;|-- Staff\n\nStudent \&quot;1\&quot; *-- \&quot;0..*\&quot; Order\n\nOrder \&quot;1\&quot; *-- \&quot;1\&quot; OrderItems : contains\nOrder \&quot;1\&quot; *-- \&quot;1\&quot; OrderCalculator : uses\nOrder \&quot;1\&quot; *-- \&quot;1\&quot; OrderConfirmation : manages\nOrder \&quot;1\&quot; --&gt; \&quot;1\&quot; Payment : has\n\nOrderItems \&quot;1\&quot; *-- \&quot;1..*\&quot; MenuItem\n\nPayment --&gt; Order : processes\n\nLoyaltyProgram \&quot;1\&quot; -- \&quot;1\&quot; Student : manages &gt;\nLoyaltyProgram \&quot;1\&quot; *-- \&quot;0..*\&quot; Reward\n\nOrderProcessor ..|&gt; IOrderProcessor\nOrderProcessor --&gt; IMenuProvider\nOrderProcessor --&gt; IStudentRepository\nOrderProcessor --&gt; IPaymentProcessor\n\nOrderCalculator ..|&gt; IOrderCalculator\nOrderItems ..|&gt; IOrderItems\n\nStaff --&gt; ReportGenerator : uses &gt;\nNotificationService --&gt; Order : monitors &gt;\nReportGenerator --&gt; Order : analyzes &gt;\nReportGenerator --&gt; LoyaltyProgram : analyzes &gt;\nPayment --&gt; LoyaltyProgram : earns points &gt;\n\n&#39; ########## Notes ##########\nnote top of User\n    Base class for all system users\n    Uses role-based access control\n    Implements authentication\nend note\n\nnote right of Order\n    Now follows Single Responsibility Principle\n    Each aspect of order management is handled\n    by a separate specialized class\nend note\n\nnote left of LoyaltyProgram\n    Follows Strategy Pattern\n    for different reward types\n    Configurable points per currency\nend note\n\nnote right of Payment\n    Handles all payment processing\n    Connects Order with LoyaltyProgram\n    Supports multiple payment methods\nend note\n\nnote bottom of OrderProcessor\n    Core business logic handler\n    Depends on abstractions (DIP)\n    Single responsibility (SRP)\nend note\n\nnote right of OrderItems\n    Responsible only for managing\n    the items in an order\n    Follows Single Responsibility Principle\nend note\n\nnote left of OrderCalculator\n    Responsible only for calculations\n    related to order totals\n    Follows Single Responsibility Principle\nend note\n\n@enduml&quot;,&#xa;  &quot;format&quot;: &quot;svg&quot;&#xa;}" id="PAZEJ8Sstvls_h2NTiI3-1">
          <mxCell style="shape=image;noLabel=1;verticalAlign=top;aspect=fixed;imageAspect=0;image=data:image/svg+xml,PHN2ZyB4bWxucz0iaHR0cDovL3d3dy53My5vcmcvMjAwMC9zdmciIHhtbG5zOnhsaW5rPSJodHRwOi8vd3d3LnczLm9yZy8xOTk5L3hsaW5rIiBjb250ZW50U3R5bGVUeXBlPSJ0ZXh0L2NzcyIgZGF0YS1kaWFncmFtLXR5cGU9IkNMQVNTIiBoZWlnaHQ9IjE2MTdweCIgcHJlc2VydmVBc3BlY3RSYXRpbz0ibm9uZSIgc3R5bGU9IndpZHRoOjQ2NDVweDtoZWlnaHQ6MTYxN3B4O2JhY2tncm91bmQ6I0ZGRkZGRjsiIHZlcnNpb249IjEuMSIgdmlld0JveD0iMCAwIDQ2NDUgMTYxNyIgd2lkdGg9IjQ2NDVweCIgem9vbUFuZFBhbj0ibWFnbmlmeSI+PGRlZnMvPjxnPjwhLS1jbGFzcyBVc2VyUm9sZS0tPjxnIGNsYXNzPSJlbnRpdHkiIGRhdGEtZW50aXR5PSJVc2VyUm9sZSIgZGF0YS1zb3VyY2UtbGluZT0iNCIgZGF0YS11aWQ9ImVudDAwMDIiIGlkPSJlbnRpdHlfVXNlclJvbGUiPjxyZWN0IGZpbGw9IiNGRkZGRkYiIGhlaWdodD0iODguOTUzMSIgcng9IjIuNSIgcnk9IjIuNSIgc3R5bGU9InN0cm9rZTojMDAwMDAwO3N0cm9rZS13aWR0aDoxOyIgd2lkdGg9Ijg0IiB4PSIyNDgwLjUiIHk9IjI3Ii8+PGVsbGlwc2UgY3g9IjI0OTMuNSIgY3k9IjQxIiBmaWxsPSIjRkZGRkZGIiByeD0iOSIgcnk9IjkiIHN0eWxlPSJzdHJva2U6IzAwMDAwMDtzdHJva2Utd2lkdGg6MTsiLz48cGF0aCBkPSJNMjQ5Ny4xMjUsNDcgTDI0OTcuMTI1LDQ1LjI1IEwyNDkxLjgxMjUsNDUuMjUgUTI0OTEuODEyNSw0NS4yNSAyNDkxLjgxMjUsNDEuNjg3NSBMMjQ5Ni4wNjI1LDQxLjY4NzUgTDI0OTYuMDYyNSwzOS45Mzc1IEwyNDkxLjgxMjUsMzkuOTM3NSBMMjQ5MS44MTI1LDM3LjQzNzUgTDI0OTcuMTI1LDM3LjQzNzUgTDI0OTcuMTI1LDM1LjY4NzUgTDI0OTAuMDYyNSwzNS42ODc1IFEyNDkwLjA2MjUsMzUuNjg3NSAyNDkwLjA2MjUsNDcgTDI0OTcuMTI1LDQ3IFogIiBmaWxsPSIjMDAwMDAwIi8+PHRleHQgZmlsbD0iIzAwMDAwMCIgZm9udC1mYW1pbHk9IlZlcmRhbmEiIGZvbnQtc2l6ZT0iMTQiIGxlbmd0aEFkanVzdD0ic3BhY2luZyIgdGV4dExlbmd0aD0iNTYiIHg9IjI1MDUuNSIgeT0iNDYuNzQyMiI+VXNlclJvbGU8L3RleHQ+PGxpbmUgc3R5bGU9InN0cm9rZTojMDAwMDAwO3N0cm9rZS13aWR0aDoxOyIgeDE9IjI0ODEuNSIgeDI9IjI1NjMuNSIgeTE9IjU1IiB5Mj0iNTUiLz48dGV4dCBmaWxsPSIjMDAwMDAwIiBmb250LWZhbWlseT0iVmVyZGFuYSIgZm9udC1zaXplPSIxNCIgbGVuZ3RoQWRqdXN0PSJzcGFjaW5nIiB0ZXh0TGVuZ3RoPSI0OSIgeD0iMjQ4Ni41IiB5PSI3Mi4yMzQ0Ij5TVFVERU5UPC90ZXh0Pjx0ZXh0IGZpbGw9IiMwMDAwMDAiIGZvbnQtZmFtaWx5PSJWZXJkYW5hIiBmb250LXNpemU9IjE0IiBsZW5ndGhBZGp1c3Q9InNwYWNpbmciIHRleHRMZW5ndGg9IjM1IiB4PSIyNDg2LjUiIHk9Ijg3LjIxODgiPlNUQUZGPC90ZXh0Pjx0ZXh0IGZpbGw9IiMwMDAwMDAiIGZvbnQtZmFtaWx5PSJWZXJkYW5hIiBmb250LXNpemU9IjE0IiBsZW5ndGhBZGp1c3Q9InNwYWNpbmciIHRleHRMZW5ndGg9IjM1IiB4PSIyNDg2LjUiIHk9IjEwMi4yMDMxIj5BRE1JTjwvdGV4dD48bGluZSBzdHlsZT0ic3Ryb2tlOiMwMDAwMDA7c3Ryb2tlLXdpZHRoOjE7IiB4MT0iMjQ4MS41IiB4Mj0iMjU2My41IiB5MT0iMTA3Ljk1MzEiIHkyPSIxMDcuOTUzMSIvPjwvZz48IS0tY2xhc3MgT3JkZXJTdGF0dXMtLT48ZyBjbGFzcz0iZW50aXR5IiBkYXRhLWVudGl0eT0iT3JkZXJTdGF0dXMiIGRhdGEtc291cmNlLWxpbmU9IjEwIiBkYXRhLXVpZD0iZW50MDAwMyIgaWQ9ImVudGl0eV9PcmRlclN0YXR1cyI+PHJlY3QgZmlsbD0iI0ZGRkZGRiIgaGVpZ2h0PSIxMTguOTIxOSIgcng9IjIuNSIgcnk9IjIuNSIgc3R5bGU9InN0cm9rZTojMDAwMDAwO3N0cm9rZS13aWR0aDoxOyIgd2lkdGg9IjEwNSIgeD0iMjYwMCIgeT0iMTIiLz48ZWxsaXBzZSBjeD0iMjYxMyIgY3k9IjI2IiBmaWxsPSIjRkZGRkZGIiByeD0iOSIgcnk9IjkiIHN0eWxlPSJzdHJva2U6IzAwMDAwMDtzdHJva2Utd2lkdGg6MTsiLz48cGF0aCBkPSJNMjYxNi42MjUsMzIgTDI2MTYuNjI1LDMwLjI1IEwyNjExLjMxMjUsMzAuMjUgUTI2MTEuMzEyNSwzMC4yNSAyNjExLjMxMjUsMjYuNjg3NSBMMjYxNS41NjI1LDI2LjY4NzUgTDI2MTUuNTYyNSwyNC45Mzc1IEwyNjExLjMxMjUsMjQuOTM3NSBMMjYxMS4zMTI1LDIyLjQzNzUgTDI2MTYuNjI1LDIyLjQzNzUgTDI2MTYuNjI1LDIwLjY4NzUgTDI2MDkuNTYyNSwyMC42ODc1IFEyNjA5LjU2MjUsMjAuNjg3NSAyNjA5LjU2MjUsMzIgTDI2MTYuNjI1LDMyIFogIiBmaWxsPSIjMDAwMDAwIi8+PHRleHQgZmlsbD0iIzAwMDAwMCIgZm9udC1mYW1pbHk9IlZlcmRhbmEiIGZvbnQtc2l6ZT0iMTQiIGxlbmd0aEFkanVzdD0ic3BhY2luZyIgdGV4dExlbmd0aD0iNzciIHg9IjI2MjUiIHk9IjMxLjc0MjIiPk9yZGVyU3RhdHVzPC90ZXh0PjxsaW5lIHN0eWxlPSJzdHJva2U6IzAwMDAwMDtzdHJva2Utd2lkdGg6MTsiIHgxPSIyNjAxIiB4Mj0iMjcwNCIgeTE9IjQwIiB5Mj0iNDAiLz48dGV4dCBmaWxsPSIjMDAwMDAwIiBmb250LWZhbWlseT0iVmVyZGFuYSIgZm9udC1zaXplPSIxNCIgbGVuZ3RoQWRqdXN0PSJzcGFjaW5nIiB0ZXh0TGVuZ3RoPSI0OSIgeD0iMjYwNiIgeT0iNTcuMjM0NCI+UEVORElORzwvdGV4dD48dGV4dCBmaWxsPSIjMDAwMDAwIiBmb250LWZhbWlseT0iVmVyZGFuYSIgZm9udC1zaXplPSIxNCIgbGVuZ3RoQWRqdXN0PSJzcGFjaW5nIiB0ZXh0TGVuZ3RoPSI2MyIgeD0iMjYwNiIgeT0iNzIuMjE4OCI+UFJFUEFSSU5HPC90ZXh0Pjx0ZXh0IGZpbGw9IiMwMDAwMDAiIGZvbnQtZmFtaWx5PSJWZXJkYW5hIiBmb250LXNpemU9IjE0IiBsZW5ndGhBZGp1c3Q9InNwYWNpbmciIHRleHRMZW5ndGg9IjM1IiB4PSIyNjA2IiB5PSI4Ny4yMDMxIj5SRUFEWTwvdGV4dD48dGV4dCBmaWxsPSIjMDAwMDAwIiBmb250LWZhbWlseT0iVmVyZGFuYSIgZm9udC1zaXplPSIxNCIgbGVuZ3RoQWRqdXN0PSJzcGFjaW5nIiB0ZXh0TGVuZ3RoPSI2MyIgeD0iMjYwNiIgeT0iMTAyLjE4NzUiPkNPTVBMRVRFRDwvdGV4dD48dGV4dCBmaWxsPSIjMDAwMDAwIiBmb250LWZhbWlseT0iVmVyZGFuYSIgZm9udC1zaXplPSIxNCIgbGVuZ3RoQWRqdXN0PSJzcGFjaW5nIiB0ZXh0TGVuZ3RoPSI2MyIgeD0iMjYwNiIgeT0iMTE3LjE3MTkiPkNBTkNFTExFRDwvdGV4dD48bGluZSBzdHlsZT0ic3Ryb2tlOiMwMDAwMDA7c3Ryb2tlLXdpZHRoOjE7IiB4MT0iMjYwMSIgeDI9IjI3MDQiIHkxPSIxMjIuOTIxOSIgeTI9IjEyMi45MjE5Ii8+PC9nPjwhLS1jbGFzcyBNZW51Q2F0ZWdvcnktLT48ZyBjbGFzcz0iZW50aXR5IiBkYXRhLWVudGl0eT0iTWVudUNhdGVnb3J5IiBkYXRhLXNvdXJjZS1saW5lPSIxOCIgZGF0YS11aWQ9ImVudDAwMDQiIGlkPSJlbnRpdHlfTWVudUNhdGVnb3J5Ij48cmVjdCBmaWxsPSIjRkZGRkZGIiBoZWlnaHQ9IjEwMy45Mzc1IiByeD0iMi41IiByeT0iMi41IiBzdHlsZT0ic3Ryb2tlOiMwMDAwMDA7c3Ryb2tlLXdpZHRoOjE7IiB3aWR0aD0iMTEyIiB4PSIyNzQwLjUiIHk9IjE5LjUiLz48ZWxsaXBzZSBjeD0iMjc1My41IiBjeT0iMzMuNSIgZmlsbD0iI0ZGRkZGRiIgcng9IjkiIHJ5PSI5IiBzdHlsZT0ic3Ryb2tlOiMwMDAwMDA7c3Ryb2tlLXdpZHRoOjE7Ii8+PHBhdGggZD0iTTI3NTcuMTI1LDM5LjUgTDI3NTcuMTI1LDM3Ljc1IEwyNzUxLjgxMjUsMzcuNzUgUTI3NTEuODEyNSwzNy43NSAyNzUxLjgxMjUsMzQuMTg3NSBMMjc1Ni4wNjI1LDM0LjE4NzUgTDI3NTYuMDYyNSwzMi40Mzc1IEwyNzUxLjgxMjUsMzIuNDM3NSBMMjc1MS44MTI1LDI5LjkzNzUgTDI3NTcuMTI1LDI5LjkzNzUgTDI3NTcuMTI1LDI4LjE4NzUgTDI3NTAuMDYyNSwyOC4xODc1IFEyNzUwLjA2MjUsMjguMTg3NSAyNzUwLjA2MjUsMzkuNSBMMjc1Ny4xMjUsMzkuNSBaICIgZmlsbD0iIzAwMDAwMCIvPjx0ZXh0IGZpbGw9IiMwMDAwMDAiIGZvbnQtZmFtaWx5PSJWZXJkYW5hIiBmb250LXNpemU9IjE0IiBsZW5ndGhBZGp1c3Q9InNwYWNpbmciIHRleHRMZW5ndGg9Ijg0IiB4PSIyNzY1LjUiIHk9IjM5LjI0MjIiPk1lbnVDYXRlZ29yeTwvdGV4dD48bGluZSBzdHlsZT0ic3Ryb2tlOiMwMDAwMDA7c3Ryb2tlLXdpZHRoOjE7IiB4MT0iMjc0MS41IiB4Mj0iMjg1MS41IiB5MT0iNDcuNSIgeTI9IjQ3LjUiLz48dGV4dCBmaWxsPSIjMDAwMDAwIiBmb250LWZhbWlseT0iVmVyZGFuYSIgZm9udC1zaXplPSIxNCIgbGVuZ3RoQWRqdXN0PSJzcGFjaW5nIiB0ZXh0TGVuZ3RoPSI3NyIgeD0iMjc0Ni41IiB5PSI2NC43MzQ0Ij5NQUlOX0NPVVJTRTwvdGV4dD48dGV4dCBmaWxsPSIjMDAwMDAwIiBmb250LWZhbWlseT0iVmVyZGFuYSIgZm9udC1zaXplPSIxNCIgbGVuZ3RoQWRqdXN0PSJzcGFjaW5nIiB0ZXh0TGVuZ3RoPSIzNSIgeD0iMjc0Ni41IiB5PSI3OS43MTg4Ij5TTkFDSzwvdGV4dD48dGV4dCBmaWxsPSIjMDAwMDAwIiBmb250LWZhbWlseT0iVmVyZGFuYSIgZm9udC1zaXplPSIxNCIgbGVuZ3RoQWRqdXN0PSJzcGFjaW5nIiB0ZXh0TGVuZ3RoPSIzNSIgeD0iMjc0Ni41IiB5PSI5NC43MDMxIj5EUklOSzwvdGV4dD48dGV4dCBmaWxsPSIjMDAwMDAwIiBmb250LWZhbWlseT0iVmVyZGFuYSIgZm9udC1zaXplPSIxNCIgbGVuZ3RoQWRqdXN0PSJzcGFjaW5nIiB0ZXh0TGVuZ3RoPSI0OSIgeD0iMjc0Ni41IiB5PSIxMDkuNjg3NSI+REVTU0VSVDwvdGV4dD48bGluZSBzdHlsZT0ic3Ryb2tlOiMwMDAwMDA7c3Ryb2tlLXdpZHRoOjE7IiB4MT0iMjc0MS41IiB4Mj0iMjg1MS41IiB5MT0iMTE1LjQzNzUiIHkyPSIxMTUuNDM3NSIvPjwvZz48IS0tY2xhc3MgUGF5bWVudFN0YXR1cy0tPjxnIGNsYXNzPSJlbnRpdHkiIGRhdGEtZW50aXR5PSJQYXltZW50U3RhdHVzIiBkYXRhLXNvdXJjZS1saW5lPSIyNSIgZGF0YS11aWQ9ImVudDAwMDUiIGlkPSJlbnRpdHlfUGF5bWVudFN0YXR1cyI+PHJlY3QgZmlsbD0iI0ZGRkZGRiIgaGVpZ2h0PSIxMTguOTIxOSIgcng9IjIuNSIgcnk9IjIuNSIgc3R5bGU9InN0cm9rZTojMDAwMDAwO3N0cm9rZS13aWR0aDoxOyIgd2lkdGg9IjExOSIgeD0iMjQ2MyIgeT0iMTk5LjUiLz48ZWxsaXBzZSBjeD0iMjQ3NiIgY3k9IjIxMy41IiBmaWxsPSIjRkZGRkZGIiByeD0iOSIgcnk9IjkiIHN0eWxlPSJzdHJva2U6IzAwMDAwMDtzdHJva2Utd2lkdGg6MTsiLz48cGF0aCBkPSJNMjQ3OS42MjUsMjE5LjUgTDI0NzkuNjI1LDIxNy43NSBMMjQ3NC4zMTI1LDIxNy43NSBRMjQ3NC4zMTI1LDIxNy43NSAyNDc0LjMxMjUsMjE0LjE4NzUgTDI0NzguNTYyNSwyMTQuMTg3NSBMMjQ3OC41NjI1LDIxMi40Mzc1IEwyNDc0LjMxMjUsMjEyLjQzNzUgTDI0NzQuMzEyNSwyMDkuOTM3NSBMMjQ3OS42MjUsMjA5LjkzNzUgTDI0NzkuNjI1LDIwOC4xODc1IEwyNDcyLjU2MjUsMjA4LjE4NzUgUTI0NzIuNTYyNSwyMDguMTg3NSAyNDcyLjU2MjUsMjE5LjUgTDI0NzkuNjI1LDIxOS41IFogIiBmaWxsPSIjMDAwMDAwIi8+PHRleHQgZmlsbD0iIzAwMDAwMCIgZm9udC1mYW1pbHk9IlZlcmRhbmEiIGZvbnQtc2l6ZT0iMTQiIGxlbmd0aEFkanVzdD0ic3BhY2luZyIgdGV4dExlbmd0aD0iOTEiIHg9IjI0ODgiIHk9IjIxOS4yNDIyIj5QYXltZW50U3RhdHVzPC90ZXh0PjxsaW5lIHN0eWxlPSJzdHJva2U6IzAwMDAwMDtzdHJva2Utd2lkdGg6MTsiIHgxPSIyNDY0IiB4Mj0iMjU4MSIgeTE9IjIyNy41IiB5Mj0iMjI3LjUiLz48dGV4dCBmaWxsPSIjMDAwMDAwIiBmb250LWZhbWlseT0iVmVyZGFuYSIgZm9udC1zaXplPSIxNCIgbGVuZ3RoQWRqdXN0PSJzcGFjaW5nIiB0ZXh0TGVuZ3RoPSI0OSIgeD0iMjQ2OSIgeT0iMjQ0LjczNDQiPlBFTkRJTkc8L3RleHQ+PHRleHQgZmlsbD0iIzAwMDAwMCIgZm9udC1mYW1pbHk9IlZlcmRhbmEiIGZvbnQtc2l6ZT0iMTQiIGxlbmd0aEFkanVzdD0ic3BhY2luZyIgdGV4dExlbmd0aD0iNzAiIHg9IjI0NjkiIHk9IjI1OS43MTg4Ij5QUk9DRVNTSU5HPC90ZXh0Pjx0ZXh0IGZpbGw9IiMwMDAwMDAiIGZvbnQtZmFtaWx5PSJWZXJkYW5hIiBmb250LXNpemU9IjE0IiBsZW5ndGhBZGp1c3Q9InNwYWNpbmciIHRleHRMZW5ndGg9IjYzIiB4PSIyNDY5IiB5PSIyNzQuNzAzMSI+Q09NUExFVEVEPC90ZXh0Pjx0ZXh0IGZpbGw9IiMwMDAwMDAiIGZvbnQtZmFtaWx5PSJWZXJkYW5hIiBmb250LXNpemU9IjE0IiBsZW5ndGhBZGp1c3Q9InNwYWNpbmciIHRleHRMZW5ndGg9IjQyIiB4PSIyNDY5IiB5PSIyODkuNjg3NSI+RkFJTEVEPC90ZXh0Pjx0ZXh0IGZpbGw9IiMwMDAwMDAiIGZvbnQtZmFtaWx5PSJWZXJkYW5hIiBmb250LXNpemU9IjE0IiBsZW5ndGhBZGp1c3Q9InNwYWNpbmciIHRleHRMZW5ndGg9IjU2IiB4PSIyNDY5IiB5PSIzMDQuNjcxOSI+UkVGVU5ERUQ8L3RleHQ+PGxpbmUgc3R5bGU9InN0cm9rZTojMDAwMDAwO3N0cm9rZS13aWR0aDoxOyIgeDE9IjI0NjQiIHgyPSIyNTgxIiB5MT0iMzEwLjQyMTkiIHkyPSIzMTAuNDIxOSIvPjwvZz48IS0tY2xhc3MgUGF5bWVudE1ldGhvZC0tPjxnIGNsYXNzPSJlbnRpdHkiIGRhdGEtZW50aXR5PSJQYXltZW50TWV0aG9kIiBkYXRhLXNvdXJjZS1saW5lPSIzMyIgZGF0YS11aWQ9ImVudDAwMDYiIGlkPSJlbnRpdHlfUGF5bWVudE1ldGhvZCI+PHJlY3QgZmlsbD0iI0ZGRkZGRiIgaGVpZ2h0PSIxMDMuOTM3NSIgcng9IjIuNSIgcnk9IjIuNSIgc3R5bGU9InN0cm9rZTojMDAwMDAwO3N0cm9rZS13aWR0aDoxOyIgd2lkdGg9IjExOSIgeD0iMjYxNyIgeT0iMjA3Ii8+PGVsbGlwc2UgY3g9IjI2MzAiIGN5PSIyMjEiIGZpbGw9IiNGRkZGRkYiIHJ4PSI5IiByeT0iOSIgc3R5bGU9InN0cm9rZTojMDAwMDAwO3N0cm9rZS13aWR0aDoxOyIvPjxwYXRoIGQ9Ik0yNjMzLjYyNSwyMjcgTDI2MzMuNjI1LDIyNS4yNSBMMjYyOC4zMTI1LDIyNS4yNSBRMjYyOC4zMTI1LDIyNS4yNSAyNjI4LjMxMjUsMjIxLjY4NzUgTDI2MzIuNTYyNSwyMjEuNjg3NSBMMjYzMi41NjI1LDIxOS45Mzc1IEwyNjI4LjMxMjUsMjE5LjkzNzUgTDI2MjguMzEyNSwyMTcuNDM3NSBMMjYzMy42MjUsMjE3LjQzNzUgTDI2MzMuNjI1LDIxNS42ODc1IEwyNjI2LjU2MjUsMjE1LjY4NzUgUTI2MjYuNTYyNSwyMTUuNjg3NSAyNjI2LjU2MjUsMjI3IEwyNjMzLjYyNSwyMjcgWiAiIGZpbGw9IiMwMDAwMDAiLz48dGV4dCBmaWxsPSIjMDAwMDAwIiBmb250LWZhbWlseT0iVmVyZGFuYSIgZm9udC1zaXplPSIxNCIgbGVuZ3RoQWRqdXN0PSJzcGFjaW5nIiB0ZXh0TGVuZ3RoPSI5MSIgeD0iMjY0MiIgeT0iMjI2Ljc0MjIiPlBheW1lbnRNZXRob2Q8L3RleHQ+PGxpbmUgc3R5bGU9InN0cm9rZTojMDAwMDAwO3N0cm9rZS13aWR0aDoxOyIgeDE9IjI2MTgiIHgyPSIyNzM1IiB5MT0iMjM1IiB5Mj0iMjM1Ii8+PHRleHQgZmlsbD0iIzAwMDAwMCIgZm9udC1mYW1pbHk9IlZlcmRhbmEiIGZvbnQtc2l6ZT0iMTQiIGxlbmd0aEFkanVzdD0ic3BhY2luZyIgdGV4dExlbmd0aD0iMjgiIHg9IjI2MjMiIHk9IjI1Mi4yMzQ0Ij5DQVNIPC90ZXh0Pjx0ZXh0IGZpbGw9IiMwMDAwMDAiIGZvbnQtZmFtaWx5PSJWZXJkYW5hIiBmb250LXNpemU9IjE0IiBsZW5ndGhBZGp1c3Q9InNwYWNpbmciIHRleHRMZW5ndGg9Ijc3IiB4PSIyNjIzIiB5PSIyNjcuMjE4OCI+Q1JFRElUX0NBUkQ8L3RleHQ+PHRleHQgZmlsbD0iIzAwMDAwMCIgZm9udC1mYW1pbHk9IlZlcmRhbmEiIGZvbnQtc2l6ZT0iMTQiIGxlbmd0aEFkanVzdD0ic3BhY2luZyIgdGV4dExlbmd0aD0iNzAiIHg9IjI2MjMiIHk9IjI4Mi4yMDMxIj5ERUJJVF9DQVJEPC90ZXh0Pjx0ZXh0IGZpbGw9IiMwMDAwMDAiIGZvbnQtZmFtaWx5PSJWZXJkYW5hIiBmb250LXNpemU9IjE0IiBsZW5ndGhBZGp1c3Q9InNwYWNpbmciIHRleHRMZW5ndGg9Ijk4IiB4PSIyNjIzIiB5PSIyOTcuMTg3NSI+TE9ZQUxUWV9QT0lOVFM8L3RleHQ+PGxpbmUgc3R5bGU9InN0cm9rZTojMDAwMDAwO3N0cm9rZS13aWR0aDoxOyIgeDE9IjI2MTgiIHgyPSIyNzM1IiB5MT0iMzAyLjkzNzUiIHkyPSIzMDIuOTM3NSIvPjwvZz48IS0tY2xhc3MgVXNlci0tPjxnIGNsYXNzPSJlbnRpdHkiIGRhdGEtZW50aXR5PSJVc2VyIiBkYXRhLXNvdXJjZS1saW5lPSI0MSIgZGF0YS11aWQ9ImVudDAwMDciIGlkPSJlbnRpdHlfVXNlciI+PHJlY3QgZmlsbD0iI0ZGRkZGRiIgaGVpZ2h0PSIxMzMuOTA2MyIgcng9IjIuNSIgcnk9IjIuNSIgc3R5bGU9InN0cm9rZTojMDAwMDAwO3N0cm9rZS13aWR0aDoxOyIgd2lkdGg9IjM3NCIgeD0iMjA1My41IiB5PSIxOTIiLz48ZWxsaXBzZSBjeD0iMjIyMi43NSIgY3k9IjIwNiIgZmlsbD0iI0ZGRkZGRiIgcng9IjkiIHJ5PSI5IiBzdHlsZT0ic3Ryb2tlOiMwMDAwMDA7c3Ryb2tlLXdpZHRoOjE7Ii8+PHBhdGggZD0iTTIyMjAuMzc1LDIxMC4yNSBMMjIyMC4zNzUsMjEyIEwyMjI1LjMxMjUsMjEyIEwyMjI1LjMxMjUsMjEwLjI1IEwyMjIwLjM3NSwyMTAuMjUgWiBNMjIyMS4wNjI1LDIxMC45Mzc1IFEyMjIxLjA2MjUsMjEwLjkzNzUgMjIyMS4wNjI1LDIwMS43NSBMMjIxOS4zMTI1LDIwMS43NSBRMjIxOS4zMTI1LDIwMS43NSAyMjE5LjMxMjUsMjEwLjkzNzUgTDIyMjEuMDYyNSwyMTAuOTM3NSBaIE0yMjI0LjYyNSwyMTAuOTM3NSBMMjIyNi4zNzUsMjEwLjkzNzUgUTIyMjYuMzc1LDIxMC45Mzc1IDIyMjYuMzc1LDIwOC4xMjUgTDIyMjQuNjI1LDIwOC4xMjUgUTIyMjQuNjI1LDIwOC4xMjUgMjIyNC42MjUsMjEwLjkzNzUgWiBNMjIyNC42MjUsMjAxLjc1IFEyMjI0LjYyNSwyMDEuNzUgMjIyNC42MjUsMjA0LjU2MjUgTDIyMjYuMzc1LDIwNC41NjI1IFEyMjI2LjM3NSwyMDQuNTYyNSAyMjI2LjM3NSwyMDEuNzUgTDIyMjQuNjI1LDIwMS43NSBaIE0yMjIwLjM3NSwyMDIuNDM3NSBMMjIyNS4zMTI1LDIwMi40Mzc1IEwyMjI1LjMxMjUsMjAwLjY4NzUgTDIyMjAuMzc1LDIwMC42ODc1IEwyMjIwLjM3NSwyMDIuNDM3NSBaICIgZmlsbD0iIzAwMDAwMCIvPjx0ZXh0IGZpbGw9IiMwMDAwMDAiIGZvbnQtZmFtaWx5PSJWZXJkYW5hIiBmb250LXNpemU9IjE0IiBsZW5ndGhBZGp1c3Q9InNwYWNpbmciIHRleHRMZW5ndGg9IjI4IiB4PSIyMjQwLjI1IiB5PSIyMTEuNzQyMiI+VXNlcjwvdGV4dD48bGluZSBzdHlsZT0ic3Ryb2tlOiMwMDAwMDA7c3Ryb2tlLXdpZHRoOjE7IiB4MT0iMjA1NC41IiB4Mj0iMjQyNi41IiB5MT0iMjIwIiB5Mj0iMjIwIi8+PHJlY3QgZmlsbD0ibm9uZSIgaGVpZ2h0PSI2IiBzdHlsZT0ic3Ryb2tlOiMwMDAwMDA7c3Ryb2tlLXdpZHRoOjE7IiB3aWR0aD0iNiIgeD0iMjA2MS41IiB5PSIyMjkuOTkyMiIvPjx0ZXh0IGZpbGw9IiMwMDAwMDAiIGZvbnQtZmFtaWx5PSJWZXJkYW5hIiBmb250LXNpemU9IjE0IiBsZW5ndGhBZGp1c3Q9InNwYWNpbmciIHRleHRMZW5ndGg9Ijk4IiB4PSIyMDcxLjUiIHk9IjIzNy4yMzQ0Ij51c2VySWQ6IFN0cmluZzwvdGV4dD48cmVjdCBmaWxsPSJub25lIiBoZWlnaHQ9IjYiIHN0eWxlPSJzdHJva2U6IzAwMDAwMDtzdHJva2Utd2lkdGg6MTsiIHdpZHRoPSI2IiB4PSIyMDYxLjUiIHk9IjI0NC45NzY2Ii8+PHRleHQgZmlsbD0iIzAwMDAwMCIgZm9udC1mYW1pbHk9IlZlcmRhbmEiIGZvbnQtc2l6ZT0iMTQiIGxlbmd0aEFkanVzdD0ic3BhY2luZyIgdGV4dExlbmd0aD0iMTEyIiB4PSIyMDcxLjUiIHk9IjI1Mi4yMTg4Ij51c2VybmFtZTogU3RyaW5nPC90ZXh0PjxyZWN0IGZpbGw9Im5vbmUiIGhlaWdodD0iNiIgc3R5bGU9InN0cm9rZTojMDAwMDAwO3N0cm9rZS13aWR0aDoxOyIgd2lkdGg9IjYiIHg9IjIwNjEuNSIgeT0iMjU5Ljk2MDkiLz48dGV4dCBmaWxsPSIjMDAwMDAwIiBmb250LWZhbWlseT0iVmVyZGFuYSIgZm9udC1zaXplPSIxNCIgbGVuZ3RoQWRqdXN0PSJzcGFjaW5nIiB0ZXh0TGVuZ3RoPSIxMTIiIHg9IjIwNzEuNSIgeT0iMjY3LjIwMzEiPnBhc3N3b3JkOiBTdHJpbmc8L3RleHQ+PHJlY3QgZmlsbD0ibm9uZSIgaGVpZ2h0PSI2IiBzdHlsZT0ic3Ryb2tlOiMwMDAwMDA7c3Ryb2tlLXdpZHRoOjE7IiB3aWR0aD0iNiIgeD0iMjA2MS41IiB5PSIyNzQuOTQ1MyIvPjx0ZXh0IGZpbGw9IiMwMDAwMDAiIGZvbnQtZmFtaWx5PSJWZXJkYW5hIiBmb250LXNpemU9IjE0IiBsZW5ndGhBZGp1c3Q9InNwYWNpbmciIHRleHRMZW5ndGg9Ijk4IiB4PSIyMDcxLjUiIHk9IjI4Mi4xODc1Ij5yb2xlOiBVc2VyUm9sZTwvdGV4dD48bGluZSBzdHlsZT0ic3Ryb2tlOiMwMDAwMDA7c3Ryb2tlLXdpZHRoOjE7IiB4MT0iMjA1NC41IiB4Mj0iMjQyNi41IiB5MT0iMjg3LjkzNzUiIHkyPSIyODcuOTM3NSIvPjxlbGxpcHNlIGN4PSIyMDY0LjUiIGN5PSIzMDAuOTI5NyIgZmlsbD0iI0ZGRkZGRiIgcng9IjMiIHJ5PSIzIiBzdHlsZT0ic3Ryb2tlOiMwMDAwMDA7c3Ryb2tlLXdpZHRoOjE7Ii8+PHRleHQgZmlsbD0iIzAwMDAwMCIgZm9udC1mYW1pbHk9IlZlcmRhbmEiIGZvbnQtc2l6ZT0iMTQiIGxlbmd0aEFkanVzdD0ic3BhY2luZyIgdGV4dExlbmd0aD0iMzUwIiB4PSIyMDcxLjUiIHk9IjMwNS4xNzE5Ij5sb2dpbih1c2VybmFtZTogU3RyaW5nLCBwYXNzd29yZDogU3RyaW5nKTogYm9vbGVhbjwvdGV4dD48ZWxsaXBzZSBjeD0iMjA2NC41IiBjeT0iMzE1LjkxNDEiIGZpbGw9IiNGRkZGRkYiIHJ4PSIzIiByeT0iMyIgc3R5bGU9InN0cm9rZTojMDAwMDAwO3N0cm9rZS13aWR0aDoxOyIvPjx0ZXh0IGZpbGw9IiMwMDAwMDAiIGZvbnQtZmFtaWx5PSJWZXJkYW5hIiBmb250LXNpemU9IjE0IiBsZW5ndGhBZGp1c3Q9InNwYWNpbmciIHRleHRMZW5ndGg9Ijk4IiB4PSIyMDcxLjUiIHk9IjMyMC4xNTYzIj5sb2dvdXQoKTogdm9pZDwvdGV4dD48L2c+PCEtLWNsYXNzIFN0dWRlbnQtLT48ZyBjbGFzcz0iZW50aXR5IiBkYXRhLWVudGl0eT0iU3R1ZGVudCIgZGF0YS1zb3VyY2UtbGluZT0iNTAiIGRhdGEtdWlkPSJlbnQwMDA4IiBpZD0iZW50aXR5X1N0dWRlbnQiPjxyZWN0IGZpbGw9IiNGRkZGRkYiIGhlaWdodD0iMTMzLjkwNjMiIHJ4PSIyLjUiIHJ5PSIyLjUiIHN0eWxlPSJzdHJva2U6IzAwMDAwMDtzdHJva2Utd2lkdGg6MTsiIHdpZHRoPSIyOTciIHg9IjIzNzQiIHk9IjE0NzciLz48ZWxsaXBzZSBjeD0iMjQ5NC4yNSIgY3k9IjE0OTEiIGZpbGw9IiNGRkZGRkYiIHJ4PSI5IiByeT0iOSIgc3R5bGU9InN0cm9rZTojMDAwMDAwO3N0cm9rZS13aWR0aDoxOyIvPjxwYXRoIGQ9Ik0yNDkxLjg3NSwxNDk1LjI1IEwyNDkxLjg3NSwxNDk3IEwyNDk2LjgxMjUsMTQ5NyBMMjQ5Ni44MTI1LDE0OTUuMjUgTDI0OTEuODc1LDE0OTUuMjUgWiBNMjQ5Mi41NjI1LDE0OTUuOTM3NSBRMjQ5Mi41NjI1LDE0OTUuOTM3NSAyNDkyLjU2MjUsMTQ4Ni43NSBMMjQ5MC44MTI1LDE0ODYuNzUgUTI0OTAuODEyNSwxNDg2Ljc1IDI0OTAuODEyNSwxNDk1LjkzNzUgTDI0OTIuNTYyNSwxNDk1LjkzNzUgWiBNMjQ5Ni4xMjUsMTQ5NS45Mzc1IEwyNDk3Ljg3NSwxNDk1LjkzNzUgUTI0OTcuODc1LDE0OTUuOTM3NSAyNDk3Ljg3NSwxNDkzLjEyNSBMMjQ5Ni4xMjUsMTQ5My4xMjUgUTI0OTYuMTI1LDE0OTMuMTI1IDI0OTYuMTI1LDE0OTUuOTM3NSBaIE0yNDk2LjEyNSwxNDg2Ljc1IFEyNDk2LjEyNSwxNDg2Ljc1IDI0OTYuMTI1LDE0ODkuNTYyNSBMMjQ5Ny44NzUsMTQ4OS41NjI1IFEyNDk3Ljg3NSwxNDg5LjU2MjUgMjQ5Ny44NzUsMTQ4Ni43NSBMMjQ5Ni4xMjUsMTQ4Ni43NSBaIE0yNDkxLjg3NSwxNDg3LjQzNzUgTDI0OTYuODEyNSwxNDg3LjQzNzUgTDI0OTYuODEyNSwxNDg1LjY4NzUgTDI0OTEuODc1LDE0ODUuNjg3NSBMMjQ5MS44NzUsMTQ4Ny40Mzc1IFogIiBmaWxsPSIjMDAwMDAwIi8+PHRleHQgZmlsbD0iIzAwMDAwMCIgZm9udC1mYW1pbHk9IlZlcmRhbmEiIGZvbnQtc2l6ZT0iMTQiIGxlbmd0aEFkanVzdD0ic3BhY2luZyIgdGV4dExlbmd0aD0iNDkiIHg9IjI1MTEuNzUiIHk9IjE0OTYuNzQyMiI+U3R1ZGVudDwvdGV4dD48bGluZSBzdHlsZT0ic3Ryb2tlOiMwMDAwMDA7c3Ryb2tlLXdpZHRoOjE7IiB4MT0iMjM3NSIgeDI9IjI2NzAiIHkxPSIxNTA1IiB5Mj0iMTUwNSIvPjxyZWN0IGZpbGw9Im5vbmUiIGhlaWdodD0iNiIgc3R5bGU9InN0cm9rZTojMDAwMDAwO3N0cm9rZS13aWR0aDoxOyIgd2lkdGg9IjYiIHg9IjIzODIiIHk9IjE1MTQuOTkyMiIvPjx0ZXh0IGZpbGw9IiMwMDAwMDAiIGZvbnQtZmFtaWx5PSJWZXJkYW5hIiBmb250LXNpemU9IjE0IiBsZW5ndGhBZGp1c3Q9InNwYWNpbmciIHRleHRMZW5ndGg9IjExOSIgeD0iMjM5MiIgeT0iMTUyMi4yMzQ0Ij5zdHVkZW50SWQ6IFN0cmluZzwvdGV4dD48cmVjdCBmaWxsPSJub25lIiBoZWlnaHQ9IjYiIHN0eWxlPSJzdHJva2U6IzAwMDAwMDtzdHJva2Utd2lkdGg6MTsiIHdpZHRoPSI2IiB4PSIyMzgyIiB5PSIxNTI5Ljk3NjYiLz48dGV4dCBmaWxsPSIjMDAwMDAwIiBmb250LWZhbWlseT0iVmVyZGFuYSIgZm9udC1zaXplPSIxNCIgbGVuZ3RoQWRqdXN0PSJzcGFjaW5nIiB0ZXh0TGVuZ3RoPSI4NCIgeD0iMjM5MiIgeT0iMTUzNy4yMTg4Ij5uYW1lOiBTdHJpbmc8L3RleHQ+PHJlY3QgZmlsbD0ibm9uZSIgaGVpZ2h0PSI2IiBzdHlsZT0ic3Ryb2tlOiMwMDAwMDA7c3Ryb2tlLXdpZHRoOjE7IiB3aWR0aD0iNiIgeD0iMjM4MiIgeT0iMTU0NC45NjA5Ii8+PHRleHQgZmlsbD0iIzAwMDAwMCIgZm9udC1mYW1pbHk9IlZlcmRhbmEiIGZvbnQtc2l6ZT0iMTQiIGxlbmd0aEFkanVzdD0ic3BhY2luZyIgdGV4dExlbmd0aD0iOTEiIHg9IjIzOTIiIHk9IjE1NTIuMjAzMSI+ZW1haWw6IFN0cmluZzwvdGV4dD48cmVjdCBmaWxsPSJub25lIiBoZWlnaHQ9IjYiIHN0eWxlPSJzdHJva2U6IzAwMDAwMDtzdHJva2Utd2lkdGg6MTsiIHdpZHRoPSI2IiB4PSIyMzgyIiB5PSIxNTU5Ljk0NTMiLz48dGV4dCBmaWxsPSIjMDAwMDAwIiBmb250LWZhbWlseT0iVmVyZGFuYSIgZm9udC1zaXplPSIxNCIgbGVuZ3RoQWRqdXN0PSJzcGFjaW5nIiB0ZXh0TGVuZ3RoPSIxMjYiIHg9IjIzOTIiIHk9IjE1NjcuMTg3NSI+cG9pbnRzQmFsYW5jZTogaW50PC90ZXh0PjxsaW5lIHN0eWxlPSJzdHJva2U6IzAwMDAwMDtzdHJva2Utd2lkdGg6MTsiIHgxPSIyMzc1IiB4Mj0iMjY3MCIgeTE9IjE1NzIuOTM3NSIgeTI9IjE1NzIuOTM3NSIvPjxlbGxpcHNlIGN4PSIyMzg1IiBjeT0iMTU4NS45Mjk3IiBmaWxsPSIjRkZGRkZGIiByeD0iMyIgcnk9IjMiIHN0eWxlPSJzdHJva2U6IzAwMDAwMDtzdHJva2Utd2lkdGg6MTsiLz48dGV4dCBmaWxsPSIjMDAwMDAwIiBmb250LWZhbWlseT0iVmVyZGFuYSIgZm9udC1zaXplPSIxNCIgbGVuZ3RoQWRqdXN0PSJzcGFjaW5nIiB0ZXh0TGVuZ3RoPSIxNjgiIHg9IjIzOTIiIHk9IjE1OTAuMTcxOSI+dmlld1BvaW50c0JhbGFuY2UoKTogaW50PC90ZXh0PjxlbGxpcHNlIGN4PSIyMzg1IiBjeT0iMTYwMC45MTQxIiBmaWxsPSIjRkZGRkZGIiByeD0iMyIgcnk9IjMiIHN0eWxlPSJzdHJva2U6IzAwMDAwMDtzdHJva2Utd2lkdGg6MTsiLz48dGV4dCBmaWxsPSIjMDAwMDAwIiBmb250LWZhbWlseT0iVmVyZGFuYSIgZm9udC1zaXplPSIxNCIgbGVuZ3RoQWRqdXN0PSJzcGFjaW5nIiB0ZXh0TGVuZ3RoPSIyNzMiIHg9IjIzOTIiIHk9IjE2MDUuMTU2MyI+cmVkZWVtUG9pbnRzKHJld2FyZElkOiBTdHJpbmcpOiBib29sZWFuPC90ZXh0PjwvZz48IS0tY2xhc3MgU3RhZmYtLT48ZyBjbGFzcz0iZW50aXR5IiBkYXRhLWVudGl0eT0iU3RhZmYiIGRhdGEtc291cmNlLWxpbmU9IjU5IiBkYXRhLXVpZD0iZW50MDAwOSIgaWQ9ImVudGl0eV9TdGFmZiI+PHJlY3QgZmlsbD0iI0ZGRkZGRiIgaGVpZ2h0PSIxMTguOTIxOSIgcng9IjIuNSIgcnk9IjIuNSIgc3R5bGU9InN0cm9rZTojMDAwMDAwO3N0cm9rZS13aWR0aDoxOyIgd2lkdGg9IjQ3MiIgeD0iMTY1MS41IiB5PSIzODciLz48ZWxsaXBzZSBjeD0iMTg2Ni4yNSIgY3k9IjQwMSIgZmlsbD0iI0ZGRkZGRiIgcng9IjkiIHJ5PSI5IiBzdHlsZT0ic3Ryb2tlOiMwMDAwMDA7c3Ryb2tlLXdpZHRoOjE7Ii8+PHBhdGggZD0iTTE4NjMuODc1LDQwNS4yNSBMMTg2My44NzUsNDA3IEwxODY4LjgxMjUsNDA3IEwxODY4LjgxMjUsNDA1LjI1IEwxODYzLjg3NSw0MDUuMjUgWiBNMTg2NC41NjI1LDQwNS45Mzc1IFExODY0LjU2MjUsNDA1LjkzNzUgMTg2NC41NjI1LDM5Ni43NSBMMTg2Mi44MTI1LDM5Ni43NSBRMTg2Mi44MTI1LDM5Ni43NSAxODYyLjgxMjUsNDA1LjkzNzUgTDE4NjQuNTYyNSw0MDUuOTM3NSBaIE0xODY4LjEyNSw0MDUuOTM3NSBMMTg2OS44NzUsNDA1LjkzNzUgUTE4NjkuODc1LDQwNS45Mzc1IDE4NjkuODc1LDQwMy4xMjUgTDE4NjguMTI1LDQwMy4xMjUgUTE4NjguMTI1LDQwMy4xMjUgMTg2OC4xMjUsNDA1LjkzNzUgWiBNMTg2OC4xMjUsMzk2Ljc1IFExODY4LjEyNSwzOTYuNzUgMTg2OC4xMjUsMzk5LjU2MjUgTDE4NjkuODc1LDM5OS41NjI1IFExODY5Ljg3NSwzOTkuNTYyNSAxODY5Ljg3NSwzOTYuNzUgTDE4NjguMTI1LDM5Ni43NSBaIE0xODYzLjg3NSwzOTcuNDM3NSBMMTg2OC44MTI1LDM5Ny40Mzc1IEwxODY4LjgxMjUsMzk1LjY4NzUgTDE4NjMuODc1LDM5NS42ODc1IEwxODYzLjg3NSwzOTcuNDM3NSBaICIgZmlsbD0iIzAwMDAwMCIvPjx0ZXh0IGZpbGw9IiMwMDAwMDAiIGZvbnQtZmFtaWx5PSJWZXJkYW5hIiBmb250LXNpemU9IjE0IiBsZW5ndGhBZGp1c3Q9InNwYWNpbmciIHRleHRMZW5ndGg9IjM1IiB4PSIxODgzLjc1IiB5PSI0MDYuNzQyMiI+U3RhZmY8L3RleHQ+PGxpbmUgc3R5bGU9InN0cm9rZTojMDAwMDAwO3N0cm9rZS13aWR0aDoxOyIgeDE9IjE2NTIuNSIgeDI9IjIxMjIuNSIgeTE9IjQxNSIgeTI9IjQxNSIvPjxyZWN0IGZpbGw9Im5vbmUiIGhlaWdodD0iNiIgc3R5bGU9InN0cm9rZTojMDAwMDAwO3N0cm9rZS13aWR0aDoxOyIgd2lkdGg9IjYiIHg9IjE2NTkuNSIgeT0iNDI0Ljk5MjIiLz48dGV4dCBmaWxsPSIjMDAwMDAwIiBmb250LWZhbWlseT0iVmVyZGFuYSIgZm9udC1zaXplPSIxNCIgbGVuZ3RoQWRqdXN0PSJzcGFjaW5nIiB0ZXh0TGVuZ3RoPSIxMDUiIHg9IjE2NjkuNSIgeT0iNDMyLjIzNDQiPnN0YWZmSWQ6IFN0cmluZzwvdGV4dD48cmVjdCBmaWxsPSJub25lIiBoZWlnaHQ9IjYiIHN0eWxlPSJzdHJva2U6IzAwMDAwMDtzdHJva2Utd2lkdGg6MTsiIHdpZHRoPSI2IiB4PSIxNjU5LjUiIHk9IjQzOS45NzY2Ii8+PHRleHQgZmlsbD0iIzAwMDAwMCIgZm9udC1mYW1pbHk9IlZlcmRhbmEiIGZvbnQtc2l6ZT0iMTQiIGxlbmd0aEFkanVzdD0ic3BhY2luZyIgdGV4dExlbmd0aD0iODQiIHg9IjE2NjkuNSIgeT0iNDQ3LjIxODgiPm5hbWU6IFN0cmluZzwvdGV4dD48bGluZSBzdHlsZT0ic3Ryb2tlOiMwMDAwMDA7c3Ryb2tlLXdpZHRoOjE7IiB4MT0iMTY1Mi41IiB4Mj0iMjEyMi41IiB5MT0iNDUyLjk2ODgiIHkyPSI0NTIuOTY4OCIvPjxlbGxpcHNlIGN4PSIxNjYyLjUiIGN5PSI0NjUuOTYwOSIgZmlsbD0iI0ZGRkZGRiIgcng9IjMiIHJ5PSIzIiBzdHlsZT0ic3Ryb2tlOiMwMDAwMDA7c3Ryb2tlLXdpZHRoOjE7Ii8+PHRleHQgZmlsbD0iIzAwMDAwMCIgZm9udC1mYW1pbHk9IlZlcmRhbmEiIGZvbnQtc2l6ZT0iMTQiIGxlbmd0aEFkanVzdD0ic3BhY2luZyIgdGV4dExlbmd0aD0iNDQ4IiB4PSIxNjY5LjUiIHk9IjQ3MC4yMDMxIj51cGRhdGVPcmRlclN0YXR1cyhvcmRlcklkOiBTdHJpbmcsIHN0YXR1czogT3JkZXJTdGF0dXMpOiBib29sZWFuPC90ZXh0PjxlbGxpcHNlIGN4PSIxNjYyLjUiIGN5PSI0ODAuOTQ1MyIgZmlsbD0iI0ZGRkZGRiIgcng9IjMiIHJ5PSIzIiBzdHlsZT0ic3Ryb2tlOiMwMDAwMDA7c3Ryb2tlLXdpZHRoOjE7Ii8+PHRleHQgZmlsbD0iIzAwMDAwMCIgZm9udC1mYW1pbHk9IlZlcmRhbmEiIGZvbnQtc2l6ZT0iMTQiIGxlbmd0aEFkanVzdD0ic3BhY2luZyIgdGV4dExlbmd0aD0iMjI0IiB4PSIxNjY5LjUiIHk9IjQ4NS4xODc1Ij52aWV3UGVuZGluZ09yZGVycygpOiBMaXN0Jmx0O09yZGVyJmd0OzwvdGV4dD48ZWxsaXBzZSBjeD0iMTY2Mi41IiBjeT0iNDk1LjkyOTciIGZpbGw9IiNGRkZGRkYiIHJ4PSIzIiByeT0iMyIgc3R5bGU9InN0cm9rZTojMDAwMDAwO3N0cm9rZS13aWR0aDoxOyIvPjx0ZXh0IGZpbGw9IiMwMDAwMDAiIGZvbnQtZmFtaWx5PSJWZXJkYW5hIiBmb250LXNpemU9IjE0IiBsZW5ndGhBZGp1c3Q9InNwYWNpbmciIHRleHRMZW5ndGg9IjM3OCIgeD0iMTY2OS41IiB5PSI1MDAuMTcxOSI+Z2VuZXJhdGVSZXBvcnQocmVwb3J0VHlwZTogU3RyaW5nLCBkYXRlOiBEYXRlKTogU3RyaW5nPC90ZXh0PjwvZz48IS0tY2xhc3MgTWVudUl0ZW0tLT48ZyBjbGFzcz0iZW50aXR5IiBkYXRhLWVudGl0eT0iTWVudUl0ZW0iIGRhdGEtc291cmNlLWxpbmU9IjY3IiBkYXRhLXVpZD0iZW50MDAxMCIgaWQ9ImVudGl0eV9NZW51SXRlbSI+PHJlY3QgZmlsbD0iI0ZGRkZGRiIgaGVpZ2h0PSIxMzMuOTA2MyIgcng9IjIuNSIgcnk9IjIuNSIgc3R5bGU9InN0cm9rZTojMDAwMDAwO3N0cm9rZS13aWR0aDoxOyIgd2lkdGg9IjUwNyIgeD0iMTEzMiIgeT0iMTI2OCIvPjxlbGxpcHNlIGN4PSIxMzUzLjc1IiBjeT0iMTI4MiIgZmlsbD0iI0ZGRkZGRiIgcng9IjkiIHJ5PSI5IiBzdHlsZT0ic3Ryb2tlOiMwMDAwMDA7c3Ryb2tlLXdpZHRoOjE7Ii8+PHBhdGggZD0iTTEzNTEuMzc1LDEyODYuMjUgTDEzNTEuMzc1LDEyODggTDEzNTYuMzEyNSwxMjg4IEwxMzU2LjMxMjUsMTI4Ni4yNSBMMTM1MS4zNzUsMTI4Ni4yNSBaIE0xMzUyLjA2MjUsMTI4Ni45Mzc1IFExMzUyLjA2MjUsMTI4Ni45Mzc1IDEzNTIuMDYyNSwxMjc3Ljc1IEwxMzUwLjMxMjUsMTI3Ny43NSBRMTM1MC4zMTI1LDEyNzcuNzUgMTM1MC4zMTI1LDEyODYuOTM3NSBMMTM1Mi4wNjI1LDEyODYuOTM3NSBaIE0xMzU1LjYyNSwxMjg2LjkzNzUgTDEzNTcuMzc1LDEyODYuOTM3NSBRMTM1Ny4zNzUsMTI4Ni45Mzc1IDEzNTcuMzc1LDEyODQuMTI1IEwxMzU1LjYyNSwxMjg0LjEyNSBRMTM1NS42MjUsMTI4NC4xMjUgMTM1NS42MjUsMTI4Ni45Mzc1IFogTTEzNTUuNjI1LDEyNzcuNzUgUTEzNTUuNjI1LDEyNzcuNzUgMTM1NS42MjUsMTI4MC41NjI1IEwxMzU3LjM3NSwxMjgwLjU2MjUgUTEzNTcuMzc1LDEyODAuNTYyNSAxMzU3LjM3NSwxMjc3Ljc1IEwxMzU1LjYyNSwxMjc3Ljc1IFogTTEzNTEuMzc1LDEyNzguNDM3NSBMMTM1Ni4zMTI1LDEyNzguNDM3NSBMMTM1Ni4zMTI1LDEyNzYuNjg3NSBMMTM1MS4zNzUsMTI3Ni42ODc1IEwxMzUxLjM3NSwxMjc4LjQzNzUgWiAiIGZpbGw9IiMwMDAwMDAiLz48dGV4dCBmaWxsPSIjMDAwMDAwIiBmb250LWZhbWlseT0iVmVyZGFuYSIgZm9udC1zaXplPSIxNCIgbGVuZ3RoQWRqdXN0PSJzcGFjaW5nIiB0ZXh0TGVuZ3RoPSI1NiIgeD0iMTM3MS4yNSIgeT0iMTI4Ny43NDIyIj5NZW51SXRlbTwvdGV4dD48bGluZSBzdHlsZT0ic3Ryb2tlOiMwMDAwMDA7c3Ryb2tlLXdpZHRoOjE7IiB4MT0iMTEzMyIgeDI9IjE2MzgiIHkxPSIxMjk2IiB5Mj0iMTI5NiIvPjxyZWN0IGZpbGw9Im5vbmUiIGhlaWdodD0iNiIgc3R5bGU9InN0cm9rZTojMDAwMDAwO3N0cm9rZS13aWR0aDoxOyIgd2lkdGg9IjYiIHg9IjExNDAiIHk9IjEzMDUuOTkyMiIvPjx0ZXh0IGZpbGw9IiMwMDAwMDAiIGZvbnQtZmFtaWx5PSJWZXJkYW5hIiBmb250LXNpemU9IjE0IiBsZW5ndGhBZGp1c3Q9InNwYWNpbmciIHRleHRMZW5ndGg9Ijk4IiB4PSIxMTUwIiB5PSIxMzEzLjIzNDQiPml0ZW1JZDogU3RyaW5nPC90ZXh0PjxyZWN0IGZpbGw9Im5vbmUiIGhlaWdodD0iNiIgc3R5bGU9InN0cm9rZTojMDAwMDAwO3N0cm9rZS13aWR0aDoxOyIgd2lkdGg9IjYiIHg9IjExNDAiIHk9IjEzMjAuOTc2NiIvPjx0ZXh0IGZpbGw9IiMwMDAwMDAiIGZvbnQtZmFtaWx5PSJWZXJkYW5hIiBmb250LXNpemU9IjE0IiBsZW5ndGhBZGp1c3Q9InNwYWNpbmciIHRleHRMZW5ndGg9Ijg0IiB4PSIxMTUwIiB5PSIxMzI4LjIxODgiPm5hbWU6IFN0cmluZzwvdGV4dD48cmVjdCBmaWxsPSJub25lIiBoZWlnaHQ9IjYiIHN0eWxlPSJzdHJva2U6IzAwMDAwMDtzdHJva2Utd2lkdGg6MTsiIHdpZHRoPSI2IiB4PSIxMTQwIiB5PSIxMzM1Ljk2MDkiLz48dGV4dCBmaWxsPSIjMDAwMDAwIiBmb250LWZhbWlseT0iVmVyZGFuYSIgZm9udC1zaXplPSIxNCIgbGVuZ3RoQWRqdXN0PSJzcGFjaW5nIiB0ZXh0TGVuZ3RoPSIxMzMiIHg9IjExNTAiIHk9IjEzNDMuMjAzMSI+ZGVzY3JpcHRpb246IFN0cmluZzwvdGV4dD48cmVjdCBmaWxsPSJub25lIiBoZWlnaHQ9IjYiIHN0eWxlPSJzdHJva2U6IzAwMDAwMDtzdHJva2Utd2lkdGg6MTsiIHdpZHRoPSI2IiB4PSIxMTQwIiB5PSIxMzUwLjk0NTMiLz48dGV4dCBmaWxsPSIjMDAwMDAwIiBmb250LWZhbWlseT0iVmVyZGFuYSIgZm9udC1zaXplPSIxNCIgbGVuZ3RoQWRqdXN0PSJzcGFjaW5nIiB0ZXh0TGVuZ3RoPSI5MSIgeD0iMTE1MCIgeT0iMTM1OC4xODc1Ij5wcmljZTogZG91YmxlPC90ZXh0PjxyZWN0IGZpbGw9Im5vbmUiIGhlaWdodD0iNiIgc3R5bGU9InN0cm9rZTojMDAwMDAwO3N0cm9rZS13aWR0aDoxOyIgd2lkdGg9IjYiIHg9IjExNDAiIHk9IjEzNjUuOTI5NyIvPjx0ZXh0IGZpbGw9IiMwMDAwMDAiIGZvbnQtZmFtaWx5PSJWZXJkYW5hIiBmb250LXNpemU9IjE0IiBsZW5ndGhBZGp1c3Q9InNwYWNpbmciIHRleHRMZW5ndGg9IjE1NCIgeD0iMTE1MCIgeT0iMTM3My4xNzE5Ij5jYXRlZ29yeTogTWVudUNhdGVnb3J5PC90ZXh0PjxsaW5lIHN0eWxlPSJzdHJva2U6IzAwMDAwMDtzdHJva2Utd2lkdGg6MTsiIHgxPSIxMTMzIiB4Mj0iMTYzOCIgeTE9IjEzNzguOTIxOSIgeTI9IjEzNzguOTIxOSIvPjxlbGxpcHNlIGN4PSIxMTQzIiBjeT0iMTM5MS45MTQxIiBmaWxsPSIjRkZGRkZGIiByeD0iMyIgcnk9IjMiIHN0eWxlPSJzdHJva2U6IzAwMDAwMDtzdHJva2Utd2lkdGg6MTsiLz48dGV4dCBmaWxsPSIjMDAwMDAwIiBmb250LWZhbWlseT0iVmVyZGFuYSIgZm9udC1zaXplPSIxNCIgbGVuZ3RoQWRqdXN0PSJzcGFjaW5nIiB0ZXh0TGVuZ3RoPSI0ODMiIHg9IjExNTAiIHk9IjEzOTYuMTU2MyI+dXBkYXRlRGV0YWlscyhuYW1lOiBTdHJpbmcsIGRlc2NyaXB0aW9uOiBTdHJpbmcsIHByaWNlOiBkb3VibGUpOiB2b2lkPC90ZXh0PjwvZz48IS0tY2xhc3MgT3JkZXItLT48ZyBjbGFzcz0iZW50aXR5IiBkYXRhLWVudGl0eT0iT3JkZXIiIGRhdGEtc291cmNlLWxpbmU9Ijc3IiBkYXRhLXVpZD0iZW50MDAxMSIgaWQ9ImVudGl0eV9PcmRlciI+PHJlY3QgZmlsbD0iI0ZGRkZGRiIgaGVpZ2h0PSIxMzMuOTA2MyIgcng9IjIuNSIgcnk9IjIuNSIgc3R5bGU9InN0cm9rZTojMDAwMDAwO3N0cm9rZS13aWR0aDoxOyIgd2lkdGg9IjMxOCIgeD0iMTE5NS41IiB5PSI3OTAiLz48ZWxsaXBzZSBjeD0iMTMzMy4yNSIgY3k9IjgwNCIgZmlsbD0iI0ZGRkZGRiIgcng9IjkiIHJ5PSI5IiBzdHlsZT0ic3Ryb2tlOiMwMDAwMDA7c3Ryb2tlLXdpZHRoOjE7Ii8+PHBhdGggZD0iTTEzMzAuODc1LDgwOC4yNSBMMTMzMC44NzUsODEwIEwxMzM1LjgxMjUsODEwIEwxMzM1LjgxMjUsODA4LjI1IEwxMzMwLjg3NSw4MDguMjUgWiBNMTMzMS41NjI1LDgwOC45Mzc1IFExMzMxLjU2MjUsODA4LjkzNzUgMTMzMS41NjI1LDc5OS43NSBMMTMyOS44MTI1LDc5OS43NSBRMTMyOS44MTI1LDc5OS43NSAxMzI5LjgxMjUsODA4LjkzNzUgTDEzMzEuNTYyNSw4MDguOTM3NSBaIE0xMzM1LjEyNSw4MDguOTM3NSBMMTMzNi44NzUsODA4LjkzNzUgUTEzMzYuODc1LDgwOC45Mzc1IDEzMzYuODc1LDgwNi4xMjUgTDEzMzUuMTI1LDgwNi4xMjUgUTEzMzUuMTI1LDgwNi4xMjUgMTMzNS4xMjUsODA4LjkzNzUgWiBNMTMzNS4xMjUsNzk5Ljc1IFExMzM1LjEyNSw3OTkuNzUgMTMzNS4xMjUsODAyLjU2MjUgTDEzMzYuODc1LDgwMi41NjI1IFExMzM2Ljg3NSw4MDIuNTYyNSAxMzM2Ljg3NSw3OTkuNzUgTDEzMzUuMTI1LDc5OS43NSBaIE0xMzMwLjg3NSw4MDAuNDM3NSBMMTMzNS44MTI1LDgwMC40Mzc1IEwxMzM1LjgxMjUsNzk4LjY4NzUgTDEzMzAuODc1LDc5OC42ODc1IEwxMzMwLjg3NSw4MDAuNDM3NSBaICIgZmlsbD0iIzAwMDAwMCIvPjx0ZXh0IGZpbGw9IiMwMDAwMDAiIGZvbnQtZmFtaWx5PSJWZXJkYW5hIiBmb250LXNpemU9IjE0IiBsZW5ndGhBZGp1c3Q9InNwYWNpbmciIHRleHRMZW5ndGg9IjM1IiB4PSIxMzUwLjc1IiB5PSI4MDkuNzQyMiI+T3JkZXI8L3RleHQ+PGxpbmUgc3R5bGU9InN0cm9rZTojMDAwMDAwO3N0cm9rZS13aWR0aDoxOyIgeDE9IjExOTYuNSIgeDI9IjE1MTIuNSIgeTE9IjgxOCIgeTI9IjgxOCIvPjxyZWN0IGZpbGw9Im5vbmUiIGhlaWdodD0iNiIgc3R5bGU9InN0cm9rZTojMDAwMDAwO3N0cm9rZS13aWR0aDoxOyIgd2lkdGg9IjYiIHg9IjEyMDMuNSIgeT0iODI3Ljk5MjIiLz48dGV4dCBmaWxsPSIjMDAwMDAwIiBmb250LWZhbWlseT0iVmVyZGFuYSIgZm9udC1zaXplPSIxNCIgbGVuZ3RoQWRqdXN0PSJzcGFjaW5nIiB0ZXh0TGVuZ3RoPSIxMDUiIHg9IjEyMTMuNSIgeT0iODM1LjIzNDQiPm9yZGVySWQ6IFN0cmluZzwvdGV4dD48cmVjdCBmaWxsPSJub25lIiBoZWlnaHQ9IjYiIHN0eWxlPSJzdHJva2U6IzAwMDAwMDtzdHJva2Utd2lkdGg6MTsiIHdpZHRoPSI2IiB4PSIxMjAzLjUiIHk9Ijg0Mi45NzY2Ii8+PHRleHQgZmlsbD0iIzAwMDAwMCIgZm9udC1mYW1pbHk9IlZlcmRhbmEiIGZvbnQtc2l6ZT0iMTQiIGxlbmd0aEFkanVzdD0ic3BhY2luZyIgdGV4dExlbmd0aD0iMTEyIiB4PSIxMjEzLjUiIHk9Ijg1MC4yMTg4Ij5zdHVkZW50OiBTdHVkZW50PC90ZXh0PjxyZWN0IGZpbGw9Im5vbmUiIGhlaWdodD0iNiIgc3R5bGU9InN0cm9rZTojMDAwMDAwO3N0cm9rZS13aWR0aDoxOyIgd2lkdGg9IjYiIHg9IjEyMDMuNSIgeT0iODU3Ljk2MDkiLz48dGV4dCBmaWxsPSIjMDAwMDAwIiBmb250LWZhbWlseT0iVmVyZGFuYSIgZm9udC1zaXplPSIxNCIgbGVuZ3RoQWRqdXN0PSJzcGFjaW5nIiB0ZXh0TGVuZ3RoPSIxMzMiIHg9IjEyMTMuNSIgeT0iODY1LjIwMzEiPnN0YXR1czogT3JkZXJTdGF0dXM8L3RleHQ+PHJlY3QgZmlsbD0ibm9uZSIgaGVpZ2h0PSI2IiBzdHlsZT0ic3Ryb2tlOiMwMDAwMDA7c3Ryb2tlLXdpZHRoOjE7IiB3aWR0aD0iNiIgeD0iMTIwMy41IiB5PSI4NzIuOTQ1MyIvPjx0ZXh0IGZpbGw9IiMwMDAwMDAiIGZvbnQtZmFtaWx5PSJWZXJkYW5hIiBmb250LXNpemU9IjE0IiBsZW5ndGhBZGp1c3Q9InNwYWNpbmciIHRleHRMZW5ndGg9IjEwNSIgeD0iMTIxMy41IiB5PSI4ODAuMTg3NSI+b3JkZXJEYXRlOiBEYXRlPC90ZXh0PjxsaW5lIHN0eWxlPSJzdHJva2U6IzAwMDAwMDtzdHJva2Utd2lkdGg6MTsiIHgxPSIxMTk2LjUiIHgyPSIxNTEyLjUiIHkxPSI4ODUuOTM3NSIgeTI9Ijg4NS45Mzc1Ii8+PGVsbGlwc2UgY3g9IjEyMDYuNSIgY3k9Ijg5OC45Mjk3IiBmaWxsPSIjRkZGRkZGIiByeD0iMyIgcnk9IjMiIHN0eWxlPSJzdHJva2U6IzAwMDAwMDtzdHJva2Utd2lkdGg6MTsiLz48dGV4dCBmaWxsPSIjMDAwMDAwIiBmb250LWZhbWlseT0iVmVyZGFuYSIgZm9udC1zaXplPSIxNCIgbGVuZ3RoQWRqdXN0PSJzcGFjaW5nIiB0ZXh0TGVuZ3RoPSIyOTQiIHg9IjEyMTMuNSIgeT0iOTAzLjE3MTkiPmNoYW5nZVN0YXR1cyhuZXdTdGF0dXM6IE9yZGVyU3RhdHVzKTogdm9pZDwvdGV4dD48ZWxsaXBzZSBjeD0iMTIwNi41IiBjeT0iOTEzLjkxNDEiIGZpbGw9IiNGRkZGRkYiIHJ4PSIzIiByeT0iMyIgc3R5bGU9InN0cm9rZTojMDAwMDAwO3N0cm9rZS13aWR0aDoxOyIvPjx0ZXh0IGZpbGw9IiMwMDAwMDAiIGZvbnQtZmFtaWx5PSJWZXJkYW5hIiBmb250LXNpemU9IjE0IiBsZW5ndGhBZGp1c3Q9InNwYWNpbmciIHRleHRMZW5ndGg9IjE2OCIgeD0iMTIxMy41IiB5PSI5MTguMTU2MyI+Z2V0U3RhdHVzKCk6IE9yZGVyU3RhdHVzPC90ZXh0PjwvZz48IS0tY2xhc3MgT3JkZXJJdGVtcy0tPjxnIGNsYXNzPSJlbnRpdHkiIGRhdGEtZW50aXR5PSJPcmRlckl0ZW1zIiBkYXRhLXNvdXJjZS1saW5lPSI4NiIgZGF0YS11aWQ9ImVudDAwMTIiIGlkPSJlbnRpdHlfT3JkZXJJdGVtcyI+PHJlY3QgZmlsbD0iI0ZGRkZGRiIgaGVpZ2h0PSIxMzMuOTA2MyIgcng9IjIuNSIgcnk9IjIuNSIgc3R5bGU9InN0cm9rZTojMDAwMDAwO3N0cm9rZS13aWR0aDoxOyIgd2lkdGg9IjI4MyIgeD0iOTE2IiB5PSIxMDI5Ii8+PGVsbGlwc2UgY3g9IjEwMTguNzUiIGN5PSIxMDQzIiBmaWxsPSIjRkZGRkZGIiByeD0iOSIgcnk9IjkiIHN0eWxlPSJzdHJva2U6IzAwMDAwMDtzdHJva2Utd2lkdGg6MTsiLz48cGF0aCBkPSJNMTAxNi4zNzUsMTA0Ny4yNSBMMTAxNi4zNzUsMTA0OSBMMTAyMS4zMTI1LDEwNDkgTDEwMjEuMzEyNSwxMDQ3LjI1IEwxMDE2LjM3NSwxMDQ3LjI1IFogTTEwMTcuMDYyNSwxMDQ3LjkzNzUgUTEwMTcuMDYyNSwxMDQ3LjkzNzUgMTAxNy4wNjI1LDEwMzguNzUgTDEwMTUuMzEyNSwxMDM4Ljc1IFExMDE1LjMxMjUsMTAzOC43NSAxMDE1LjMxMjUsMTA0Ny45Mzc1IEwxMDE3LjA2MjUsMTA0Ny45Mzc1IFogTTEwMjAuNjI1LDEwNDcuOTM3NSBMMTAyMi4zNzUsMTA0Ny45Mzc1IFExMDIyLjM3NSwxMDQ3LjkzNzUgMTAyMi4zNzUsMTA0NS4xMjUgTDEwMjAuNjI1LDEwNDUuMTI1IFExMDIwLjYyNSwxMDQ1LjEyNSAxMDIwLjYyNSwxMDQ3LjkzNzUgWiBNMTAyMC42MjUsMTAzOC43NSBRMTAyMC42MjUsMTAzOC43NSAxMDIwLjYyNSwxMDQxLjU2MjUgTDEwMjIuMzc1LDEwNDEuNTYyNSBRMTAyMi4zNzUsMTA0MS41NjI1IDEwMjIuMzc1LDEwMzguNzUgTDEwMjAuNjI1LDEwMzguNzUgWiBNMTAxNi4zNzUsMTAzOS40Mzc1IEwxMDIxLjMxMjUsMTAzOS40Mzc1IEwxMDIxLjMxMjUsMTAzNy42ODc1IEwxMDE2LjM3NSwxMDM3LjY4NzUgTDEwMTYuMzc1LDEwMzkuNDM3NSBaICIgZmlsbD0iIzAwMDAwMCIvPjx0ZXh0IGZpbGw9IiMwMDAwMDAiIGZvbnQtZmFtaWx5PSJWZXJkYW5hIiBmb250LXNpemU9IjE0IiBsZW5ndGhBZGp1c3Q9InNwYWNpbmciIHRleHRMZW5ndGg9IjcwIiB4PSIxMDM2LjI1IiB5PSIxMDQ4Ljc0MjIiPk9yZGVySXRlbXM8L3RleHQ+PGxpbmUgc3R5bGU9InN0cm9rZTojMDAwMDAwO3N0cm9rZS13aWR0aDoxOyIgeDE9IjkxNyIgeDI9IjExOTgiIHkxPSIxMDU3IiB5Mj0iMTA1NyIvPjxyZWN0IGZpbGw9Im5vbmUiIGhlaWdodD0iNiIgc3R5bGU9InN0cm9rZTojMDAwMDAwO3N0cm9rZS13aWR0aDoxOyIgd2lkdGg9IjYiIHg9IjkyNCIgeT0iMTA2Ni45OTIyIi8+PHRleHQgZmlsbD0iIzAwMDAwMCIgZm9udC1mYW1pbHk9IlZlcmRhbmEiIGZvbnQtc2l6ZT0iMTQiIGxlbmd0aEFkanVzdD0ic3BhY2luZyIgdGV4dExlbmd0aD0iODQiIHg9IjkzNCIgeT0iMTA3NC4yMzQ0Ij5vcmRlcjogT3JkZXI8L3RleHQ+PHJlY3QgZmlsbD0ibm9uZSIgaGVpZ2h0PSI2IiBzdHlsZT0ic3Ryb2tlOiMwMDAwMDA7c3Ryb2tlLXdpZHRoOjE7IiB3aWR0aD0iNiIgeD0iOTI0IiB5PSIxMDgxLjk3NjYiLz48dGV4dCBmaWxsPSIjMDAwMDAwIiBmb250LWZhbWlseT0iVmVyZGFuYSIgZm9udC1zaXplPSIxNCIgbGVuZ3RoQWRqdXN0PSJzcGFjaW5nIiB0ZXh0TGVuZ3RoPSIxNDciIHg9IjkzNCIgeT0iMTA4OS4yMTg4Ij5pdGVtczogTGlzdCZsdDtNZW51SXRlbSZndDs8L3RleHQ+PGxpbmUgc3R5bGU9InN0cm9rZTojMDAwMDAwO3N0cm9rZS13aWR0aDoxOyIgeDE9IjkxNyIgeDI9IjExOTgiIHkxPSIxMDk0Ljk2ODgiIHkyPSIxMDk0Ljk2ODgiLz48ZWxsaXBzZSBjeD0iOTI3IiBjeT0iMTEwNy45NjA5IiBmaWxsPSIjRkZGRkZGIiByeD0iMyIgcnk9IjMiIHN0eWxlPSJzdHJva2U6IzAwMDAwMDtzdHJva2Utd2lkdGg6MTsiLz48dGV4dCBmaWxsPSIjMDAwMDAwIiBmb250LWZhbWlseT0iVmVyZGFuYSIgZm9udC1zaXplPSIxNCIgbGVuZ3RoQWRqdXN0PSJzcGFjaW5nIiB0ZXh0TGVuZ3RoPSIyMDMiIHg9IjkzNCIgeT0iMTExMi4yMDMxIj5hZGRJdGVtKGl0ZW06IE1lbnVJdGVtKTogdm9pZDwvdGV4dD48ZWxsaXBzZSBjeD0iOTI3IiBjeT0iMTEyMi45NDUzIiBmaWxsPSIjRkZGRkZGIiByeD0iMyIgcnk9IjMiIHN0eWxlPSJzdHJva2U6IzAwMDAwMDtzdHJva2Utd2lkdGg6MTsiLz48dGV4dCBmaWxsPSIjMDAwMDAwIiBmb250LWZhbWlseT0iVmVyZGFuYSIgZm9udC1zaXplPSIxNCIgbGVuZ3RoQWRqdXN0PSJzcGFjaW5nIiB0ZXh0TGVuZ3RoPSIyNDUiIHg9IjkzNCIgeT0iMTEyNy4xODc1Ij5yZW1vdmVJdGVtKGl0ZW1JZDogU3RyaW5nKTogYm9vbGVhbjwvdGV4dD48ZWxsaXBzZSBjeD0iOTI3IiBjeT0iMTEzNy45Mjk3IiBmaWxsPSIjRkZGRkZGIiByeD0iMyIgcnk9IjMiIHN0eWxlPSJzdHJva2U6IzAwMDAwMDtzdHJva2Utd2lkdGg6MTsiLz48dGV4dCBmaWxsPSIjMDAwMDAwIiBmb250LWZhbWlseT0iVmVyZGFuYSIgZm9udC1zaXplPSIxNCIgbGVuZ3RoQWRqdXN0PSJzcGFjaW5nIiB0ZXh0TGVuZ3RoPSIxODIiIHg9IjkzNCIgeT0iMTE0Mi4xNzE5Ij5nZXRJdGVtcygpOiBMaXN0Jmx0O01lbnVJdGVtJmd0OzwvdGV4dD48ZWxsaXBzZSBjeD0iOTI3IiBjeT0iMTE1Mi45MTQxIiBmaWxsPSIjRkZGRkZGIiByeD0iMyIgcnk9IjMiIHN0eWxlPSJzdHJva2U6IzAwMDAwMDtzdHJva2Utd2lkdGg6MTsiLz48dGV4dCBmaWxsPSIjMDAwMDAwIiBmb250LWZhbWlseT0iVmVyZGFuYSIgZm9udC1zaXplPSIxNCIgbGVuZ3RoQWRqdXN0PSJzcGFjaW5nIiB0ZXh0TGVuZ3RoPSIyNTkiIHg9IjkzNCIgeT0iMTE1Ny4xNTYzIj5jb250YWluc0l0ZW0oaXRlbUlkOiBTdHJpbmcpOiBib29sZWFuPC90ZXh0PjwvZz48IS0tY2xhc3MgT3JkZXJDYWxjdWxhdG9yLS0+PGcgY2xhc3M9ImVudGl0eSIgZGF0YS1lbnRpdHk9Ik9yZGVyQ2FsY3VsYXRvciIgZGF0YS1zb3VyY2UtbGluZT0iOTUiIGRhdGEtdWlkPSJlbnQwMDEzIiBpZD0iZW50aXR5X09yZGVyQ2FsY3VsYXRvciI+PHJlY3QgZmlsbD0iI0ZGRkZGRiIgaGVpZ2h0PSIxMzMuOTA2MyIgcng9IjIuNSIgcnk9IjIuNSIgc3R5bGU9InN0cm9rZTojMDAwMDAwO3N0cm9rZS13aWR0aDoxOyIgd2lkdGg9IjM2NyIgeD0iMjEwMiIgeT0iMTAyOSIvPjxlbGxpcHNlIGN4PSIyMjI5LjI1IiBjeT0iMTA0MyIgZmlsbD0iI0ZGRkZGRiIgcng9IjkiIHJ5PSI5IiBzdHlsZT0ic3Ryb2tlOiMwMDAwMDA7c3Ryb2tlLXdpZHRoOjE7Ii8+PHBhdGggZD0iTTIyMjYuODc1LDEwNDcuMjUgTDIyMjYuODc1LDEwNDkgTDIyMzEuODEyNSwxMDQ5IEwyMjMxLjgxMjUsMTA0Ny4yNSBMMjIyNi44NzUsMTA0Ny4yNSBaIE0yMjI3LjU2MjUsMTA0Ny45Mzc1IFEyMjI3LjU2MjUsMTA0Ny45Mzc1IDIyMjcuNTYyNSwxMDM4Ljc1IEwyMjI1LjgxMjUsMTAzOC43NSBRMjIyNS44MTI1LDEwMzguNzUgMjIyNS44MTI1LDEwNDcuOTM3NSBMMjIyNy41NjI1LDEwNDcuOTM3NSBaIE0yMjMxLjEyNSwxMDQ3LjkzNzUgTDIyMzIuODc1LDEwNDcuOTM3NSBRMjIzMi44NzUsMTA0Ny45Mzc1IDIyMzIuODc1LDEwNDUuMTI1IEwyMjMxLjEyNSwxMDQ1LjEyNSBRMjIzMS4xMjUsMTA0NS4xMjUgMjIzMS4xMjUsMTA0Ny45Mzc1IFogTTIyMzEuMTI1LDEwMzguNzUgUTIyMzEuMTI1LDEwMzguNzUgMjIzMS4xMjUsMTA0MS41NjI1IEwyMjMyLjg3NSwxMDQxLjU2MjUgUTIyMzIuODc1LDEwNDEuNTYyNSAyMjMyLjg3NSwxMDM4Ljc1IEwyMjMxLjEyNSwxMDM4Ljc1IFogTTIyMjYuODc1LDEwMzkuNDM3NSBMMjIzMS44MTI1LDEwMzkuNDM3NSBMMjIzMS44MTI1LDEwMzcuNjg3NSBMMjIyNi44NzUsMTAzNy42ODc1IEwyMjI2Ljg3NSwxMDM5LjQzNzUgWiAiIGZpbGw9IiMwMDAwMDAiLz48dGV4dCBmaWxsPSIjMDAwMDAwIiBmb250LWZhbWlseT0iVmVyZGFuYSIgZm9udC1zaXplPSIxNCIgbGVuZ3RoQWRqdXN0PSJzcGFjaW5nIiB0ZXh0TGVuZ3RoPSIxMDUiIHg9IjIyNDYuNzUiIHk9IjEwNDguNzQyMiI+T3JkZXJDYWxjdWxhdG9yPC90ZXh0PjxsaW5lIHN0eWxlPSJzdHJva2U6IzAwMDAwMDtzdHJva2Utd2lkdGg6MTsiIHgxPSIyMTAzIiB4Mj0iMjQ2OCIgeTE9IjEwNTciIHkyPSIxMDU3Ii8+PHJlY3QgZmlsbD0ibm9uZSIgaGVpZ2h0PSI2IiBzdHlsZT0ic3Ryb2tlOiMwMDAwMDA7c3Ryb2tlLXdpZHRoOjE7IiB3aWR0aD0iNiIgeD0iMjExMCIgeT0iMTA2Ni45OTIyIi8+PHRleHQgZmlsbD0iIzAwMDAwMCIgZm9udC1mYW1pbHk9IlZlcmRhbmEiIGZvbnQtc2l6ZT0iMTQiIGxlbmd0aEFkanVzdD0ic3BhY2luZyIgdGV4dExlbmd0aD0iODQiIHg9IjIxMjAiIHk9IjEwNzQuMjM0NCI+b3JkZXI6IE9yZGVyPC90ZXh0PjxyZWN0IGZpbGw9Im5vbmUiIGhlaWdodD0iNiIgc3R5bGU9InN0cm9rZTojMDAwMDAwO3N0cm9rZS13aWR0aDoxOyIgd2lkdGg9IjYiIHg9IjIxMTAiIHk9IjEwODEuOTc2NiIvPjx0ZXh0IGZpbGw9IiMwMDAwMDAiIGZvbnQtZmFtaWx5PSJWZXJkYW5hIiBmb250LXNpemU9IjE0IiBsZW5ndGhBZGp1c3Q9InNwYWNpbmciIHRleHRMZW5ndGg9IjExOSIgeD0iMjEyMCIgeT0iMTA4OS4yMTg4Ij5pdGVtczogT3JkZXJJdGVtczwvdGV4dD48bGluZSBzdHlsZT0ic3Ryb2tlOiMwMDAwMDA7c3Ryb2tlLXdpZHRoOjE7IiB4MT0iMjEwMyIgeDI9IjI0NjgiIHkxPSIxMDk0Ljk2ODgiIHkyPSIxMDk0Ljk2ODgiLz48ZWxsaXBzZSBjeD0iMjExMyIgY3k9IjExMDcuOTYwOSIgZmlsbD0iI0ZGRkZGRiIgcng9IjMiIHJ5PSIzIiBzdHlsZT0ic3Ryb2tlOiMwMDAwMDA7c3Ryb2tlLXdpZHRoOjE7Ii8+PHRleHQgZmlsbD0iIzAwMDAwMCIgZm9udC1mYW1pbHk9IlZlcmRhbmEiIGZvbnQtc2l6ZT0iMTQiIGxlbmd0aEFkanVzdD0ic3BhY2luZyIgdGV4dExlbmd0aD0iMTg5IiB4PSIyMTIwIiB5PSIxMTEyLjIwMzEiPmNhbGN1bGF0ZVN1YnRvdGFsKCk6IGRvdWJsZTwvdGV4dD48ZWxsaXBzZSBjeD0iMjExMyIgY3k9IjExMjIuOTQ1MyIgZmlsbD0iI0ZGRkZGRiIgcng9IjMiIHJ5PSIzIiBzdHlsZT0ic3Ryb2tlOiMwMDAwMDA7c3Ryb2tlLXdpZHRoOjE7Ii8+PHRleHQgZmlsbD0iIzAwMDAwMCIgZm9udC1mYW1pbHk9IlZlcmRhbmEiIGZvbnQtc2l6ZT0iMTQiIGxlbmd0aEFkanVzdD0ic3BhY2luZyIgdGV4dExlbmd0aD0iMTU0IiB4PSIyMTIwIiB5PSIxMTI3LjE4NzUiPmNhbGN1bGF0ZVRheCgpOiBkb3VibGU8L3RleHQ+PGVsbGlwc2UgY3g9IjIxMTMiIGN5PSIxMTM3LjkyOTciIGZpbGw9IiNGRkZGRkYiIHJ4PSIzIiByeT0iMyIgc3R5bGU9InN0cm9rZTojMDAwMDAwO3N0cm9rZS13aWR0aDoxOyIvPjx0ZXh0IGZpbGw9IiMwMDAwMDAiIGZvbnQtZmFtaWx5PSJWZXJkYW5hIiBmb250LXNpemU9IjE0IiBsZW5ndGhBZGp1c3Q9InNwYWNpbmciIHRleHRMZW5ndGg9IjE2OCIgeD0iMjEyMCIgeT0iMTE0Mi4xNzE5Ij5jYWxjdWxhdGVUb3RhbCgpOiBkb3VibGU8L3RleHQ+PGVsbGlwc2UgY3g9IjIxMTMiIGN5PSIxMTUyLjkxNDEiIGZpbGw9IiNGRkZGRkYiIHJ4PSIzIiByeT0iMyIgc3R5bGU9InN0cm9rZTojMDAwMDAwO3N0cm9rZS13aWR0aDoxOyIvPjx0ZXh0IGZpbGw9IiMwMDAwMDAiIGZvbnQtZmFtaWx5PSJWZXJkYW5hIiBmb250LXNpemU9IjE0IiBsZW5ndGhBZGp1c3Q9InNwYWNpbmciIHRleHRMZW5ndGg9IjM0MyIgeD0iMjEyMCIgeT0iMTE1Ny4xNTYzIj5hcHBseURpc2NvdW50KGRpc2NvdW50UGVyY2VudGFnZTogZG91YmxlKTogZG91YmxlPC90ZXh0PjwvZz48IS0tY2xhc3MgT3JkZXJDb25maXJtYXRpb24tLT48ZyBjbGFzcz0iZW50aXR5IiBkYXRhLWVudGl0eT0iT3JkZXJDb25maXJtYXRpb24iIGRhdGEtc291cmNlLWxpbmU9IjEwNCIgZGF0YS11aWQ9ImVudDAwMTQiIGlkPSJlbnRpdHlfT3JkZXJDb25maXJtYXRpb24iPjxyZWN0IGZpbGw9IiNGRkZGRkYiIGhlaWdodD0iMTAzLjkzNzUiIHJ4PSIyLjUiIHJ5PSIyLjUiIHN0eWxlPSJzdHJva2U6IzAwMDAwMDtzdHJva2Utd2lkdGg6MTsiIHdpZHRoPSIyMTMiIHg9IjE1NDQiIHk9IjEwNDQiLz48ZWxsaXBzZSBjeD0iMTU4Ny4yNSIgY3k9IjEwNTgiIGZpbGw9IiNGRkZGRkYiIHJ4PSI5IiByeT0iOSIgc3R5bGU9InN0cm9rZTojMDAwMDAwO3N0cm9rZS13aWR0aDoxOyIvPjxwYXRoIGQ9Ik0xNTg0Ljg3NSwxMDYyLjI1IEwxNTg0Ljg3NSwxMDY0IEwxNTg5LjgxMjUsMTA2NCBMMTU4OS44MTI1LDEwNjIuMjUgTDE1ODQuODc1LDEwNjIuMjUgWiBNMTU4NS41NjI1LDEwNjIuOTM3NSBRMTU4NS41NjI1LDEwNjIuOTM3NSAxNTg1LjU2MjUsMTA1My43NSBMMTU4My44MTI1LDEwNTMuNzUgUTE1ODMuODEyNSwxMDUzLjc1IDE1ODMuODEyNSwxMDYyLjkzNzUgTDE1ODUuNTYyNSwxMDYyLjkzNzUgWiBNMTU4OS4xMjUsMTA2Mi45Mzc1IEwxNTkwLjg3NSwxMDYyLjkzNzUgUTE1OTAuODc1LDEwNjIuOTM3NSAxNTkwLjg3NSwxMDYwLjEyNSBMMTU4OS4xMjUsMTA2MC4xMjUgUTE1ODkuMTI1LDEwNjAuMTI1IDE1ODkuMTI1LDEwNjIuOTM3NSBaIE0xNTg5LjEyNSwxMDUzLjc1IFExNTg5LjEyNSwxMDUzLjc1IDE1ODkuMTI1LDEwNTYuNTYyNSBMMTU5MC44NzUsMTA1Ni41NjI1IFExNTkwLjg3NSwxMDU2LjU2MjUgMTU5MC44NzUsMTA1My43NSBMMTU4OS4xMjUsMTA1My43NSBaIE0xNTg0Ljg3NSwxMDU0LjQzNzUgTDE1ODkuODEyNSwxMDU0LjQzNzUgTDE1ODkuODEyNSwxMDUyLjY4NzUgTDE1ODQuODc1LDEwNTIuNjg3NSBMMTU4NC44NzUsMTA1NC40Mzc1IFogIiBmaWxsPSIjMDAwMDAwIi8+PHRleHQgZmlsbD0iIzAwMDAwMCIgZm9udC1mYW1pbHk9IlZlcmRhbmEiIGZvbnQtc2l6ZT0iMTQiIGxlbmd0aEFkanVzdD0ic3BhY2luZyIgdGV4dExlbmd0aD0iMTE5IiB4PSIxNjA0Ljc1IiB5PSIxMDYzLjc0MjIiPk9yZGVyQ29uZmlybWF0aW9uPC90ZXh0PjxsaW5lIHN0eWxlPSJzdHJva2U6IzAwMDAwMDtzdHJva2Utd2lkdGg6MTsiIHgxPSIxNTQ1IiB4Mj0iMTc1NiIgeTE9IjEwNzIiIHkyPSIxMDcyIi8+PHJlY3QgZmlsbD0ibm9uZSIgaGVpZ2h0PSI2IiBzdHlsZT0ic3Ryb2tlOiMwMDAwMDA7c3Ryb2tlLXdpZHRoOjE7IiB3aWR0aD0iNiIgeD0iMTU1MiIgeT0iMTA4MS45OTIyIi8+PHRleHQgZmlsbD0iIzAwMDAwMCIgZm9udC1mYW1pbHk9IlZlcmRhbmEiIGZvbnQtc2l6ZT0iMTQiIGxlbmd0aEFkanVzdD0ic3BhY2luZyIgdGV4dExlbmd0aD0iODQiIHg9IjE1NjIiIHk9IjEwODkuMjM0NCI+b3JkZXI6IE9yZGVyPC90ZXh0PjxsaW5lIHN0eWxlPSJzdHJva2U6IzAwMDAwMDtzdHJva2Utd2lkdGg6MTsiIHgxPSIxNTQ1IiB4Mj0iMTc1NiIgeTE9IjEwOTQuOTg0NCIgeTI9IjEwOTQuOTg0NCIvPjxlbGxpcHNlIGN4PSIxNTU1IiBjeT0iMTEwNy45NzY2IiBmaWxsPSIjRkZGRkZGIiByeD0iMyIgcnk9IjMiIHN0eWxlPSJzdHJva2U6IzAwMDAwMDtzdHJva2Utd2lkdGg6MTsiLz48dGV4dCBmaWxsPSIjMDAwMDAwIiBmb250LWZhbWlseT0iVmVyZGFuYSIgZm9udC1zaXplPSIxNCIgbGVuZ3RoQWRqdXN0PSJzcGFjaW5nIiB0ZXh0TGVuZ3RoPSIxNjEiIHg9IjE1NjIiIHk9IjExMTIuMjE4OCI+Y29uZmlybU9yZGVyKCk6IGJvb2xlYW48L3RleHQ+PGVsbGlwc2UgY3g9IjE1NTUiIGN5PSIxMTIyLjk2MDkiIGZpbGw9IiNGRkZGRkYiIHJ4PSIzIiByeT0iMyIgc3R5bGU9InN0cm9rZTojMDAwMDAwO3N0cm9rZS13aWR0aDoxOyIvPjx0ZXh0IGZpbGw9IiMwMDAwMDAiIGZvbnQtZmFtaWx5PSJWZXJkYW5hIiBmb250LXNpemU9IjE0IiBsZW5ndGhBZGp1c3Q9InNwYWNpbmciIHRleHRMZW5ndGg9IjE1NCIgeD0iMTU2MiIgeT0iMTEyNy4yMDMxIj5pc0NvbmZpcm1lZCgpOiBib29sZWFuPC90ZXh0PjxlbGxpcHNlIGN4PSIxNTU1IiBjeT0iMTEzNy45NDUzIiBmaWxsPSIjRkZGRkZGIiByeD0iMyIgcnk9IjMiIHN0eWxlPSJzdHJva2U6IzAwMDAwMDtzdHJva2Utd2lkdGg6MTsiLz48dGV4dCBmaWxsPSIjMDAwMDAwIiBmb250LWZhbWlseT0iVmVyZGFuYSIgZm9udC1zaXplPSIxNCIgbGVuZ3RoQWRqdXN0PSJzcGFjaW5nIiB0ZXh0TGVuZ3RoPSIxODkiIHg9IjE1NjIiIHk9IjExNDIuMTg3NSI+Z2V0Q29uZmlybWF0aW9uVGltZSgpOiBEYXRlPC90ZXh0PjwvZz48IS0tY2xhc3MgUGF5bWVudC0tPjxnIGNsYXNzPSJlbnRpdHkiIGRhdGEtZW50aXR5PSJQYXltZW50IiBkYXRhLXNvdXJjZS1saW5lPSIxMTEiIGRhdGEtdWlkPSJlbnQwMDE1IiBpZD0iZW50aXR5X1BheW1lbnQiPjxyZWN0IGZpbGw9IiNGRkZGRkYiIGhlaWdodD0iMTkzLjg0MzgiIHJ4PSIyLjUiIHJ5PSIyLjUiIHN0eWxlPSJzdHJva2U6IzAwMDAwMDtzdHJva2Utd2lkdGg6MTsiIHdpZHRoPSIyMzQiIHg9IjM2OS41IiB5PSI5OTkiLz48ZWxsaXBzZSBjeD0iNDU4LjI1IiBjeT0iMTAxMyIgZmlsbD0iI0ZGRkZGRiIgcng9IjkiIHJ5PSI5IiBzdHlsZT0ic3Ryb2tlOiMwMDAwMDA7c3Ryb2tlLXdpZHRoOjE7Ii8+PHBhdGggZD0iTTQ1NS44NzUsMTAxNy4yNSBMNDU1Ljg3NSwxMDE5IEw0NjAuODEyNSwxMDE5IEw0NjAuODEyNSwxMDE3LjI1IEw0NTUuODc1LDEwMTcuMjUgWiBNNDU2LjU2MjUsMTAxNy45Mzc1IFE0NTYuNTYyNSwxMDE3LjkzNzUgNDU2LjU2MjUsMTAwOC43NSBMNDU0LjgxMjUsMTAwOC43NSBRNDU0LjgxMjUsMTAwOC43NSA0NTQuODEyNSwxMDE3LjkzNzUgTDQ1Ni41NjI1LDEwMTcuOTM3NSBaIE00NjAuMTI1LDEwMTcuOTM3NSBMNDYxLjg3NSwxMDE3LjkzNzUgUTQ2MS44NzUsMTAxNy45Mzc1IDQ2MS44NzUsMTAxNS4xMjUgTDQ2MC4xMjUsMTAxNS4xMjUgUTQ2MC4xMjUsMTAxNS4xMjUgNDYwLjEyNSwxMDE3LjkzNzUgWiBNNDYwLjEyNSwxMDA4Ljc1IFE0NjAuMTI1LDEwMDguNzUgNDYwLjEyNSwxMDExLjU2MjUgTDQ2MS44NzUsMTAxMS41NjI1IFE0NjEuODc1LDEwMTEuNTYyNSA0NjEuODc1LDEwMDguNzUgTDQ2MC4xMjUsMTAwOC43NSBaIE00NTUuODc1LDEwMDkuNDM3NSBMNDYwLjgxMjUsMTAwOS40Mzc1IEw0NjAuODEyNSwxMDA3LjY4NzUgTDQ1NS44NzUsMTAwNy42ODc1IEw0NTUuODc1LDEwMDkuNDM3NSBaICIgZmlsbD0iIzAwMDAwMCIvPjx0ZXh0IGZpbGw9IiMwMDAwMDAiIGZvbnQtZmFtaWx5PSJWZXJkYW5hIiBmb250LXNpemU9IjE0IiBsZW5ndGhBZGp1c3Q9InNwYWNpbmciIHRleHRMZW5ndGg9IjQ5IiB4PSI0NzUuNzUiIHk9IjEwMTguNzQyMiI+UGF5bWVudDwvdGV4dD48bGluZSBzdHlsZT0ic3Ryb2tlOiMwMDAwMDA7c3Ryb2tlLXdpZHRoOjE7IiB4MT0iMzcwLjUiIHgyPSI2MDIuNSIgeTE9IjEwMjciIHkyPSIxMDI3Ii8+PHJlY3QgZmlsbD0ibm9uZSIgaGVpZ2h0PSI2IiBzdHlsZT0ic3Ryb2tlOiMwMDAwMDA7c3Ryb2tlLXdpZHRoOjE7IiB3aWR0aD0iNiIgeD0iMzc3LjUiIHk9IjEwMzYuOTkyMiIvPjx0ZXh0IGZpbGw9IiMwMDAwMDAiIGZvbnQtZmFtaWx5PSJWZXJkYW5hIiBmb250LXNpemU9IjE0IiBsZW5ndGhBZGp1c3Q9InNwYWNpbmciIHRleHRMZW5ndGg9IjExOSIgeD0iMzg3LjUiIHk9IjEwNDQuMjM0NCI+cGF5bWVudElkOiBTdHJpbmc8L3RleHQ+PHJlY3QgZmlsbD0ibm9uZSIgaGVpZ2h0PSI2IiBzdHlsZT0ic3Ryb2tlOiMwMDAwMDA7c3Ryb2tlLXdpZHRoOjE7IiB3aWR0aD0iNiIgeD0iMzc3LjUiIHk9IjEwNTEuOTc2NiIvPjx0ZXh0IGZpbGw9IiMwMDAwMDAiIGZvbnQtZmFtaWx5PSJWZXJkYW5hIiBmb250LXNpemU9IjE0IiBsZW5ndGhBZGp1c3Q9InNwYWNpbmciIHRleHRMZW5ndGg9Ijg0IiB4PSIzODcuNSIgeT0iMTA1OS4yMTg4Ij5vcmRlcjogT3JkZXI8L3RleHQ+PHJlY3QgZmlsbD0ibm9uZSIgaGVpZ2h0PSI2IiBzdHlsZT0ic3Ryb2tlOiMwMDAwMDA7c3Ryb2tlLXdpZHRoOjE7IiB3aWR0aD0iNiIgeD0iMzc3LjUiIHk9IjEwNjYuOTYwOSIvPjx0ZXh0IGZpbGw9IiMwMDAwMDAiIGZvbnQtZmFtaWx5PSJWZXJkYW5hIiBmb250LXNpemU9IjE0IiBsZW5ndGhBZGp1c3Q9InNwYWNpbmciIHRleHRMZW5ndGg9Ijk4IiB4PSIzODcuNSIgeT0iMTA3NC4yMDMxIj5hbW91bnQ6IGRvdWJsZTwvdGV4dD48cmVjdCBmaWxsPSJub25lIiBoZWlnaHQ9IjYiIHN0eWxlPSJzdHJva2U6IzAwMDAwMDtzdHJva2Utd2lkdGg6MTsiIHdpZHRoPSI2IiB4PSIzNzcuNSIgeT0iMTA4MS45NDUzIi8+PHRleHQgZmlsbD0iIzAwMDAwMCIgZm9udC1mYW1pbHk9IlZlcmRhbmEiIGZvbnQtc2l6ZT0iMTQiIGxlbmd0aEFkanVzdD0ic3BhY2luZyIgdGV4dExlbmd0aD0iMTE5IiB4PSIzODcuNSIgeT0iMTA4OS4xODc1Ij5wYXltZW50RGF0ZTogRGF0ZTwvdGV4dD48cmVjdCBmaWxsPSJub25lIiBoZWlnaHQ9IjYiIHN0eWxlPSJzdHJva2U6IzAwMDAwMDtzdHJva2Utd2lkdGg6MTsiIHdpZHRoPSI2IiB4PSIzNzcuNSIgeT0iMTA5Ni45Mjk3Ii8+PHRleHQgZmlsbD0iIzAwMDAwMCIgZm9udC1mYW1pbHk9IlZlcmRhbmEiIGZvbnQtc2l6ZT0iMTQiIGxlbmd0aEFkanVzdD0ic3BhY2luZyIgdGV4dExlbmd0aD0iMTQ3IiB4PSIzODcuNSIgeT0iMTEwNC4xNzE5Ij5zdGF0dXM6IFBheW1lbnRTdGF0dXM8L3RleHQ+PHJlY3QgZmlsbD0ibm9uZSIgaGVpZ2h0PSI2IiBzdHlsZT0ic3Ryb2tlOiMwMDAwMDA7c3Ryb2tlLXdpZHRoOjE7IiB3aWR0aD0iNiIgeD0iMzc3LjUiIHk9IjExMTEuOTE0MSIvPjx0ZXh0IGZpbGw9IiMwMDAwMDAiIGZvbnQtZmFtaWx5PSJWZXJkYW5hIiBmb250LXNpemU9IjE0IiBsZW5ndGhBZGp1c3Q9InNwYWNpbmciIHRleHRMZW5ndGg9IjE0NyIgeD0iMzg3LjUiIHk9IjExMTkuMTU2MyI+bWV0aG9kOiBQYXltZW50TWV0aG9kPC90ZXh0PjxsaW5lIHN0eWxlPSJzdHJva2U6IzAwMDAwMDtzdHJva2Utd2lkdGg6MTsiIHgxPSIzNzAuNSIgeDI9IjYwMi41IiB5MT0iMTEyNC45MDYzIiB5Mj0iMTEyNC45MDYzIi8+PGVsbGlwc2UgY3g9IjM4MC41IiBjeT0iMTEzNy44OTg0IiBmaWxsPSIjRkZGRkZGIiByeD0iMyIgcnk9IjMiIHN0eWxlPSJzdHJva2U6IzAwMDAwMDtzdHJva2Utd2lkdGg6MTsiLz48dGV4dCBmaWxsPSIjMDAwMDAwIiBmb250LWZhbWlseT0iVmVyZGFuYSIgZm9udC1zaXplPSIxNCIgbGVuZ3RoQWRqdXN0PSJzcGFjaW5nIiB0ZXh0TGVuZ3RoPSIxNzUiIHg9IjM4Ny41IiB5PSIxMTQyLjE0MDYiPnByb2Nlc3NQYXltZW50KCk6IGJvb2xlYW48L3RleHQ+PGVsbGlwc2UgY3g9IjM4MC41IiBjeT0iMTE1Mi44ODI4IiBmaWxsPSIjRkZGRkZGIiByeD0iMyIgcnk9IjMiIHN0eWxlPSJzdHJva2U6IzAwMDAwMDtzdHJva2Utd2lkdGg6MTsiLz48dGV4dCBmaWxsPSIjMDAwMDAwIiBmb250LWZhbWlseT0iVmVyZGFuYSIgZm9udC1zaXplPSIxNCIgbGVuZ3RoQWRqdXN0PSJzcGFjaW5nIiB0ZXh0TGVuZ3RoPSIxNjgiIHg9IjM4Ny41IiB5PSIxMTU3LjEyNSI+cmVmdW5kUGF5bWVudCgpOiBib29sZWFuPC90ZXh0PjxlbGxpcHNlIGN4PSIzODAuNSIgY3k9IjExNjcuODY3MiIgZmlsbD0iI0ZGRkZGRiIgcng9IjMiIHJ5PSIzIiBzdHlsZT0ic3Ryb2tlOiMwMDAwMDA7c3Ryb2tlLXdpZHRoOjE7Ii8+PHRleHQgZmlsbD0iIzAwMDAwMCIgZm9udC1mYW1pbHk9IlZlcmRhbmEiIGZvbnQtc2l6ZT0iMTQiIGxlbmd0aEFkanVzdD0ic3BhY2luZyIgdGV4dExlbmd0aD0iMTg5IiB4PSIzODcuNSIgeT0iMTE3Mi4xMDk0Ij5nZXRQYXltZW50RGV0YWlscygpOiBTdHJpbmc8L3RleHQ+PGVsbGlwc2UgY3g9IjM4MC41IiBjeT0iMTE4Mi44NTE2IiBmaWxsPSIjRkZGRkZGIiByeD0iMyIgcnk9IjMiIHN0eWxlPSJzdHJva2U6IzAwMDAwMDtzdHJva2Utd2lkdGg6MTsiLz48dGV4dCBmaWxsPSIjMDAwMDAwIiBmb250LWZhbWlseT0iVmVyZGFuYSIgZm9udC1zaXplPSIxNCIgbGVuZ3RoQWRqdXN0PSJzcGFjaW5nIiB0ZXh0TGVuZ3RoPSIyMTAiIHg9IjM4Ny41IiB5PSIxMTg3LjA5MzgiPmlzUGF5bWVudFN1Y2Nlc3NmdWwoKTogYm9vbGVhbjwvdGV4dD48L2c+PCEtLWNsYXNzIExveWFsdHlQcm9ncmFtLS0+PGcgY2xhc3M9ImVudGl0eSIgZGF0YS1lbnRpdHk9IkxveWFsdHlQcm9ncmFtIiBkYXRhLXNvdXJjZS1saW5lPSIxMjQiIGRhdGEtdWlkPSJlbnQwMDE2IiBpZD0iZW50aXR5X0xveWFsdHlQcm9ncmFtIj48cmVjdCBmaWxsPSIjRkZGRkZGIiBoZWlnaHQ9IjExOC45MjE5IiByeD0iMi41IiByeT0iMi41IiBzdHlsZT0ic3Ryb2tlOiMwMDAwMDA7c3Ryb2tlLXdpZHRoOjE7IiB3aWR0aD0iNDIzIiB4PSIyNzUiIHk9IjEyNzUuNSIvPjxlbGxpcHNlIGN4PSI0MzMuNzUiIGN5PSIxMjg5LjUiIGZpbGw9IiNGRkZGRkYiIHJ4PSI5IiByeT0iOSIgc3R5bGU9InN0cm9rZTojMDAwMDAwO3N0cm9rZS13aWR0aDoxOyIvPjxwYXRoIGQ9Ik00MzEuMzc1LDEyOTMuNzUgTDQzMS4zNzUsMTI5NS41IEw0MzYuMzEyNSwxMjk1LjUgTDQzNi4zMTI1LDEyOTMuNzUgTDQzMS4zNzUsMTI5My43NSBaIE00MzIuMDYyNSwxMjk0LjQzNzUgUTQzMi4wNjI1LDEyOTQuNDM3NSA0MzIuMDYyNSwxMjg1LjI1IEw0MzAuMzEyNSwxMjg1LjI1IFE0MzAuMzEyNSwxMjg1LjI1IDQzMC4zMTI1LDEyOTQuNDM3NSBMNDMyLjA2MjUsMTI5NC40Mzc1IFogTTQzNS42MjUsMTI5NC40Mzc1IEw0MzcuMzc1LDEyOTQuNDM3NSBRNDM3LjM3NSwxMjk0LjQzNzUgNDM3LjM3NSwxMjkxLjYyNSBMNDM1LjYyNSwxMjkxLjYyNSBRNDM1LjYyNSwxMjkxLjYyNSA0MzUuNjI1LDEyOTQuNDM3NSBaIE00MzUuNjI1LDEyODUuMjUgUTQzNS42MjUsMTI4NS4yNSA0MzUuNjI1LDEyODguMDYyNSBMNDM3LjM3NSwxMjg4LjA2MjUgUTQzNy4zNzUsMTI4OC4wNjI1IDQzNy4zNzUsMTI4NS4yNSBMNDM1LjYyNSwxMjg1LjI1IFogTTQzMS4zNzUsMTI4NS45Mzc1IEw0MzYuMzEyNSwxMjg1LjkzNzUgTDQzNi4zMTI1LDEyODQuMTg3NSBMNDMxLjM3NSwxMjg0LjE4NzUgTDQzMS4zNzUsMTI4NS45Mzc1IFogIiBmaWxsPSIjMDAwMDAwIi8+PHRleHQgZmlsbD0iIzAwMDAwMCIgZm9udC1mYW1pbHk9IlZlcmRhbmEiIGZvbnQtc2l6ZT0iMTQiIGxlbmd0aEFkanVzdD0ic3BhY2luZyIgdGV4dExlbmd0aD0iOTgiIHg9IjQ1MS4yNSIgeT0iMTI5NS4yNDIyIj5Mb3lhbHR5UHJvZ3JhbTwvdGV4dD48bGluZSBzdHlsZT0ic3Ryb2tlOiMwMDAwMDA7c3Ryb2tlLXdpZHRoOjE7IiB4MT0iMjc2IiB4Mj0iNjk3IiB5MT0iMTMwMy41IiB5Mj0iMTMwMy41Ii8+PHJlY3QgZmlsbD0ibm9uZSIgaGVpZ2h0PSI2IiBzdHlsZT0ic3Ryb2tlOiMwMDAwMDA7c3Ryb2tlLXdpZHRoOjE7IiB3aWR0aD0iNiIgeD0iMjgzIiB5PSIxMzEzLjQ5MjIiLz48dGV4dCBmaWxsPSIjMDAwMDAwIiBmb250LWZhbWlseT0iVmVyZGFuYSIgZm9udC1zaXplPSIxNCIgbGVuZ3RoQWRqdXN0PSJzcGFjaW5nIiB0ZXh0TGVuZ3RoPSIyMTciIHg9IjI5MyIgeT0iMTMyMC43MzQ0Ij5wb2ludHNQZXJDdXJyZW5jeTogZG91YmxlID0gMC4xPC90ZXh0PjxyZWN0IGZpbGw9Im5vbmUiIGhlaWdodD0iNiIgc3R5bGU9InN0cm9rZTojMDAwMDAwO3N0cm9rZS13aWR0aDoxOyIgd2lkdGg9IjYiIHg9IjI4MyIgeT0iMTMyOC40NzY2Ii8+PHRleHQgZmlsbD0iIzAwMDAwMCIgZm9udC1mYW1pbHk9IlZlcmRhbmEiIGZvbnQtc2l6ZT0iMTQiIGxlbmd0aEFkanVzdD0ic3BhY2luZyIgdGV4dExlbmd0aD0iMTk2IiB4PSIyOTMiIHk9IjEzMzUuNzE4OCI+cmV3YXJkczogTWFwJmx0O1N0cmluZywgUmV3YXJkJmd0OzwvdGV4dD48bGluZSBzdHlsZT0ic3Ryb2tlOiMwMDAwMDA7c3Ryb2tlLXdpZHRoOjE7IiB4MT0iMjc2IiB4Mj0iNjk3IiB5MT0iMTM0MS40Njg4IiB5Mj0iMTM0MS40Njg4Ii8+PGVsbGlwc2UgY3g9IjI4NiIgY3k9IjEzNTQuNDYwOSIgZmlsbD0iI0ZGRkZGRiIgcng9IjMiIHJ5PSIzIiBzdHlsZT0ic3Ryb2tlOiMwMDAwMDA7c3Ryb2tlLXdpZHRoOjE7Ii8+PHRleHQgZmlsbD0iIzAwMDAwMCIgZm9udC1mYW1pbHk9IlZlcmRhbmEiIGZvbnQtc2l6ZT0iMTQiIGxlbmd0aEFkanVzdD0ic3BhY2luZyIgdGV4dExlbmd0aD0iMjg3IiB4PSIyOTMiIHk9IjEzNTguNzAzMSI+Y2FsY3VsYXRlUG9pbnRzKG9yZGVyQW1vdW50OiBkb3VibGUpOiBpbnQ8L3RleHQ+PGVsbGlwc2UgY3g9IjI4NiIgY3k9IjEzNjkuNDQ1MyIgZmlsbD0iI0ZGRkZGRiIgcng9IjMiIHJ5PSIzIiBzdHlsZT0ic3Ryb2tlOiMwMDAwMDA7c3Ryb2tlLXdpZHRoOjE7Ii8+PHRleHQgZmlsbD0iIzAwMDAwMCIgZm9udC1mYW1pbHk9IlZlcmRhbmEiIGZvbnQtc2l6ZT0iMTQiIGxlbmd0aEFkanVzdD0ic3BhY2luZyIgdGV4dExlbmd0aD0iMzk5IiB4PSIyOTMiIHk9IjEzNzMuNjg3NSI+cmVkZWVtUmV3YXJkKHN0dWRlbnQ6IFN0dWRlbnQsIHJld2FyZElkOiBTdHJpbmcpOiBib29sZWFuPC90ZXh0PjxlbGxpcHNlIGN4PSIyODYiIGN5PSIxMzg0LjQyOTciIGZpbGw9IiNGRkZGRkYiIHJ4PSIzIiByeT0iMyIgc3R5bGU9InN0cm9rZTojMDAwMDAwO3N0cm9rZS13aWR0aDoxOyIvPjx0ZXh0IGZpbGw9IiMwMDAwMDAiIGZvbnQtZmFtaWx5PSJWZXJkYW5hIiBmb250LXNpemU9IjE0IiBsZW5ndGhBZGp1c3Q9InNwYWNpbmciIHRleHRMZW5ndGg9IjIxNyIgeD0iMjkzIiB5PSIxMzg4LjY3MTkiPmFkZFJld2FyZChyZXdhcmQ6IFJld2FyZCk6IHZvaWQ8L3RleHQ+PC9nPjwhLS1jbGFzcyBSZXdhcmQtLT48ZyBjbGFzcz0iZW50aXR5IiBkYXRhLWVudGl0eT0iUmV3YXJkIiBkYXRhLXNvdXJjZS1saW5lPSIxMzIiIGRhdGEtdWlkPSJlbnQwMDE3IiBpZD0iZW50aXR5X1Jld2FyZCI+PHJlY3QgZmlsbD0iI0ZGRkZGRiIgaGVpZ2h0PSIxMTguOTIxOSIgcng9IjIuNSIgcnk9IjIuNSIgc3R5bGU9InN0cm9rZTojMDAwMDAwO3N0cm9rZS13aWR0aDoxOyIgd2lkdGg9IjI5MCIgeD0iMzQxLjUiIHk9IjE0ODQuNSIvPjxlbGxpcHNlIGN4PSI0NjEuNzUiIGN5PSIxNDk4LjUiIGZpbGw9IiNGRkZGRkYiIHJ4PSI5IiByeT0iOSIgc3R5bGU9InN0cm9rZTojMDAwMDAwO3N0cm9rZS13aWR0aDoxOyIvPjxwYXRoIGQ9Ik00NTkuMzc1LDE1MDIuNzUgTDQ1OS4zNzUsMTUwNC41IEw0NjQuMzEyNSwxNTA0LjUgTDQ2NC4zMTI1LDE1MDIuNzUgTDQ1OS4zNzUsMTUwMi43NSBaIE00NjAuMDYyNSwxNTAzLjQzNzUgUTQ2MC4wNjI1LDE1MDMuNDM3NSA0NjAuMDYyNSwxNDk0LjI1IEw0NTguMzEyNSwxNDk0LjI1IFE0NTguMzEyNSwxNDk0LjI1IDQ1OC4zMTI1LDE1MDMuNDM3NSBMNDYwLjA2MjUsMTUwMy40Mzc1IFogTTQ2My42MjUsMTUwMy40Mzc1IEw0NjUuMzc1LDE1MDMuNDM3NSBRNDY1LjM3NSwxNTAzLjQzNzUgNDY1LjM3NSwxNTAwLjYyNSBMNDYzLjYyNSwxNTAwLjYyNSBRNDYzLjYyNSwxNTAwLjYyNSA0NjMuNjI1LDE1MDMuNDM3NSBaIE00NjMuNjI1LDE0OTQuMjUgUTQ2My42MjUsMTQ5NC4yNSA0NjMuNjI1LDE0OTcuMDYyNSBMNDY1LjM3NSwxNDk3LjA2MjUgUTQ2NS4zNzUsMTQ5Ny4wNjI1IDQ2NS4zNzUsMTQ5NC4yNSBMNDYzLjYyNSwxNDk0LjI1IFogTTQ1OS4zNzUsMTQ5NC45Mzc1IEw0NjQuMzEyNSwxNDk0LjkzNzUgTDQ2NC4zMTI1LDE0OTMuMTg3NSBMNDU5LjM3NSwxNDkzLjE4NzUgTDQ1OS4zNzUsMTQ5NC45Mzc1IFogIiBmaWxsPSIjMDAwMDAwIi8+PHRleHQgZmlsbD0iIzAwMDAwMCIgZm9udC1mYW1pbHk9IlZlcmRhbmEiIGZvbnQtc2l6ZT0iMTQiIGxlbmd0aEFkanVzdD0ic3BhY2luZyIgdGV4dExlbmd0aD0iNDIiIHg9IjQ3OS4yNSIgeT0iMTUwNC4yNDIyIj5SZXdhcmQ8L3RleHQ+PGxpbmUgc3R5bGU9InN0cm9rZTojMDAwMDAwO3N0cm9rZS13aWR0aDoxOyIgeDE9IjM0Mi41IiB4Mj0iNjMwLjUiIHkxPSIxNTEyLjUiIHkyPSIxNTEyLjUiLz48cmVjdCBmaWxsPSJub25lIiBoZWlnaHQ9IjYiIHN0eWxlPSJzdHJva2U6IzAwMDAwMDtzdHJva2Utd2lkdGg6MTsiIHdpZHRoPSI2IiB4PSIzNDkuNSIgeT0iMTUyMi40OTIyIi8+PHRleHQgZmlsbD0iIzAwMDAwMCIgZm9udC1mYW1pbHk9IlZlcmRhbmEiIGZvbnQtc2l6ZT0iMTQiIGxlbmd0aEFkanVzdD0ic3BhY2luZyIgdGV4dExlbmd0aD0iMTEyIiB4PSIzNTkuNSIgeT0iMTUyOS43MzQ0Ij5yZXdhcmRJZDogU3RyaW5nPC90ZXh0PjxyZWN0IGZpbGw9Im5vbmUiIGhlaWdodD0iNiIgc3R5bGU9InN0cm9rZTojMDAwMDAwO3N0cm9rZS13aWR0aDoxOyIgd2lkdGg9IjYiIHg9IjM0OS41IiB5PSIxNTM3LjQ3NjYiLz48dGV4dCBmaWxsPSIjMDAwMDAwIiBmb250LWZhbWlseT0iVmVyZGFuYSIgZm9udC1zaXplPSIxNCIgbGVuZ3RoQWRqdXN0PSJzcGFjaW5nIiB0ZXh0TGVuZ3RoPSI4NCIgeD0iMzU5LjUiIHk9IjE1NDQuNzE4OCI+bmFtZTogU3RyaW5nPC90ZXh0PjxyZWN0IGZpbGw9Im5vbmUiIGhlaWdodD0iNiIgc3R5bGU9InN0cm9rZTojMDAwMDAwO3N0cm9rZS13aWR0aDoxOyIgd2lkdGg9IjYiIHg9IjM0OS41IiB5PSIxNTUyLjQ2MDkiLz48dGV4dCBmaWxsPSIjMDAwMDAwIiBmb250LWZhbWlseT0iVmVyZGFuYSIgZm9udC1zaXplPSIxNCIgbGVuZ3RoQWRqdXN0PSJzcGFjaW5nIiB0ZXh0TGVuZ3RoPSI5OCIgeD0iMzU5LjUiIHk9IjE1NTkuNzAzMSI+cG9pbnRDb3N0OiBpbnQ8L3RleHQ+PHJlY3QgZmlsbD0ibm9uZSIgaGVpZ2h0PSI2IiBzdHlsZT0ic3Ryb2tlOiMwMDAwMDA7c3Ryb2tlLXdpZHRoOjE7IiB3aWR0aD0iNiIgeD0iMzQ5LjUiIHk9IjE1NjcuNDQ1MyIvPjx0ZXh0IGZpbGw9IiMwMDAwMDAiIGZvbnQtZmFtaWx5PSJWZXJkYW5hIiBmb250LXNpemU9IjE0IiBsZW5ndGhBZGp1c3Q9InNwYWNpbmciIHRleHRMZW5ndGg9IjEzMyIgeD0iMzU5LjUiIHk9IjE1NzQuNjg3NSI+ZGVzY3JpcHRpb246IFN0cmluZzwvdGV4dD48bGluZSBzdHlsZT0ic3Ryb2tlOiMwMDAwMDA7c3Ryb2tlLXdpZHRoOjE7IiB4MT0iMzQyLjUiIHgyPSI2MzAuNSIgeTE9IjE1ODAuNDM3NSIgeTI9IjE1ODAuNDM3NSIvPjxlbGxpcHNlIGN4PSIzNTIuNSIgY3k9IjE1OTMuNDI5NyIgZmlsbD0iI0ZGRkZGRiIgcng9IjMiIHJ5PSIzIiBzdHlsZT0ic3Ryb2tlOiMwMDAwMDA7c3Ryb2tlLXdpZHRoOjE7Ii8+PHRleHQgZmlsbD0iIzAwMDAwMCIgZm9udC1mYW1pbHk9IlZlcmRhbmEiIGZvbnQtc2l6ZT0iMTQiIGxlbmd0aEFkanVzdD0ic3BhY2luZyIgdGV4dExlbmd0aD0iMjY2IiB4PSIzNTkuNSIgeT0iMTU5Ny42NzE5Ij5hcHBseVJld2FyZChzdHVkZW50OiBTdHVkZW50KTogYm9vbGVhbjwvdGV4dD48L2c+PCEtLWNsYXNzIE5vdGlmaWNhdGlvblNlcnZpY2UtLT48ZyBjbGFzcz0iZW50aXR5IiBkYXRhLWVudGl0eT0iTm90aWZpY2F0aW9uU2VydmljZSIgZGF0YS1zb3VyY2UtbGluZT0iMTQwIiBkYXRhLXVpZD0iZW50MDAxOCIgaWQ9ImVudGl0eV9Ob3RpZmljYXRpb25TZXJ2aWNlIj48cmVjdCBmaWxsPSIjRkZGRkZGIiBoZWlnaHQ9IjU4Ljk4NDQiIHJ4PSIyLjUiIHJ5PSIyLjUiIHN0eWxlPSJzdHJva2U6IzAwMDAwMDtzdHJva2Utd2lkdGg6MTsiIHdpZHRoPSI0MDIiIHg9IjEyODUuNSIgeT0iNjE4LjUiLz48ZWxsaXBzZSBjeD0iMTQxNi4yNSIgY3k9IjYzMi41IiBmaWxsPSIjRkZGRkZGIiByeD0iOSIgcnk9IjkiIHN0eWxlPSJzdHJva2U6IzAwMDAwMDtzdHJva2Utd2lkdGg6MTsiLz48cGF0aCBkPSJNMTQxMy44NzUsNjM2Ljc1IEwxNDEzLjg3NSw2MzguNSBMMTQxOC44MTI1LDYzOC41IEwxNDE4LjgxMjUsNjM2Ljc1IEwxNDEzLjg3NSw2MzYuNzUgWiBNMTQxNC41NjI1LDYzNy40Mzc1IFExNDE0LjU2MjUsNjM3LjQzNzUgMTQxNC41NjI1LDYyOC4yNSBMMTQxMi44MTI1LDYyOC4yNSBRMTQxMi44MTI1LDYyOC4yNSAxNDEyLjgxMjUsNjM3LjQzNzUgTDE0MTQuNTYyNSw2MzcuNDM3NSBaIE0xNDE4LjEyNSw2MzcuNDM3NSBMMTQxOS44NzUsNjM3LjQzNzUgUTE0MTkuODc1LDYzNy40Mzc1IDE0MTkuODc1LDYzNC42MjUgTDE0MTguMTI1LDYzNC42MjUgUTE0MTguMTI1LDYzNC42MjUgMTQxOC4xMjUsNjM3LjQzNzUgWiBNMTQxOC4xMjUsNjI4LjI1IFExNDE4LjEyNSw2MjguMjUgMTQxOC4xMjUsNjMxLjA2MjUgTDE0MTkuODc1LDYzMS4wNjI1IFExNDE5Ljg3NSw2MzEuMDYyNSAxNDE5Ljg3NSw2MjguMjUgTDE0MTguMTI1LDYyOC4yNSBaIE0xNDEzLjg3NSw2MjguOTM3NSBMMTQxOC44MTI1LDYyOC45Mzc1IEwxNDE4LjgxMjUsNjI3LjE4NzUgTDE0MTMuODc1LDYyNy4xODc1IEwxNDEzLjg3NSw2MjguOTM3NSBaICIgZmlsbD0iIzAwMDAwMCIvPjx0ZXh0IGZpbGw9IiMwMDAwMDAiIGZvbnQtZmFtaWx5PSJWZXJkYW5hIiBmb250LXNpemU9IjE0IiBsZW5ndGhBZGp1c3Q9InNwYWNpbmciIHRleHRMZW5ndGg9IjEzMyIgeD0iMTQzMy43NSIgeT0iNjM4LjI0MjIiPk5vdGlmaWNhdGlvblNlcnZpY2U8L3RleHQ+PGxpbmUgc3R5bGU9InN0cm9rZTojMDAwMDAwO3N0cm9rZS13aWR0aDoxOyIgeDE9IjEyODYuNSIgeDI9IjE2ODYuNSIgeTE9IjY0Ni41IiB5Mj0iNjQ2LjUiLz48bGluZSBzdHlsZT0ic3Ryb2tlOiMwMDAwMDA7c3Ryb2tlLXdpZHRoOjE7IiB4MT0iMTI4Ni41IiB4Mj0iMTY4Ni41IiB5MT0iNjU0LjUiIHkyPSI2NTQuNSIvPjxlbGxpcHNlIGN4PSIxMjk2LjUiIGN5PSI2NjcuNDkyMiIgZmlsbD0iI0ZGRkZGRiIgcng9IjMiIHJ5PSIzIiBzdHlsZT0ic3Ryb2tlOiMwMDAwMDA7c3Ryb2tlLXdpZHRoOjE7Ii8+PHRleHQgZmlsbD0iIzAwMDAwMCIgZm9udC1mYW1pbHk9IlZlcmRhbmEiIGZvbnQtc2l6ZT0iMTQiIGxlbmd0aEFkanVzdD0ic3BhY2luZyIgdGV4dExlbmd0aD0iMzc4IiB4PSIxMzAzLjUiIHk9IjY3MS43MzQ0Ij5zZW5kTm90aWZpY2F0aW9uKHVzZXI6IFVzZXIsIG1lc3NhZ2U6IFN0cmluZyk6IGJvb2xlYW48L3RleHQ+PC9nPjwhLS1jbGFzcyBSZXBvcnRHZW5lcmF0b3ItLT48ZyBjbGFzcz0iZW50aXR5IiBkYXRhLWVudGl0eT0iUmVwb3J0R2VuZXJhdG9yIiBkYXRhLXNvdXJjZS1saW5lPSIxNDQiIGRhdGEtdWlkPSJlbnQwMDE5IiBpZD0iZW50aXR5X1JlcG9ydEdlbmVyYXRvciI+PHJlY3QgZmlsbD0iI0ZGRkZGRiIgaGVpZ2h0PSIxMzMuOTA2MyIgcng9IjIuNSIgcnk9IjIuNSIgc3R5bGU9InN0cm9rZTojMDAwMDAwO3N0cm9rZS13aWR0aDoxOyIgd2lkdGg9IjM3NCIgeD0iODc2LjUiIHk9IjU4MSIvPjxlbGxpcHNlIGN4PSIxMDA3LjI1IiBjeT0iNTk1IiBmaWxsPSIjRkZGRkZGIiByeD0iOSIgcnk9IjkiIHN0eWxlPSJzdHJva2U6IzAwMDAwMDtzdHJva2Utd2lkdGg6MTsiLz48cGF0aCBkPSJNMTAwNC44NzUsNTk5LjI1IEwxMDA0Ljg3NSw2MDEgTDEwMDkuODEyNSw2MDEgTDEwMDkuODEyNSw1OTkuMjUgTDEwMDQuODc1LDU5OS4yNSBaIE0xMDA1LjU2MjUsNTk5LjkzNzUgUTEwMDUuNTYyNSw1OTkuOTM3NSAxMDA1LjU2MjUsNTkwLjc1IEwxMDAzLjgxMjUsNTkwLjc1IFExMDAzLjgxMjUsNTkwLjc1IDEwMDMuODEyNSw1OTkuOTM3NSBMMTAwNS41NjI1LDU5OS45Mzc1IFogTTEwMDkuMTI1LDU5OS45Mzc1IEwxMDEwLjg3NSw1OTkuOTM3NSBRMTAxMC44NzUsNTk5LjkzNzUgMTAxMC44NzUsNTk3LjEyNSBMMTAwOS4xMjUsNTk3LjEyNSBRMTAwOS4xMjUsNTk3LjEyNSAxMDA5LjEyNSw1OTkuOTM3NSBaIE0xMDA5LjEyNSw1OTAuNzUgUTEwMDkuMTI1LDU5MC43NSAxMDA5LjEyNSw1OTMuNTYyNSBMMTAxMC44NzUsNTkzLjU2MjUgUTEwMTAuODc1LDU5My41NjI1IDEwMTAuODc1LDU5MC43NSBMMTAwOS4xMjUsNTkwLjc1IFogTTEwMDQuODc1LDU5MS40Mzc1IEwxMDA5LjgxMjUsNTkxLjQzNzUgTDEwMDkuODEyNSw1ODkuNjg3NSBMMTAwNC44NzUsNTg5LjY4NzUgTDEwMDQuODc1LDU5MS40Mzc1IFogIiBmaWxsPSIjMDAwMDAwIi8+PHRleHQgZmlsbD0iIzAwMDAwMCIgZm9udC1mYW1pbHk9IlZlcmRhbmEiIGZvbnQtc2l6ZT0iMTQiIGxlbmd0aEFkanVzdD0ic3BhY2luZyIgdGV4dExlbmd0aD0iMTA1IiB4PSIxMDI0Ljc1IiB5PSI2MDAuNzQyMiI+UmVwb3J0R2VuZXJhdG9yPC90ZXh0PjxsaW5lIHN0eWxlPSJzdHJva2U6IzAwMDAwMDtzdHJva2Utd2lkdGg6MTsiIHgxPSI4NzcuNSIgeDI9IjEyNDkuNSIgeTE9IjYwOSIgeTI9IjYwOSIvPjxsaW5lIHN0eWxlPSJzdHJva2U6IzAwMDAwMDtzdHJva2Utd2lkdGg6MTsiIHgxPSI4NzcuNSIgeDI9IjEyNDkuNSIgeTE9IjYxNyIgeTI9IjYxNyIvPjxlbGxpcHNlIGN4PSI4ODcuNSIgY3k9IjYyOS45OTIyIiBmaWxsPSIjRkZGRkZGIiByeD0iMyIgcnk9IjMiIHN0eWxlPSJzdHJva2U6IzAwMDAwMDtzdHJva2Utd2lkdGg6MTsiLz48dGV4dCBmaWxsPSIjMDAwMDAwIiBmb250LWZhbWlseT0iVmVyZGFuYSIgZm9udC1zaXplPSIxNCIgbGVuZ3RoQWRqdXN0PSJzcGFjaW5nIiB0ZXh0TGVuZ3RoPSIzMDgiIHg9Ijg5NC41IiB5PSI2MzQuMjM0NCI+Z2VuZXJhdGVEYWlseVNhbGVzUmVwb3J0KGRhdGU6IERhdGUpOiBTdHJpbmc8L3RleHQ+PGVsbGlwc2UgY3g9Ijg4Ny41IiBjeT0iNjQ0Ljk3NjYiIGZpbGw9IiNGRkZGRkYiIHJ4PSIzIiByeT0iMyIgc3R5bGU9InN0cm9rZTojMDAwMDAwO3N0cm9rZS13aWR0aDoxOyIvPjx0ZXh0IGZpbGw9IiMwMDAwMDAiIGZvbnQtZmFtaWx5PSJWZXJkYW5hIiBmb250LXNpemU9IjE0IiBsZW5ndGhBZGp1c3Q9InNwYWNpbmciIHRleHRMZW5ndGg9IjM1MCIgeD0iODk0LjUiIHk9IjY0OS4yMTg4Ij5nZW5lcmF0ZVdlZWtseVNhbGVzUmVwb3J0KHN0YXJ0RGF0ZTogRGF0ZSk6IFN0cmluZzwvdGV4dD48ZWxsaXBzZSBjeD0iODg3LjUiIGN5PSI2NTkuOTYwOSIgZmlsbD0iI0ZGRkZGRiIgcng9IjMiIHJ5PSIzIiBzdHlsZT0ic3Ryb2tlOiMwMDAwMDA7c3Ryb2tlLXdpZHRoOjE7Ii8+PHRleHQgZmlsbD0iIzAwMDAwMCIgZm9udC1mYW1pbHk9IlZlcmRhbmEiIGZvbnQtc2l6ZT0iMTQiIGxlbmd0aEFkanVzdD0ic3BhY2luZyIgdGV4dExlbmd0aD0iMjE3IiB4PSI4OTQuNSIgeT0iNjY0LjIwMzEiPmdlbmVyYXRlTG95YWx0eVJlcG9ydCgpOiBTdHJpbmc8L3RleHQ+PGVsbGlwc2UgY3g9Ijg4Ny41IiBjeT0iNjc0Ljk0NTMiIGZpbGw9IiNGRkZGRkYiIHJ4PSIzIiByeT0iMyIgc3R5bGU9InN0cm9rZTojMDAwMDAwO3N0cm9rZS13aWR0aDoxOyIvPjx0ZXh0IGZpbGw9IiMwMDAwMDAiIGZvbnQtZmFtaWx5PSJWZXJkYW5hIiBmb250LXNpemU9IjE0IiBsZW5ndGhBZGp1c3Q9InNwYWNpbmciIHRleHRMZW5ndGg9IjMwOCIgeD0iODk0LjUiIHk9IjY3OS4xODc1Ij5nZW5lcmF0ZUNhbGx2NXNpdGVSZXBvcnQoZGF0ZTogRGF0ZSk6IFN0cmluZzwvdGV4dD48ZWxsaXBzZSBjeD0iODg3LjUiIGN5PSI2ODkuOTI5NyIgZmlsbD0iI0ZGRkZGRiIgcng9IjMiIHJ5PSIzIiBzdHlsZT0ic3Ryb2tlOiMwMDAwMDA7c3Ryb2tlLXdpZHRoOjE7Ii8+PHRleHQgZmlsbD0iIzAwMDAwMCIgZm9udC1mYW1pbHk9IlZlcmRhbmEiIGZvbnQtc2l6ZT0iMTQiIGxlbmd0aEFkanVzdD0ic3BhY2luZyIgdGV4dExlbmd0aD0iMzAxIiB4PSI4OTQuNSIgeT0iNjk0LjE3MTkiPmdlbmVyYXRlVmlldzVzaXRlUmVwb3J0KGRhdGU6IERhdGUpOiBTdHJpbmc8L3RleHQ+PGVsbGlwc2UgY3g9Ijg4Ny41IiBjeT0iNzA0LjkxNDEiIGZpbGw9IiNGRkZGRkYiIHJ4PSIzIiByeT0iMyIgc3R5bGU9InN0cm9rZTojMDAwMDAwO3N0cm9rZS13aWR0aDoxOyIvPjx0ZXh0IGZpbGw9IiMwMDAwMDAiIGZvbnQtZmFtaWx5PSJWZXJkYW5hIiBmb250LXNpemU9IjE0IiBsZW5ndGhBZGp1c3Q9InNwYWNpbmciIHRleHRMZW5ndGg9IjIwMyIgeD0iODk0LjUiIHk9IjcwOS4xNTYzIj5nZW5lcmF0ZUxvZ2luUmVwb3J0KCk6IFN0cmluZzwvdGV4dD48L2c+PCEtLWNsYXNzIE9yZGVyUHJvY2Vzc29yLS0+PGcgY2xhc3M9ImVudGl0eSIgZGF0YS1lbnRpdHk9Ik9yZGVyUHJvY2Vzc29yIiBkYXRhLXNvdXJjZS1saW5lPSIxNTMiIGRhdGEtdWlkPSJlbnQwMDIwIiBpZD0iZW50aXR5X09yZGVyUHJvY2Vzc29yIj48cmVjdCBmaWxsPSIjRkZGRkZGIiBoZWlnaHQ9Ijg4Ljk1MzEiIHJ4PSIyLjUiIHJ5PSIyLjUiIHN0eWxlPSJzdHJva2U6IzAwMDAwMDtzdHJva2Utd2lkdGg6MTsiIHdpZHRoPSIzMzIiIHg9IjM3MjkuNSIgeT0iMjciLz48ZWxsaXBzZSBjeD0iMzg0Mi43NSIgY3k9IjQxIiBmaWxsPSIjRkZGRkZGIiByeD0iOSIgcnk9IjkiIHN0eWxlPSJzdHJva2U6IzAwMDAwMDtzdHJva2Utd2lkdGg6MTsiLz48cGF0aCBkPSJNMzg0MC4zNzUsNDUuMjUgTDM4NDAuMzc1LDQ3IEwzODQ1LjMxMjUsNDcgTDM4NDUuMzEyNSw0NS4yNSBMMzg0MC4zNzUsNDUuMjUgWiBNMzg0MS4wNjI1LDQ1LjkzNzUgUTM4NDEuMDYyNSw0NS45Mzc1IDM4NDEuMDYyNSwzNi43NSBMMzgzOS4zMTI1LDM2Ljc1IFEzODM5LjMxMjUsMzYuNzUgMzgzOS4zMTI1LDQ1LjkzNzUgTDM4NDEuMDYyNSw0NS45Mzc1IFogTTM4NDQuNjI1LDQ1LjkzNzUgTDM4NDYuMzc1LDQ1LjkzNzUgUTM4NDYuMzc1LDQ1LjkzNzUgMzg0Ni4zNzUsNDMuMTI1IEwzODQ0LjYyNSw0My4xMjUgUTM4NDQuNjI1LDQzLjEyNSAzODQ0LjYyNSw0NS45Mzc1IFogTTM4NDQuNjI1LDM2Ljc1IFEzODQ0LjYyNSwzNi43NSAzODQ0LjYyNSwzOS41NjI1IEwzODQ2LjM3NSwzOS41NjI1IFEzODQ2LjM3NSwzOS41NjI1IDM4NDYuMzc1LDM2Ljc1IEwzODQ0LjYyNSwzNi43NSBaIE0zODQwLjM3NSwzNy40Mzc1IEwzODQ1LjMxMjUsMzcuNDM3NSBMMzg0NS4zMTI1LDM1LjY4NzUgTDM4NDAuMzc1LDM1LjY4NzUgTDM4NDAuMzc1LDM3LjQzNzUgWiAiIGZpbGw9IiMwMDAwMDAiLz48dGV4dCBmaWxsPSIjMDAwMDAwIiBmb250LWZhbWlseT0iVmVyZGFuYSIgZm9udC1zaXplPSIxNCIgbGVuZ3RoQWRqdXN0PSJzcGFjaW5nIiB0ZXh0TGVuZ3RoPSI5OCIgeD0iMzg2MC4yNSIgeT0iNDYuNzQyMiI+T3JkZXJQcm9jZXNzb3I8L3RleHQ+PGxpbmUgc3R5bGU9InN0cm9rZTojMDAwMDAwO3N0cm9rZS13aWR0aDoxOyIgeDE9IjM3MzAuNSIgeDI9IjQwNjAuNSIgeTE9IjU1IiB5Mj0iNTUiLz48cmVjdCBmaWxsPSJub25lIiBoZWlnaHQ9IjYiIHN0eWxlPSJzdHJva2U6IzAwMDAwMDtzdHJva2Utd2lkdGg6MTsiIHdpZHRoPSI2IiB4PSIzNzM3LjUiIHk9IjY0Ljk5MjIiLz48dGV4dCBmaWxsPSIjMDAwMDAwIiBmb250LWZhbWlseT0iVmVyZGFuYSIgZm9udC1zaXplPSIxNCIgbGVuZ3RoQWRqdXN0PSJzcGFjaW5nIiB0ZXh0TGVuZ3RoPSIxODIiIHg9IjM3NDcuNSIgeT0iNzIuMjM0NCI+Y3VycmVudE9yZGVyczogTGlzdCZsdDtPcmRlciZndDs8L3RleHQ+PGxpbmUgc3R5bGU9InN0cm9rZTojMDAwMDAwO3N0cm9rZS13aWR0aDoxOyIgeDE9IjM3MzAuNSIgeDI9IjQwNjAuNSIgeTE9Ijc3Ljk4NDQiIHkyPSI3Ny45ODQ0Ii8+PGVsbGlwc2UgY3g9IjM3NDAuNSIgY3k9IjkwLjk3NjYiIGZpbGw9IiNGRkZGRkYiIHJ4PSIzIiByeT0iMyIgc3R5bGU9InN0cm9rZTojMDAwMDAwO3N0cm9rZS13aWR0aDoxOyIvPjx0ZXh0IGZpbGw9IiMwMDAwMDAiIGZvbnQtZmFtaWx5PSJWZXJkYW5hIiBmb250LXNpemU9IjE0IiBsZW5ndGhBZGp1c3Q9InNwYWNpbmciIHRleHRMZW5ndGg9IjI0NSIgeD0iMzc0Ny41IiB5PSI5NS4yMTg4Ij5wcm9jZXNzT3JkZXIob3JkZXI6IE9yZGVyKTogYm9vbGVhbjwvdGV4dD48ZWxsaXBzZSBjeD0iMzc0MC41IiBjeT0iMTA1Ljk2MDkiIGZpbGw9IiNGRkZGRkYiIHJ4PSIzIiByeT0iMyIgc3R5bGU9InN0cm9rZTojMDAwMDAwO3N0cm9rZS13aWR0aDoxOyIvPjx0ZXh0IGZpbGw9IiMwMDAwMDAiIGZvbnQtZmFtaWx5PSJWZXJkYW5hIiBmb250LXNpemU9IjE0IiBsZW5ndGhBZGp1c3Q9InNwYWNpbmciIHRleHRMZW5ndGg9IjMwOCIgeD0iMzc0Ny41IiB5PSIxMTAuMjAzMSI+Z2V0T3JkZXJTdGF0dXMob3JkZXJJZDogU3RyaW5nKTogT3JkZXJTdGF0dXM8L3RleHQ+PC9nPjwhLS1jbGFzcyBJTWVudVByb3ZpZGVyLS0+PGcgY2xhc3M9ImVudGl0eSIgZGF0YS1lbnRpdHk9IklNZW51UHJvdmlkZXIiIGRhdGEtc291cmNlLWxpbmU9IjE2MCIgZGF0YS11aWQ9ImVudDAwMjEiIGlkPSJlbnRpdHlfSU1lbnVQcm92aWRlciI+PHJlY3QgZmlsbD0iI0ZGRkZGRiIgaGVpZ2h0PSIxMDMuOTM3NSIgcng9IjIuNSIgcnk9IjIuNSIgc3R5bGU9InN0cm9rZTojMDAwMDAwO3N0cm9rZS13aWR0aDoxOyIgd2lkdGg9IjQzMCIgeD0iMjc3MS41IiB5PSIyMDciLz48ZWxsaXBzZSBjeD0iMjkzNy4yNSIgY3k9IjIyMSIgZmlsbD0iI0ZGRkZGRiIgcng9IjkiIHJ5PSI5IiBzdHlsZT0ic3Ryb2tlOiMwMDAwMDA7c3Ryb2tlLXdpZHRoOjE7Ii8+PHBhdGggZD0iTTI5NDAuMzc1LDIyNyBMMjk0MC4zNzUsMjI1LjI1IEwyOTM4LjI1LDIyNS4yNSBRMjkzOC4yNSwyMjUuMjUgMjkzOC4yNSwyMTcuNDM3NSBMMjk0MC4zNzUsMjE3LjQzNzUgTDI5NDAuMzc1LDIxNS42ODc1IEwyOTM0LjM3NSwyMTUuNjg3NSBMMjkzNC4zNzUsMjE3LjQzNzUgTDI5MzYuNSwyMTcuNDM3NSBRMjkzNi41LDIxNy40Mzc1IDI5MzYuNSwyMjUuMjUgTDI5MzQuMzc1LDIyNS4yNSBMMjkzNC4zNzUsMjI3IEwyOTQwLjM3NSwyMjcgWiAiIGZpbGw9IiMwMDAwMDAiLz48dGV4dCBmaWxsPSIjMDAwMDAwIiBmb250LWZhbWlseT0iVmVyZGFuYSIgZm9udC1zaXplPSIxNCIgZm9udC1zdHlsZT0iaXRhbGljIiBsZW5ndGhBZGp1c3Q9InNwYWNpbmciIHRleHRMZW5ndGg9IjkxIiB4PSIyOTU0Ljc1IiB5PSIyMjYuNzQyMiI+SU1lbnVQcm92aWRlcjwvdGV4dD48bGluZSBzdHlsZT0ic3Ryb2tlOiMwMDAwMDA7c3Ryb2tlLXdpZHRoOjE7IiB4MT0iMjc3Mi41IiB4Mj0iMzIwMC41IiB5MT0iMjM1IiB5Mj0iMjM1Ii8+PGxpbmUgc3R5bGU9InN0cm9rZTojMDAwMDAwO3N0cm9rZS13aWR0aDoxOyIgeDE9IjI3NzIuNSIgeDI9IjMyMDAuNSIgeTE9IjI0MyIgeTI9IjI0MyIvPjxlbGxpcHNlIGN4PSIyNzgyLjUiIGN5PSIyNTUuOTkyMiIgZmlsbD0iI0ZGRkZGRiIgcng9IjMiIHJ5PSIzIiBzdHlsZT0ic3Ryb2tlOiMwMDAwMDA7c3Ryb2tlLXdpZHRoOjE7Ii8+PHRleHQgZmlsbD0iIzAwMDAwMCIgZm9udC1mYW1pbHk9IlZlcmRhbmEiIGZvbnQtc2l6ZT0iMTQiIGxlbmd0aEFkanVzdD0ic3BhY2luZyIgdGV4dExlbmd0aD0iMjEwIiB4PSIyNzg5LjUiIHk9IjI2MC4yMzQ0Ij5nZXRNZW51SXRlbXMoKTogTGlzdCZsdDtNZW51SXRlbSZndDs8L3RleHQ+PGVsbGlwc2UgY3g9IjI3ODIuNSIgY3k9IjI3MC45NzY2IiBmaWxsPSIjRkZGRkZGIiByeD0iMyIgcnk9IjMiIHN0eWxlPSJzdHJva2U6IzAwMDAwMDtzdHJva2Utd2lkdGg6MTsiLz48dGV4dCBmaWxsPSIjMDAwMDAwIiBmb250LWZhbWlseT0iVmVyZGFuYSIgZm9udC1zaXplPSIxNCIgbGVuZ3RoQWRqdXN0PSJzcGFjaW5nIiB0ZXh0TGVuZ3RoPSIyNTIiIHg9IjI3ODkuNSIgeT0iMjc1LjIxODgiPmFkZE1lbnVJdGVtKGl0ZW06IE1lbnVJdGVtKTogYm9vbGVhbjwvdGV4dD48ZWxsaXBzZSBjeD0iMjc4Mi41IiBjeT0iMjg1Ljk2MDkiIGZpbGw9IiNGRkZGRkYiIHJ4PSIzIiByeT0iMyIgc3R5bGU9InN0cm9rZTojMDAwMDAwO3N0cm9rZS13aWR0aDoxOyIvPjx0ZXh0IGZpbGw9IiMwMDAwMDAiIGZvbnQtZmFtaWx5PSJWZXJkYW5hIiBmb250LXNpemU9IjE0IiBsZW5ndGhBZGp1c3Q9InNwYWNpbmciIHRleHRMZW5ndGg9IjQwNiIgeD0iMjc4OS41IiB5PSIyOTAuMjAzMSI+dXBkYXRlTWVudUl0ZW0oaXRlbUlkOiBTdHJpbmcsIG5ld0l0ZW06IE1lbnVJdGVtKTogYm9vbGVhbjwvdGV4dD48ZWxsaXBzZSBjeD0iMjc4Mi41IiBjeT0iMzAwLjk0NTMiIGZpbGw9IiNGRkZGRkYiIHJ4PSIzIiByeT0iMyIgc3R5bGU9InN0cm9rZTojMDAwMDAwO3N0cm9rZS13aWR0aDoxOyIvPjx0ZXh0IGZpbGw9IiMwMDAwMDAiIGZvbnQtZmFtaWx5PSJWZXJkYW5hIiBmb250LXNpemU9IjE0IiBsZW5ndGhBZGp1c3Q9InNwYWNpbmciIHRleHRMZW5ndGg9IjI3MyIgeD0iMjc4OS41IiB5PSIzMDUuMTg3NSI+cmVtb3ZlTWVudUl0ZW0oaXRlbUlkOiBTdHJpbmcpOiBib29sZWFuPC90ZXh0PjwvZz48IS0tY2xhc3MgSU9yZGVyUHJvY2Vzc29yLS0+PGcgY2xhc3M9ImVudGl0eSIgZGF0YS1lbnRpdHk9IklPcmRlclByb2Nlc3NvciIgZGF0YS1zb3VyY2UtbGluZT0iMTY3IiBkYXRhLXVpZD0iZW50MDAyMiIgaWQ9ImVudGl0eV9JT3JkZXJQcm9jZXNzb3IiPjxyZWN0IGZpbGw9IiNGRkZGRkYiIGhlaWdodD0iNzMuOTY4OCIgcng9IjIuNSIgcnk9IjIuNSIgc3R5bGU9InN0cm9rZTojMDAwMDAwO3N0cm9rZS13aWR0aDoxOyIgd2lkdGg9IjQ3MiIgeD0iMzIzNi41IiB5PSIyMjIiLz48ZWxsaXBzZSBjeD0iMzQxNi4yNSIgY3k9IjIzNiIgZmlsbD0iI0ZGRkZGRiIgcng9IjkiIHJ5PSI5IiBzdHlsZT0ic3Ryb2tlOiMwMDAwMDA7c3Ryb2tlLXdpZHRoOjE7Ii8+PHBhdGggZD0iTTM0MTkuMzc1LDI0MiBMMzQxOS4zNzUsMjQwLjI1IEwzNDE3LjI1LDI0MC4yNSBRMzQxNy4yNSwyNDAuMjUgMzQxNy4yNSwyMzIuNDM3NSBMMzQxOS4zNzUsMjMyLjQzNzUgTDM0MTkuMzc1LDIzMC42ODc1IEwzNDEzLjM3NSwyMzAuNjg3NSBMMzQxMy4zNzUsMjMyLjQzNzUgTDM0MTUuNSwyMzIuNDM3NSBRMzQxNS41LDIzMi40Mzc1IDM0MTUuNSwyNDAuMjUgTDM0MTMuMzc1LDI0MC4yNSBMMzQxMy4zNzUsMjQyIEwzNDE5LjM3NSwyNDIgWiAiIGZpbGw9IiMwMDAwMDAiLz48dGV4dCBmaWxsPSIjMDAwMDAwIiBmb250LWZhbWlseT0iVmVyZGFuYSIgZm9udC1zaXplPSIxNCIgZm9udC1zdHlsZT0iaXRhbGljIiBsZW5ndGhBZGp1c3Q9InNwYWNpbmciIHRleHRMZW5ndGg9IjEwNSIgeD0iMzQzMy43NSIgeT0iMjQxLjc0MjIiPklPcmRlclByb2Nlc3NvcjwvdGV4dD48bGluZSBzdHlsZT0ic3Ryb2tlOiMwMDAwMDA7c3Ryb2tlLXdpZHRoOjE7IiB4MT0iMzIzNy41IiB4Mj0iMzcwNy41IiB5MT0iMjUwIiB5Mj0iMjUwIi8+PGxpbmUgc3R5bGU9InN0cm9rZTojMDAwMDAwO3N0cm9rZS13aWR0aDoxOyIgeDE9IjMyMzcuNSIgeDI9IjM3MDcuNSIgeTE9IjI1OCIgeTI9IjI1OCIvPjxlbGxpcHNlIGN4PSIzMjQ3LjUiIGN5PSIyNzAuOTkyMiIgZmlsbD0iI0ZGRkZGRiIgcng9IjMiIHJ5PSIzIiBzdHlsZT0ic3Ryb2tlOiMwMDAwMDA7c3Ryb2tlLXdpZHRoOjE7Ii8+PHRleHQgZmlsbD0iIzAwMDAwMCIgZm9udC1mYW1pbHk9IlZlcmRhbmEiIGZvbnQtc2l6ZT0iMTQiIGxlbmd0aEFkanVzdD0ic3BhY2luZyIgdGV4dExlbmd0aD0iMjQ1IiB4PSIzMjU0LjUiIHk9IjI3NS4yMzQ0Ij5wcm9jZXNzT3JkZXIob3JkZXI6IE9yZGVyKTogYm9vbGVhbjwvdGV4dD48ZWxsaXBzZSBjeD0iMzI0Ny41IiBjeT0iMjg1Ljk3NjYiIGZpbGw9IiNGRkZGRkYiIHJ4PSIzIiByeT0iMyIgc3R5bGU9InN0cm9rZTojMDAwMDAwO3N0cm9rZS13aWR0aDoxOyIvPjx0ZXh0IGZpbGw9IiMwMDAwMDAiIGZvbnQtZmFtaWx5PSJWZXJkYW5hIiBmb250LXNpemU9IjE0IiBsZW5ndGhBZGp1c3Q9InNwYWNpbmciIHRleHRMZW5ndGg9IjQ0OCIgeD0iMzI1NC41IiB5PSIyOTAuMjE4OCI+dXBkYXRlT3JkZXJTdGF0dXMob3JkZXJJZDogU3RyaW5nLCBzdGF0dXM6IE9yZGVyU3RhdHVzKTogYm9vbGVhbjwvdGV4dD48L2c+PCEtLWNsYXNzIElTdHVkZW50UmVwb3NpdG9yeS0tPjxnIGNsYXNzPSJlbnRpdHkiIGRhdGEtZW50aXR5PSJJU3R1ZGVudFJlcG9zaXRvcnkiIGRhdGEtc291cmNlLWxpbmU9IjE3MiIgZGF0YS11aWQ9ImVudDAwMjMiIGlkPSJlbnRpdHlfSVN0dWRlbnRSZXBvc2l0b3J5Ij48cmVjdCBmaWxsPSIjRkZGRkZGIiBoZWlnaHQ9IjczLjk2ODgiIHJ4PSIyLjUiIHJ5PSIyLjUiIHN0eWxlPSJzdHJva2U6IzAwMDAwMDtzdHJva2Utd2lkdGg6MTsiIHdpZHRoPSIzMDQiIHg9IjM3NDMuNSIgeT0iMjIyIi8+PGVsbGlwc2UgY3g9IjM4MjguNzUiIGN5PSIyMzYiIGZpbGw9IiNGRkZGRkYiIHJ4PSI5IiByeT0iOSIgc3R5bGU9InN0cm9rZTojMDAwMDAwO3N0cm9rZS13aWR0aDoxOyIvPjxwYXRoIGQ9Ik0zODMxLjg3NSwyNDIgTDM4MzEuODc1LDI0MC4yNSBMMzgyOS43NSwyNDAuMjUgUTM4MjkuNzUsMjQwLjI1IDM4MjkuNzUsMjMyLjQzNzUgTDM4MzEuODc1LDIzMi40Mzc1IEwzODMxLjg3NSwyMzAuNjg3NSBMMzgyNS44NzUsMjMwLjY4NzUgTDM4MjUuODc1LDIzMi40Mzc1IEwzODI4LDIzMi40Mzc1IFEzODI4LDIzMi40Mzc1IDM4MjgsMjQwLjI1IEwzODI1Ljg3NSwyNDAuMjUgTDM4MjUuODc1LDI0MiBMMzgzMS44NzUsMjQyIFogIiBmaWxsPSIjMDAwMDAwIi8+PHRleHQgZmlsbD0iIzAwMDAwMCIgZm9udC1mYW1pbHk9IlZlcmRhbmEiIGZvbnQtc2l6ZT0iMTQiIGZvbnQtc3R5bGU9Iml0YWxpYyIgbGVuZ3RoQWRqdXN0PSJzcGFjaW5nIiB0ZXh0TGVuZ3RoPSIxMjYiIHg9IjM4NDYuMjUiIHk9IjI0MS43NDIyIj5JU3R1ZGVudFJlcG9zaXRvcnk8L3RleHQ+PGxpbmUgc3R5bGU9InN0cm9rZTojMDAwMDAwO3N0cm9rZS13aWR0aDoxOyIgeDE9IjM3NDQuNSIgeDI9IjQwNDYuNSIgeTE9IjI1MCIgeTI9IjI1MCIvPjxsaW5lIHN0eWxlPSJzdHJva2U6IzAwMDAwMDtzdHJva2Utd2lkdGg6MTsiIHgxPSIzNzQ0LjUiIHgyPSI0MDQ2LjUiIHkxPSIyNTgiIHkyPSIyNTgiLz48ZWxsaXBzZSBjeD0iMzc1NC41IiBjeT0iMjcwLjk5MjIiIGZpbGw9IiNGRkZGRkYiIHJ4PSIzIiByeT0iMyIgc3R5bGU9InN0cm9rZTojMDAwMDAwO3N0cm9rZS13aWR0aDoxOyIvPjx0ZXh0IGZpbGw9IiMwMDAwMDAiIGZvbnQtZmFtaWx5PSJWZXJkYW5hIiBmb250LXNpemU9IjE0IiBsZW5ndGhBZGp1c3Q9InNwYWNpbmciIHRleHRMZW5ndGg9IjI2NiIgeD0iMzc2MS41IiB5PSIyNzUuMjM0NCI+Z2V0U3R1ZGVudChzdHVkZW50SWQ6IFN0cmluZyk6IFN0dWRlbnQ8L3RleHQ+PGVsbGlwc2UgY3g9IjM3NTQuNSIgY3k9IjI4NS45NzY2IiBmaWxsPSIjRkZGRkZGIiByeD0iMyIgcnk9IjMiIHN0eWxlPSJzdHJva2U6IzAwMDAwMDtzdHJva2Utd2lkdGg6MTsiLz48dGV4dCBmaWxsPSIjMDAwMDAwIiBmb250LWZhbWlseT0iVmVyZGFuYSIgZm9udC1zaXplPSIxNCIgbGVuZ3RoQWRqdXN0PSJzcGFjaW5nIiB0ZXh0TGVuZ3RoPSIyODAiIHg9IjM3NjEuNSIgeT0iMjkwLjIxODgiPnVwZGF0ZVN0dWRlbnQoc3R1ZGVudDogU3R1ZGVudCk6IGJvb2xlYW48L3RleHQ+PC9nPjwhLS1jbGFzcyBJUGF5bWVudFByb2Nlc3Nvci0tPjxnIGNsYXNzPSJlbnRpdHkiIGRhdGEtZW50aXR5PSJJUGF5bWVudFByb2Nlc3NvciIgZGF0YS1zb3VyY2UtbGluZT0iMTc3IiBkYXRhLXVpZD0iZW50MDAyNCIgaWQ9ImVudGl0eV9JUGF5bWVudFByb2Nlc3NvciI+PHJlY3QgZmlsbD0iI0ZGRkZGRiIgaGVpZ2h0PSI3My45Njg4IiByeD0iMi41IiByeT0iMi41IiBzdHlsZT0ic3Ryb2tlOiMwMDAwMDA7c3Ryb2tlLXdpZHRoOjE7IiB3aWR0aD0iMzExIiB4PSI0MDgzIiB5PSIyMjIiLz48ZWxsaXBzZSBjeD0iNDE3NS4yNSIgY3k9IjIzNiIgZmlsbD0iI0ZGRkZGRiIgcng9IjkiIHJ5PSI5IiBzdHlsZT0ic3Ryb2tlOiMwMDAwMDA7c3Ryb2tlLXdpZHRoOjE7Ii8+PHBhdGggZD0iTTQxNzguMzc1LDI0MiBMNDE3OC4zNzUsMjQwLjI1IEw0MTc2LjI1LDI0MC4yNSBRNDE3Ni4yNSwyNDAuMjUgNDE3Ni4yNSwyMzIuNDM3NSBMNDE3OC4zNzUsMjMyLjQzNzUgTDQxNzguMzc1LDIzMC42ODc1IEw0MTcyLjM3NSwyMzAuNjg3NSBMNDE3Mi4zNzUsMjMyLjQzNzUgTDQxNzQuNSwyMzIuNDM3NSBRNDE3NC41LDIzMi40Mzc1IDQxNzQuNSwyNDAuMjUgTDQxNzIuMzc1LDI0MC4yNSBMNDE3Mi4zNzUsMjQyIEw0MTc4LjM3NSwyNDIgWiAiIGZpbGw9IiMwMDAwMDAiLz48dGV4dCBmaWxsPSIjMDAwMDAwIiBmb250LWZhbWlseT0iVmVyZGFuYSIgZm9udC1zaXplPSIxNCIgZm9udC1zdHlsZT0iaXRhbGljIiBsZW5ndGhBZGp1c3Q9InNwYWNpbmciIHRleHRMZW5ndGg9IjExOSIgeD0iNDE5Mi43NSIgeT0iMjQxLjc0MjIiPklQYXltZW50UHJvY2Vzc29yPC90ZXh0PjxsaW5lIHN0eWxlPSJzdHJva2U6IzAwMDAwMDtzdHJva2Utd2lkdGg6MTsiIHgxPSI0MDg0IiB4Mj0iNDM5MyIgeTE9IjI1MCIgeTI9IjI1MCIvPjxsaW5lIHN0eWxlPSJzdHJva2U6IzAwMDAwMDtzdHJva2Utd2lkdGg6MTsiIHgxPSI0MDg0IiB4Mj0iNDM5MyIgeTE9IjI1OCIgeTI9IjI1OCIvPjxlbGxpcHNlIGN4PSI0MDk0IiBjeT0iMjcwLjk5MjIiIGZpbGw9IiNGRkZGRkYiIHJ4PSIzIiByeT0iMyIgc3R5bGU9InN0cm9rZTojMDAwMDAwO3N0cm9rZS13aWR0aDoxOyIvPjx0ZXh0IGZpbGw9IiMwMDAwMDAiIGZvbnQtZmFtaWx5PSJWZXJkYW5hIiBmb250LXNpemU9IjE0IiBsZW5ndGhBZGp1c3Q9InNwYWNpbmciIHRleHRMZW5ndGg9IjI4NyIgeD0iNDEwMSIgeT0iMjc1LjIzNDQiPnByb2Nlc3NQYXltZW50KHBheW1lbnQ6IFBheW1lbnQpOiBib29sZWFuPC90ZXh0PjxlbGxpcHNlIGN4PSI0MDk0IiBjeT0iMjg1Ljk3NjYiIGZpbGw9IiNGRkZGRkYiIHJ4PSIzIiByeT0iMyIgc3R5bGU9InN0cm9rZTojMDAwMDAwO3N0cm9rZS13aWR0aDoxOyIvPjx0ZXh0IGZpbGw9IiMwMDAwMDAiIGZvbnQtZmFtaWx5PSJWZXJkYW5hIiBmb250LXNpemU9IjE0IiBsZW5ndGhBZGp1c3Q9InNwYWNpbmciIHRleHRMZW5ndGg9IjI4NyIgeD0iNDEwMSIgeT0iMjkwLjIxODgiPnJlZnVuZFBheW1lbnQocGF5bWVudElkOiBTdHJpbmcpOiBib29sZWFuPC90ZXh0PjwvZz48IS0tY2xhc3MgSU9yZGVyQ2FsY3VsYXRvci0tPjxnIGNsYXNzPSJlbnRpdHkiIGRhdGEtZW50aXR5PSJJT3JkZXJDYWxjdWxhdG9yIiBkYXRhLXNvdXJjZS1saW5lPSIxODIiIGRhdGEtdWlkPSJlbnQwMDI1IiBpZD0iZW50aXR5X0lPcmRlckNhbGN1bGF0b3IiPjxyZWN0IGZpbGw9IiNGRkZGRkYiIGhlaWdodD0iNTguOTg0NCIgcng9IjIuNSIgcnk9IjIuNSIgc3R5bGU9InN0cm9rZTojMDAwMDAwO3N0cm9rZS13aWR0aDoxOyIgd2lkdGg9IjE5MiIgeD0iMjE4OS41IiB5PSIxMzA1LjUiLz48ZWxsaXBzZSBjeD0iMjIyNS45IiBjeT0iMTMxOS41IiBmaWxsPSIjRkZGRkZGIiByeD0iOSIgcnk9IjkiIHN0eWxlPSJzdHJva2U6IzAwMDAwMDtzdHJva2Utd2lkdGg6MTsiLz48cGF0aCBkPSJNMjIyOS4wMjUsMTMyNS41IEwyMjI5LjAyNSwxMzIzLjc1IEwyMjI2LjksMTMyMy43NSBRMjIyNi45LDEzMjMuNzUgMjIyNi45LDEzMTUuOTM3NSBMMjIyOS4wMjUsMTMxNS45Mzc1IEwyMjI5LjAyNSwxMzE0LjE4NzUgTDIyMjMuMDI1LDEzMTQuMTg3NSBMMjIyMy4wMjUsMTMxNS45Mzc1IEwyMjI1LjE1LDEzMTUuOTM3NSBRMjIyNS4xNSwxMzE1LjkzNzUgMjIyNS4xNSwxMzIzLjc1IEwyMjIzLjAyNSwxMzIzLjc1IEwyMjIzLjAyNSwxMzI1LjUgTDIyMjkuMDI1LDEzMjUuNSBaICIgZmlsbD0iIzAwMDAwMCIvPjx0ZXh0IGZpbGw9IiMwMDAwMDAiIGZvbnQtZmFtaWx5PSJWZXJkYW5hIiBmb250LXNpemU9IjE0IiBmb250LXN0eWxlPSJpdGFsaWMiIGxlbmd0aEFkanVzdD0ic3BhY2luZyIgdGV4dExlbmd0aD0iMTEyIiB4PSIyMjQzLjEiIHk9IjEzMjUuMjQyMiI+SU9yZGVyQ2FsY3VsYXRvcjwvdGV4dD48bGluZSBzdHlsZT0ic3Ryb2tlOiMwMDAwMDA7c3Ryb2tlLXdpZHRoOjE7IiB4MT0iMjE5MC41IiB4Mj0iMjM4MC41IiB5MT0iMTMzMy41IiB5Mj0iMTMzMy41Ii8+PGxpbmUgc3R5bGU9InN0cm9rZTojMDAwMDAwO3N0cm9rZS13aWR0aDoxOyIgeDE9IjIxOTAuNSIgeDI9IjIzODAuNSIgeTE9IjEzNDEuNSIgeTI9IjEzNDEuNSIvPjxlbGxpcHNlIGN4PSIyMjAwLjUiIGN5PSIxMzU0LjQ5MjIiIGZpbGw9IiNGRkZGRkYiIHJ4PSIzIiByeT0iMyIgc3R5bGU9InN0cm9rZTojMDAwMDAwO3N0cm9rZS13aWR0aDoxOyIvPjx0ZXh0IGZpbGw9IiMwMDAwMDAiIGZvbnQtZmFtaWx5PSJWZXJkYW5hIiBmb250LXNpemU9IjE0IiBsZW5ndGhBZGp1c3Q9InNwYWNpbmciIHRleHRMZW5ndGg9IjE2OCIgeD0iMjIwNy41IiB5PSIxMzU4LjczNDQiPmNhbGN1bGF0ZVRvdGFsKCk6IGRvdWJsZTwvdGV4dD48L2c+PCEtLWNsYXNzIElPcmRlckl0ZW1zLS0+PGcgY2xhc3M9ImVudGl0eSIgZGF0YS1lbnRpdHk9IklPcmRlckl0ZW1zIiBkYXRhLXNvdXJjZS1saW5lPSIxODYiIGRhdGEtdWlkPSJlbnQwMDI2IiBpZD0iZW50aXR5X0lPcmRlckl0ZW1zIj48cmVjdCBmaWxsPSIjRkZGRkZGIiBoZWlnaHQ9Ijg4Ljk1MzEiIHJ4PSIyLjUiIHJ5PSIyLjUiIHN0eWxlPSJzdHJva2U6IzAwMDAwMDtzdHJva2Utd2lkdGg6MTsiIHdpZHRoPSIyNjkiIHg9IjgyOCIgeT0iMTI5MC41Ii8+PGVsbGlwc2UgY3g9IjkyMC4yNSIgY3k9IjEzMDQuNSIgZmlsbD0iI0ZGRkZGRiIgcng9IjkiIHJ5PSI5IiBzdHlsZT0ic3Ryb2tlOiMwMDAwMDA7c3Ryb2tlLXdpZHRoOjE7Ii8+PHBhdGggZD0iTTkyMy4zNzUsMTMxMC41IEw5MjMuMzc1LDEzMDguNzUgTDkyMS4yNSwxMzA4Ljc1IFE5MjEuMjUsMTMwOC43NSA5MjEuMjUsMTMwMC45Mzc1IEw5MjMuMzc1LDEzMDAuOTM3NSBMOTIzLjM3NSwxMjk5LjE4NzUgTDkxNy4zNzUsMTI5OS4xODc1IEw5MTcuMzc1LDEzMDAuOTM3NSBMOTE5LjUsMTMwMC45Mzc1IFE5MTkuNSwxMzAwLjkzNzUgOTE5LjUsMTMwOC43NSBMOTE3LjM3NSwxMzA4Ljc1IEw5MTcuMzc1LDEzMTAuNSBMOTIzLjM3NSwxMzEwLjUgWiAiIGZpbGw9IiMwMDAwMDAiLz48dGV4dCBmaWxsPSIjMDAwMDAwIiBmb250LWZhbWlseT0iVmVyZGFuYSIgZm9udC1zaXplPSIxNCIgZm9udC1zdHlsZT0iaXRhbGljIiBsZW5ndGhBZGp1c3Q9InNwYWNpbmciIHRleHRMZW5ndGg9Ijc3IiB4PSI5MzcuNzUiIHk9IjEzMTAuMjQyMiI+SU9yZGVySXRlbXM8L3RleHQ+PGxpbmUgc3R5bGU9InN0cm9rZTojMDAwMDAwO3N0cm9rZS13aWR0aDoxOyIgeDE9IjgyOSIgeDI9IjEwOTYiIHkxPSIxMzE4LjUiIHkyPSIxMzE4LjUiLz48bGluZSBzdHlsZT0ic3Ryb2tlOiMwMDAwMDA7c3Ryb2tlLXdpZHRoOjE7IiB4MT0iODI5IiB4Mj0iMTA5NiIgeTE9IjEzMjYuNSIgeTI9IjEzMjYuNSIvPjxlbGxpcHNlIGN4PSI4MzkiIGN5PSIxMzM5LjQ5MjIiIGZpbGw9IiNGRkZGRkYiIHJ4PSIzIiByeT0iMyIgc3R5bGU9InN0cm9rZTojMDAwMDAwO3N0cm9rZS13aWR0aDoxOyIvPjx0ZXh0IGZpbGw9IiMwMDAwMDAiIGZvbnQtZmFtaWx5PSJWZXJkYW5hIiBmb250LXNpemU9IjE0IiBsZW5ndGhBZGp1c3Q9InNwYWNpbmciIHRleHRMZW5ndGg9IjIwMyIgeD0iODQ2IiB5PSIxMzQzLjczNDQiPmFkZEl0ZW0oaXRlbTogTWVudUl0ZW0pOiB2b2lkPC90ZXh0PjxlbGxpcHNlIGN4PSI4MzkiIGN5PSIxMzU0LjQ3NjYiIGZpbGw9IiNGRkZGRkYiIHJ4PSIzIiByeT0iMyIgc3R5bGU9InN0cm9rZTojMDAwMDAwO3N0cm9rZS13aWR0aDoxOyIvPjx0ZXh0IGZpbGw9IiMwMDAwMDAiIGZvbnQtZmFtaWx5PSJWZXJkYW5hIiBmb250LXNpemU9IjE0IiBsZW5ndGhBZGp1c3Q9InNwYWNpbmciIHRleHRMZW5ndGg9IjI0NSIgeD0iODQ2IiB5PSIxMzU4LjcxODgiPnJlbW92ZUl0ZW0oaXRlbUlkOiBTdHJpbmcpOiBib29sZWFuPC90ZXh0PjxlbGxpcHNlIGN4PSI4MzkiIGN5PSIxMzY5LjQ2MDkiIGZpbGw9IiNGRkZGRkYiIHJ4PSIzIiByeT0iMyIgc3R5bGU9InN0cm9rZTojMDAwMDAwO3N0cm9rZS13aWR0aDoxOyIvPjx0ZXh0IGZpbGw9IiMwMDAwMDAiIGZvbnQtZmFtaWx5PSJWZXJkYW5hIiBmb250LXNpemU9IjE0IiBsZW5ndGhBZGp1c3Q9InNwYWNpbmciIHRleHRMZW5ndGg9IjE4MiIgeD0iODQ2IiB5PSIxMzczLjcwMzEiPmdldEl0ZW1zKCk6IExpc3QmbHQ7TWVudUl0ZW0mZ3Q7PC90ZXh0PjwvZz48ZyBjbGFzcz0iZW50aXR5IiBkYXRhLWVudGl0eT0iR01ONDkiIGRhdGEtc291cmNlLWxpbmU9IjIyNiIgZGF0YS11aWQ9ImVudDAwNTAiIGlkPSJlbnRpdHlfR01ONDkiPjxwYXRoIGQ9Ik0yMTI5LDQ1LjUgTDIxMjksOTcuMjQyMiBBMCwwIDAgMCAwIDIxMjksOTcuMjQyMiBMMjIzNi41LDk3LjI0MjIgTDIyNDAuNSwxOTEuOTUgTDIyNDQuNSw5Ny4yNDIyIEwyMzUxLjUsOTcuMjQyMiBBMCwwIDAgMCAwIDIzNTEuNSw5Ny4yNDIyIEwyMzUxLjUsNTUuNSBMMjM0MS41LDQ1LjUgTDIxMjksNDUuNSBBMCwwIDAgMCAwIDIxMjksNDUuNSIgZmlsbD0iI0ZGRkZGRiIgc3R5bGU9InN0cm9rZTojMDAwMDAwO3N0cm9rZS13aWR0aDoxOyIvPjxwYXRoIGQ9Ik0yMzQxLjUsNDUuNSBMMjM0MS41LDU1LjUgTDIzNTEuNSw1NS41IEwyMzQxLjUsNDUuNSIgZmlsbD0iI0ZGRkZGRiIgc3R5bGU9InN0cm9rZTojMDAwMDAwO3N0cm9rZS13aWR0aDoxOyIvPjx0ZXh0IGZpbGw9IiMwMDAwMDAiIGZvbnQtZmFtaWx5PSJWZXJkYW5hIiBmb250LXNpemU9IjEzIiBsZW5ndGhBZGp1c3Q9InNwYWNpbmciIHRleHRMZW5ndGg9IjIwMS41IiB4PSIyMTM1IiB5PSI2Mi43ODkxIj5CYXNlIGNsYXNzIGZvciBhbGwgc3lzdGVtIHVzZXJzPC90ZXh0Pjx0ZXh0IGZpbGw9IiMwMDAwMDAiIGZvbnQtZmFtaWx5PSJWZXJkYW5hIiBmb250LXNpemU9IjEzIiBsZW5ndGhBZGp1c3Q9InNwYWNpbmciIHRleHRMZW5ndGg9IjE5NSIgeD0iMjEzNSIgeT0iNzYuNzAzMSI+VXNlcyByb2xlLWJhc2VkIGFjY2VzcyBjb250cm9sPC90ZXh0Pjx0ZXh0IGZpbGw9IiMwMDAwMDAiIGZvbnQtZmFtaWx5PSJWZXJkYW5hIiBmb250LXNpemU9IjEzIiBsZW5ndGhBZGp1c3Q9InNwYWNpbmciIHRleHRMZW5ndGg9IjE2Mi41IiB4PSIyMTM1IiB5PSI5MC42MTcyIj5JbXBsZW1lbnRzIGF1dGhlbnRpY2F0aW9uPC90ZXh0PjwvZz48ZyBjbGFzcz0iZW50aXR5IiBkYXRhLWVudGl0eT0iR01ONTIiIGRhdGEtc291cmNlLWxpbmU9IjIzMiIgZGF0YS11aWQ9ImVudDAwNTMiIGlkPSJlbnRpdHlfR01ONTIiPjxwYXRoIGQ9Ik0xNTQ4LjUsODMxIEwxNTQ4LjUsODUzIEwxNTEzLjczLDg1NyBMMTU0OC41LDg2MSBMMTU0OC41LDg4Mi43NDIyIEEwLDAgMCAwIDAgMTU0OC41LDg4Mi43NDIyIEwxODQ5LDg4Mi43NDIyIEEwLDAgMCAwIDAgMTg0OSw4ODIuNzQyMiBMMTg0OSw4NDEgTDE4MzksODMxIEwxNTQ4LjUsODMxIEEwLDAgMCAwIDAgMTU0OC41LDgzMSIgZmlsbD0iI0ZGRkZGRiIgc3R5bGU9InN0cm9rZTojMDAwMDAwO3N0cm9rZS13aWR0aDoxOyIvPjxwYXRoIGQ9Ik0xODM5LDgzMSBMMTgzOSw4NDEgTDE4NDksODQxIEwxODM5LDgzMSIgZmlsbD0iI0ZGRkZGRiIgc3R5bGU9InN0cm9rZTojMDAwMDAwO3N0cm9rZS13aWR0aDoxOyIvPjx0ZXh0IGZpbGw9IiMwMDAwMDAiIGZvbnQtZmFtaWx5PSJWZXJkYW5hIiBmb250LXNpemU9IjEzIiBsZW5ndGhBZGp1c3Q9InNwYWNpbmciIHRleHRMZW5ndGg9IjI3OS41IiB4PSIxNTU0LjUiIHk9Ijg0OC4yODkxIj5Ob3cgZm9sbG93cyBTaW5nbGUgUmVzcG9uc2liaWxpdHkgUHJpbmNpcGxlPC90ZXh0Pjx0ZXh0IGZpbGw9IiMwMDAwMDAiIGZvbnQtZmFtaWx5PSJWZXJkYW5hIiBmb250LXNpemU9IjEzIiBsZW5ndGhBZGp1c3Q9InNwYWNpbmciIHRleHRMZW5ndGg9IjI3MyIgeD0iMTU1NC41IiB5PSI4NjIuMjAzMSI+RWFjaCBhc3BlY3Qgb2Ygb3JkZXIgbWFuYWdlbWVudCBpcyBoYW5kbGVkPC90ZXh0Pjx0ZXh0IGZpbGw9IiMwMDAwMDAiIGZvbnQtZmFtaWx5PSJWZXJkYW5hIiBmb250LXNpemU9IjEzIiBsZW5ndGhBZGp1c3Q9InNwYWNpbmciIHRleHRMZW5ndGg9IjIwMS41IiB4PSIxNTU0LjUiIHk9Ijg3Ni4xMTcyIj5ieSBhIHNlcGFyYXRlIHNwZWNpYWxpemVkIGNsYXNzPC90ZXh0PjwvZz48ZyBjbGFzcz0iZW50aXR5IiBkYXRhLWVudGl0eT0iR01ONTUiIGRhdGEtc291cmNlLWxpbmU9IjIzOCIgZGF0YS11aWQ9ImVudDAwNTYiIGlkPSJlbnRpdHlfR01ONTUiPjxwYXRoIGQ9Ik0xMSwxMzA5IEwxMSwxMzYwLjc0MjIgQTAsMCAwIDAgMCAxMSwxMzYwLjc0MjIgTDI0MCwxMzYwLjc0MjIgQTAsMCAwIDAgMCAyNDAsMTM2MC43NDIyIEwyNDAsMTMzOSBMMjc0LjczLDEzMzUgTDI0MCwxMzMxIEwyNDAsMTMxOSBMMjMwLDEzMDkgTDExLDEzMDkgQTAsMCAwIDAgMCAxMSwxMzA5IiBmaWxsPSIjRkZGRkZGIiBzdHlsZT0ic3Ryb2tlOiMwMDAwMDA7c3Ryb2tlLXdpZHRoOjE7Ii8+PHBhdGggZD0iTTIzMCwxMzA5IEwyMzAsMTMxOSBMMjQwLDEzMTkgTDIzMCwxMzA5IiBmaWxsPSIjRkZGRkZGIiBzdHlsZT0ic3Ryb2tlOiMwMDAwMDA7c3Ryb2tlLXdpZHRoOjE7Ii8+PHRleHQgZmlsbD0iIzAwMDAwMCIgZm9udC1mYW1pbHk9IlZlcmRhbmEiIGZvbnQtc2l6ZT0iMTMiIGxlbmd0aEFkanVzdD0ic3BhY2luZyIgdGV4dExlbmd0aD0iMTU2IiB4PSIxNyIgeT0iMTMyNi4yODkxIj5Gb2xsb3dzIFN0cmF0ZWd5IFBhdHRlcm48L3RleHQ+PHRleHQgZmlsbD0iIzAwMDAwMCIgZm9udC1mYW1pbHk9IlZlcmRhbmEiIGZvbnQtc2l6ZT0iMTMiIGxlbmd0aEFkanVzdD0ic3BhY2luZyIgdGV4dExlbmd0aD0iMTY5IiB4PSIxNyIgeT0iMTM0MC4yMDMxIj5mb3IgZGlmZmVyZW50IHJld2FyZCB0eXBlczwvdGV4dD48dGV4dCBmaWxsPSIjMDAwMDAwIiBmb250LWZhbWlseT0iVmVyZGFuYSIgZm9udC1zaXplPSIxMyIgbGVuZ3RoQWRqdXN0PSJzcGFjaW5nIiB0ZXh0TGVuZ3RoPSIyMDgiIHg9IjE3IiB5PSIxMzU0LjExNzIiPkNvbmZpZ3VyYWJsZSBwb2ludHMgcGVyIGN1cnJlbmN5PC90ZXh0PjwvZz48ZyBjbGFzcz0iZW50aXR5IiBkYXRhLWVudGl0eT0iR01ONTgiIGRhdGEtc291cmNlLWxpbmU9IjI0NCIgZGF0YS11aWQ9ImVudDAwNTkiIGlkPSJlbnRpdHlfR01ONTgiPjxwYXRoIGQ9Ik02MzguNSwxMDcwIEw2MzguNSwxMDkyIEw2MDMuNTQsMTA5NiBMNjM4LjUsMTEwMCBMNjM4LjUsMTEyMS43NDIyIEEwLDAgMCAwIDAgNjM4LjUsMTEyMS43NDIyIEw4ODAuNSwxMTIxLjc0MjIgQTAsMCAwIDAgMCA4ODAuNSwxMTIxLjc0MjIgTDg4MC41LDEwODAgTDg3MC41LDEwNzAgTDYzOC41LDEwNzAgQTAsMCAwIDAgMCA2MzguNSwxMDcwIiBmaWxsPSIjRkZGRkZGIiBzdHlsZT0ic3Ryb2tlOiMwMDAwMDA7c3Ryb2tlLXdpZHRoOjE7Ii8+PHBhdGggZD0iTTg3MC41LDEwNzAgTDg3MC41LDEwODAgTDg4MC41LDEwODAgTDg3MC41LDEwNzAiIGZpbGw9IiNGRkZGRkYiIHN0eWxlPSJzdHJva2U6IzAwMDAwMDtzdHJva2Utd2lkdGg6MTsiLz48dGV4dCBmaWxsPSIjMDAwMDAwIiBmb250LWZhbWlseT0iVmVyZGFuYSIgZm9udC1zaXplPSIxMyIgbGVuZ3RoQWRqdXN0PSJzcGFjaW5nIiB0ZXh0TGVuZ3RoPSIxOTUiIHg9IjY0NC41IiB5PSIxMDg3LjI4OTEiPkhhbmRsZXMgYWxsIHBheW1lbnQgcHJvY2Vzc2luZzwvdGV4dD48dGV4dCBmaWxsPSIjMDAwMDAwIiBmb250LWZhbWlseT0iVmVyZGFuYSIgZm9udC1zaXplPSIxMyIgbGVuZ3RoQWRqdXN0PSJzcGFjaW5nIiB0ZXh0TGVuZ3RoPSIyMjEiIHg9IjY0NC41IiB5PSIxMTAxLjIwMzEiPkNvbm5lY3RzIE9yZGVyIHdpdGggTG95YWx0eVByb2dyYW08L3RleHQ+PHRleHQgZmlsbD0iIzAwMDAwMCIgZm9udC1mYW1pbHk9IlZlcmRhbmEiIGZvbnQtc2l6ZT0iMTMiIGxlbmd0aEFkanVzdD0ic3BhY2luZyIgdGV4dExlbmd0aD0iMjE0LjUiIHg9IjY0NC41IiB5PSIxMTE1LjExNzIiPlN1cHBvcnRzIG11bHRpcGxlIHBheW1lbnQgbWV0aG9kczwvdGV4dD48L2c+PGcgY2xhc3M9ImVudGl0eSIgZGF0YS1lbnRpdHk9IkdNTjYxIiBkYXRhLXNvdXJjZS1saW5lPSIyNTAiIGRhdGEtdWlkPSJlbnQwMDYyIiBpZD0iZW50aXR5X0dNTjYxIj48cGF0aCBkPSJNNDQyOSwyMzMgTDQ0MjksMjg0Ljc0MjIgTDQ2MzguNSwyODQuNzQyMiBMNDYzOC41LDI0MyBMNDYyOC41LDIzMyBMNDQyOSwyMzMiIGZpbGw9IiNGRkZGRkYiIHN0eWxlPSJzdHJva2U6IzAwMDAwMDtzdHJva2Utd2lkdGg6MTsiLz48cGF0aCBkPSJNNDYyOC41LDIzMyBMNDYyOC41LDI0MyBMNDYzOC41LDI0MyBMNDYyOC41LDIzMyIgZmlsbD0iI0ZGRkZGRiIgc3R5bGU9InN0cm9rZTojMDAwMDAwO3N0cm9rZS13aWR0aDoxOyIvPjx0ZXh0IGZpbGw9IiMwMDAwMDAiIGZvbnQtZmFtaWx5PSJWZXJkYW5hIiBmb250LXNpemU9IjEzIiBsZW5ndGhBZGp1c3Q9InNwYWNpbmciIHRleHRMZW5ndGg9IjE3NS41IiB4PSI0NDM1IiB5PSIyNTAuMjg5MSI+Q29yZSBidXNpbmVzcyBsb2dpYyBoYW5kbGVyPC90ZXh0Pjx0ZXh0IGZpbGw9IiMwMDAwMDAiIGZvbnQtZmFtaWx5PSJWZXJkYW5hIiBmb250LXNpemU9IjEzIiBsZW5ndGhBZGp1c3Q9InNwYWNpbmciIHRleHRMZW5ndGg9IjE4OC41IiB4PSI0NDM1IiB5PSIyNjQuMjAzMSI+RGVwZW5kcyBvbiBhYnN0cmFjdGlvbnMgKERJUCk8L3RleHQ+PHRleHQgZmlsbD0iIzAwMDAwMCIgZm9udC1mYW1pbHk9IlZlcmRhbmEiIGZvbnQtc2l6ZT0iMTMiIGxlbmd0aEFkanVzdD0ic3BhY2luZyIgdGV4dExlbmd0aD0iMTc1LjUiIHg9IjQ0MzUiIHk9IjI3OC4xMTcyIj5TaW5nbGUgcmVzcG9uc2liaWxpdHkgKFNSUCk8L3RleHQ+PC9nPjxnIGNsYXNzPSJlbnRpdHkiIGRhdGEtZW50aXR5PSJHTU42NCIgZGF0YS1zb3VyY2UtbGluZT0iMjU2IiBkYXRhLXVpZD0iZW50MDA2NSIgaWQ9ImVudGl0eV9HTU42NCI+PHBhdGggZD0iTTEyMzQsMTA3MCBMMTIzNCwxMDkyIEwxMTk5LjE3LDEwOTYgTDEyMzQsMTEwMCBMMTIzNCwxMTIxLjc0MjIgQTAsMCAwIDAgMCAxMjM0LDExMjEuNzQyMiBMMTUwOC41LDExMjEuNzQyMiBBMCwwIDAgMCAwIDE1MDguNSwxMTIxLjc0MjIgTDE1MDguNSwxMDgwIEwxNDk4LjUsMTA3MCBMMTIzNCwxMDcwIEEwLDAgMCAwIDAgMTIzNCwxMDcwIiBmaWxsPSIjRkZGRkZGIiBzdHlsZT0ic3Ryb2tlOiMwMDAwMDA7c3Ryb2tlLXdpZHRoOjE7Ii8+PHBhdGggZD0iTTE0OTguNSwxMDcwIEwxNDk4LjUsMTA4MCBMMTUwOC41LDEwODAgTDE0OTguNSwxMDcwIiBmaWxsPSIjRkZGRkZGIiBzdHlsZT0ic3Ryb2tlOiMwMDAwMDA7c3Ryb2tlLXdpZHRoOjE7Ii8+PHRleHQgZmlsbD0iIzAwMDAwMCIgZm9udC1mYW1pbHk9IlZlcmRhbmEiIGZvbnQtc2l6ZT0iMTMiIGxlbmd0aEFkanVzdD0ic3BhY2luZyIgdGV4dExlbmd0aD0iMTg4LjUiIHg9IjEyNDAiIHk9IjEwODcuMjg5MSI+UmVzcG9uc2libGUgb25seSBmb3IgbWFuYWdpbmc8L3RleHQ+PHRleHQgZmlsbD0iIzAwMDAwMCIgZm9udC1mYW1pbHk9IlZlcmRhbmEiIGZvbnQtc2l6ZT0iMTMiIGxlbmd0aEFkanVzdD0ic3BhY2luZyIgdGV4dExlbmd0aD0iMTM2LjUiIHg9IjEyNDAiIHk9IjExMDEuMjAzMSI+dGhlIGl0ZW1zIGluIGFuIG9yZGVyPC90ZXh0Pjx0ZXh0IGZpbGw9IiMwMDAwMDAiIGZvbnQtZmFtaWx5PSJWZXJkYW5hIiBmb250LXNpemU9IjEzIiBsZW5ndGhBZGp1c3Q9InNwYWNpbmciIHRleHRMZW5ndGg9IjI1My41IiB4PSIxMjQwIiB5PSIxMTE1LjExNzIiPkZvbGxvd3MgU2luZ2xlIFJlc3BvbnNpYmlsaXR5IFByaW5jaXBsZTwvdGV4dD48L2c+PGcgY2xhc3M9ImVudGl0eSIgZGF0YS1lbnRpdHk9IkdNTjY3IiBkYXRhLXNvdXJjZS1saW5lPSIyNjIiIGRhdGEtdWlkPSJlbnQwMDY4IiBpZD0iZW50aXR5X0dNTjY3Ij48cGF0aCBkPSJNMTc5MiwxMDcwIEwxNzkyLDExMjEuNzQyMiBBMCwwIDAgMCAwIDE3OTIsMTEyMS43NDIyIEwyMDY2LjUsMTEyMS43NDIyIEEwLDAgMCAwIDAgMjA2Ni41LDExMjEuNzQyMiBMMjA2Ni41LDExMDAgTDIxMDEuNzEsMTA5NiBMMjA2Ni41LDEwOTIgTDIwNjYuNSwxMDgwIEwyMDU2LjUsMTA3MCBMMTc5MiwxMDcwIEEwLDAgMCAwIDAgMTc5MiwxMDcwIiBmaWxsPSIjRkZGRkZGIiBzdHlsZT0ic3Ryb2tlOiMwMDAwMDA7c3Ryb2tlLXdpZHRoOjE7Ii8+PHBhdGggZD0iTTIwNTYuNSwxMDcwIEwyMDU2LjUsMTA4MCBMMjA2Ni41LDEwODAgTDIwNTYuNSwxMDcwIiBmaWxsPSIjRkZGRkZGIiBzdHlsZT0ic3Ryb2tlOiMwMDAwMDA7c3Ryb2tlLXdpZHRoOjE7Ii8+PHRleHQgZmlsbD0iIzAwMDAwMCIgZm9udC1mYW1pbHk9IlZlcmRhbmEiIGZvbnQtc2l6ZT0iMTMiIGxlbmd0aEFkanVzdD0ic3BhY2luZyIgdGV4dExlbmd0aD0iMjE0LjUiIHg9IjE3OTgiIHk9IjEwODcuMjg5MSI+UmVzcG9uc2libGUgb25seSBmb3IgY2FsY3VsYXRpb25zPC90ZXh0Pjx0ZXh0IGZpbGw9IiMwMDAwMDAiIGZvbnQtZmFtaWx5PSJWZXJkYW5hIiBmb250LXNpemU9IjEzIiBsZW5ndGhBZGp1c3Q9InNwYWNpbmciIHRleHRMZW5ndGg9IjE0OS41IiB4PSIxNzk4IiB5PSIxMTAxLjIwMzEiPnJlbGF0ZWQgdG8gb3JkZXIgdG90YWxzPC90ZXh0Pjx0ZXh0IGZpbGw9IiMwMDAwMDAiIGZvbnQtZmFtaWx5PSJWZXJkYW5hIiBmb250LXNpemU9IjEzIiBsZW5ndGhBZGp1c3Q9InNwYWNpbmciIHRleHRMZW5ndGg9IjI1My41IiB4PSIxNzk4IiB5PSIxMTE1LjExNzIiPkZvbGxvd3MgU2luZ2xlIFJlc3BvbnNpYmlsaXR5IFByaW5jaXBsZTwvdGV4dD48L2c+PCEtLXJldmVyc2UgbGluayBVc2VyIHRvIFN0dWRlbnQtLT48ZyBjbGFzcz0ibGluayIgZGF0YS1lbnRpdHktMT0iVXNlciIgZGF0YS1lbnRpdHktMj0iU3R1ZGVudCIgZGF0YS1zb3VyY2UtbGluZT0iMTkzIiBkYXRhLXVpZD0ibG5rMjciIGlkPSJsaW5rX1VzZXJfU3R1ZGVudCI+PHBhdGggY29kZUxpbmU9IjE5MyIgZD0iTTI0NDQuMjQxOSwzMzAuNjQ0OCBDMjUyOC44MzE5LDM2NS4zNjQ4IDI1OTMuNSw0MDIuOTcgMjU5My41LDQ0NS41IEMyNTkzLjUsNDQ1LjUgMjU5My41LDQ0NS41IDI1OTMuNSwxMzM2IEMyNTkzLjUsMTM4NS4wMSAyNTc1LjQ3LDE0MzcuMTkgMjU1Ny41OCwxNDc2LjkiIGZpbGw9Im5vbmUiIGlkPSJVc2VyLWJhY2t0by1TdHVkZW50IiBzdHlsZT0ic3Ryb2tlOiMwMDAwMDA7c3Ryb2tlLXdpZHRoOjE7Ii8+PHBvbHlnb24gZmlsbD0ibm9uZSIgcG9pbnRzPSIyNDI3LjU5LDMyMy44MSwyNDQxLjk2MzYsMzM2LjE5NTQsMjQ0Ni41MjAyLDMyNS4wOTQxLDI0MjcuNTksMzIzLjgxIiBzdHlsZT0ic3Ryb2tlOiMwMDAwMDA7c3Ryb2tlLXdpZHRoOjE7Ii8+PC9nPjwhLS1yZXZlcnNlIGxpbmsgVXNlciB0byBTdGFmZi0tPjxnIGNsYXNzPSJsaW5rIiBkYXRhLWVudGl0eS0xPSJVc2VyIiBkYXRhLWVudGl0eS0yPSJTdGFmZiIgZGF0YS1zb3VyY2UtbGluZT0iMTk0IiBkYXRhLXVpZD0ibG5rMjgiIGlkPSJsaW5rX1VzZXJfU3RhZmYiPjxwYXRoIGNvZGVMaW5lPSIxOTQiIGQ9Ik0yMDk4LjYxNzUsMzM0LjU1NTkgQzIwNjAuODk3NSwzNTQuMzg1OSAyMDM1Ljc1LDM2Ny41OSAxOTk5LjAzLDM4Ni44OSIgZmlsbD0ibm9uZSIgaWQ9IlVzZXItYmFja3RvLVN0YWZmIiBzdHlsZT0ic3Ryb2tlOiMwMDAwMDA7c3Ryb2tlLXdpZHRoOjE7Ii8+PHBvbHlnb24gZmlsbD0ibm9uZSIgcG9pbnRzPSIyMTE0LjU1LDMyNi4xOCwyMDk1LjgyNTYsMzI5LjI0NTEsMjEwMS40MDk1LDMzOS44NjY4LDIxMTQuNTUsMzI2LjE4IiBzdHlsZT0ic3Ryb2tlOiMwMDAwMDA7c3Ryb2tlLXdpZHRoOjE7Ii8+PC9nPjwhLS1yZXZlcnNlIGxpbmsgU3R1ZGVudCB0byBPcmRlci0tPjxnIGNsYXNzPSJsaW5rIiBkYXRhLWVudGl0eS0xPSJTdHVkZW50IiBkYXRhLWVudGl0eS0yPSJPcmRlciIgZGF0YS1zb3VyY2UtbGluZT0iMTk2IiBkYXRhLXVpZD0ibG5rMjkiIGlkPSJsaW5rX1N0dWRlbnRfT3JkZXIiPjxwYXRoIGNvZGVMaW5lPSIxOTYiIGQ9Ik0yNTI5LjE5MjIsMTQ2NC44MzQgQzI1MzguOTkyMiwxMzM0Ljg1NCAyNTUxLjA3LDEwNjUuMSAyNDg2LjUsOTk5IEMyNDEyLjA0LDkyMi43OSAxNjM0LjY1LDk0Ni40NiAxNTMwLjUsOTI0IEMxNTI0LjkyLDkyMi44IDE1MTkuMjgsOTIxLjQ1IDE1MTMuNjEsOTE5Ljk4IiBmaWxsPSJub25lIiBpZD0iU3R1ZGVudC1iYWNrdG8tT3JkZXIiIHN0eWxlPSJzdHJva2U6IzAwMDAwMDtzdHJva2Utd2lkdGg6MTsiLz48cG9seWdvbiBmaWxsPSIjMDAwMDAwIiBwb2ludHM9IjI1MjguMjksMTQ3Ni44LDI1MzIuNzI5OCwxNDcxLjExNzcsMjUyOS4xOTIyLDE0NjQuODM0LDI1MjQuNzUyNCwxNDcwLjUxNjMsMjUyOC4yOSwxNDc2LjgiIHN0eWxlPSJzdHJva2U6IzAwMDAwMDtzdHJva2Utd2lkdGg6MTsiLz48dGV4dCBmaWxsPSIjMDAwMDAwIiBmb250LWZhbWlseT0iVmVyZGFuYSIgZm9udC1zaXplPSIxMyIgbGVuZ3RoQWRqdXN0PSJzcGFjaW5nIiB0ZXh0TGVuZ3RoPSI2LjUiIHg9IjI1MjIuNjYwNSIgeT0iMTQ2Ny4xNjgzIj4xPC90ZXh0Pjx0ZXh0IGZpbGw9IiMwMDAwMDAiIGZvbnQtZmFtaWx5PSJWZXJkYW5hIiBmb250LXNpemU9IjEzIiBsZW5ndGhBZGp1c3Q9InNwYWNpbmciIHRleHRMZW5ndGg9IjI2IiB4PSIxNTIxLjQwODciIHk9IjkzNS40NDAyIj4wLi4qPC90ZXh0PjwvZz48IS0tcmV2ZXJzZSBsaW5rIE9yZGVyIHRvIE9yZGVySXRlbXMtLT48ZyBjbGFzcz0ibGluayIgZGF0YS1lbnRpdHktMT0iT3JkZXIiIGRhdGEtZW50aXR5LTI9Ik9yZGVySXRlbXMiIGRhdGEtc291cmNlLWxpbmU9IjE5OCIgZGF0YS11aWQ9ImxuazMwIiBpZD0ibGlua19PcmRlcl9PcmRlckl0ZW1zIj48cGF0aCBjb2RlTGluZT0iMTk4IiBkPSJNMTI2Mi4zOSw5MzEuNTA0MyBDMTIyMS4zNyw5NjQuMjM0MyAxMTgxLjMzLDk5Ni4xOCAxMTQwLjMsMTAyOC45MyIgZmlsbD0ibm9uZSIgaWQ9Ik9yZGVyLWJhY2t0by1PcmRlckl0ZW1zIiBzdHlsZT0ic3Ryb2tlOiMwMDAwMDA7c3Ryb2tlLXdpZHRoOjE7Ii8+PHBvbHlnb24gZmlsbD0iIzAwMDAwMCIgcG9pbnRzPSIxMjcxLjc3LDkyNC4wMiwxMjY0LjU4NTIsOTI0LjYzNTUsMTI2Mi4zOSw5MzEuNTA0MywxMjY5LjU3NDgsOTMwLjg4ODgsMTI3MS43Nyw5MjQuMDIiIHN0eWxlPSJzdHJva2U6IzAwMDAwMDtzdHJva2Utd2lkdGg6MTsiLz48dGV4dCBmaWxsPSIjMDAwMDAwIiBmb250LWZhbWlseT0iVmVyZGFuYSIgZm9udC1zaXplPSIxMyIgbGVuZ3RoQWRqdXN0PSJzcGFjaW5nIiB0ZXh0TGVuZ3RoPSI1MiIgeD0iMTIzNC41IiB5PSI5NjcuMjg5MSI+Y29udGFpbnM8L3RleHQ+PHRleHQgZmlsbD0iIzAwMDAwMCIgZm9udC1mYW1pbHk9IlZlcmRhbmEiIGZvbnQtc2l6ZT0iMTMiIGxlbmd0aEFkanVzdD0ic3BhY2luZyIgdGV4dExlbmd0aD0iNi41IiB4PSIxMjU2LjQyMDYiIHk9Ijk0NC40MDU0Ij4xPC90ZXh0Pjx0ZXh0IGZpbGw9IiMwMDAwMDAiIGZvbnQtZmFtaWx5PSJWZXJkYW5hIiBmb250LXNpemU9IjEzIiBsZW5ndGhBZGp1c3Q9InNwYWNpbmciIHRleHRMZW5ndGg9IjYuNSIgeD0iMTE0NC4wNTYxIiB5PSIxMDE5LjMxNDEiPjE8L3RleHQ+PC9nPjwhLS1yZXZlcnNlIGxpbmsgT3JkZXIgdG8gT3JkZXJDYWxjdWxhdG9yLS0+PGcgY2xhc3M9ImxpbmsiIGRhdGEtZW50aXR5LTE9Ik9yZGVyIiBkYXRhLWVudGl0eS0yPSJPcmRlckNhbGN1bGF0b3IiIGRhdGEtc291cmNlLWxpbmU9IjE5OSIgZGF0YS11aWQ9ImxuazMxIiBpZD0ibGlua19PcmRlcl9PcmRlckNhbGN1bGF0b3IiPjxwYXRoIGNvZGVMaW5lPSIxOTkiIGQ9Ik0xNTI1LjI2NDQsOTIyLjc2NSBDMTUzMC45MDQ0LDkyNC4zNjUgMTUyNC45Niw5MjIuNjEgMTUzMC41LDkyNCBDMTc3MS40NSw5ODQuNjcgMTg0Ni40MSw5MjcuOTMgMjA4NC41LDk5OSBDMjExMC41MywxMDA2Ljc3IDIxMzcuNDEsMTAxNy41MSAyMTYyLjcyLDEwMjguOTkiIGZpbGw9Im5vbmUiIGlkPSJPcmRlci1iYWNrdG8tT3JkZXJDYWxjdWxhdG9yIiBzdHlsZT0ic3Ryb2tlOiMwMDAwMDA7c3Ryb2tlLXdpZHRoOjE7Ii8+PHBvbHlnb24gZmlsbD0iIzAwMDAwMCIgcG9pbnRzPSIxNTEzLjcyLDkxOS40OSwxNTE4LjQwMDUsOTI0Ljk3NTcsMTUyNS4yNjQ0LDkyMi43NjUsMTUyMC41ODM5LDkxNy4yNzk0LDE1MTMuNzIsOTE5LjQ5IiBzdHlsZT0ic3Ryb2tlOiMwMDAwMDA7c3Ryb2tlLXdpZHRoOjE7Ii8+PHRleHQgZmlsbD0iIzAwMDAwMCIgZm9udC1mYW1pbHk9IlZlcmRhbmEiIGZvbnQtc2l6ZT0iMTMiIGxlbmd0aEFkanVzdD0ic3BhY2luZyIgdGV4dExlbmd0aD0iMjYiIHg9IjE5NDkuNSIgeT0iOTY3LjI4OTEiPnVzZXM8L3RleHQ+PHRleHQgZmlsbD0iIzAwMDAwMCIgZm9udC1mYW1pbHk9IlZlcmRhbmEiIGZvbnQtc2l6ZT0iMTMiIGxlbmd0aEFkanVzdD0ic3BhY2luZyIgdGV4dExlbmd0aD0iNi41IiB4PSIxNTIxLjU4OTYiIHk9IjkyMS41MTU1Ij4xPC90ZXh0Pjx0ZXh0IGZpbGw9IiMwMDAwMDAiIGZvbnQtZmFtaWx5PSJWZXJkYW5hIiBmb250LXNpemU9IjEzIiBsZW5ndGhBZGp1c3Q9InNwYWNpbmciIHRleHRMZW5ndGg9IjYuNSIgeD0iMjE0MS40MjEiIHk9IjEwMTkuMzgxNCI+MTwvdGV4dD48L2c+PCEtLXJldmVyc2UgbGluayBPcmRlciB0byBPcmRlckNvbmZpcm1hdGlvbi0tPjxnIGNsYXNzPSJsaW5rIiBkYXRhLWVudGl0eS0xPSJPcmRlciIgZGF0YS1lbnRpdHktMj0iT3JkZXJDb25maXJtYXRpb24iIGRhdGEtc291cmNlLWxpbmU9IjIwMCIgZGF0YS11aWQ9ImxuazMyIiBpZD0ibGlua19PcmRlcl9PcmRlckNvbmZpcm1hdGlvbiI+PHBhdGggY29kZUxpbmU9IjIwMCIgZD0iTTE0NDYuMzE3Nyw5MzEuNTE5NyBDMTQ5My43MDc3LDk2OS40NTk3IDE1NDIuOTUsMTAwOC44OSAxNTg2Ljc4LDEwNDMuOTgiIGZpbGw9Im5vbmUiIGlkPSJPcmRlci1iYWNrdG8tT3JkZXJDb25maXJtYXRpb24iIHN0eWxlPSJzdHJva2U6IzAwMDAwMDtzdHJva2Utd2lkdGg6MTsiLz48cG9seWdvbiBmaWxsPSIjMDAwMDAwIiBwb2ludHM9IjE0MzYuOTUsOTI0LjAyLDE0MzkuMTM0LDkzMC44OTI0LDE0NDYuMzE3Nyw5MzEuNTE5NywxNDQ0LjEzMzgsOTI0LjY0NzMsMTQzNi45NSw5MjQuMDIiIHN0eWxlPSJzdHJva2U6IzAwMDAwMDtzdHJva2Utd2lkdGg6MTsiLz48dGV4dCBmaWxsPSIjMDAwMDAwIiBmb250LWZhbWlseT0iVmVyZGFuYSIgZm9udC1zaXplPSIxMyIgbGVuZ3RoQWRqdXN0PSJzcGFjaW5nIiB0ZXh0TGVuZ3RoPSI0NS41IiB4PSIxNDg2LjUiIHk9Ijk2Ny4yODkxIj5tYW5hZ2VzPC90ZXh0Pjx0ZXh0IGZpbGw9IiMwMDAwMDAiIGZvbnQtZmFtaWx5PSJWZXJkYW5hIiBmb250LXNpemU9IjEzIiBsZW5ndGhBZGp1c3Q9InNwYWNpbmciIHRleHRMZW5ndGg9IjYuNSIgeD0iMTQzOS42NjcyIiB5PSI5NDQuNDA1NCI+MTwvdGV4dD48dGV4dCBmaWxsPSIjMDAwMDAwIiBmb250LWZhbWlseT0iVmVyZGFuYSIgZm9udC1zaXplPSIxMyIgbGVuZ3RoQWRqdXN0PSJzcGFjaW5nIiB0ZXh0TGVuZ3RoPSI2LjUiIHg9IjE1NzAuNjAxOCIgeT0iMTAzNC4zODMiPjE8L3RleHQ+PC9nPjwhLS1saW5rIE9yZGVyIHRvIFBheW1lbnQtLT48ZyBjbGFzcz0ibGluayIgZGF0YS1lbnRpdHktMT0iT3JkZXIiIGRhdGEtZW50aXR5LTI9IlBheW1lbnQiIGRhdGEtc291cmNlLWxpbmU9IjIwMSIgZGF0YS11aWQ9ImxuazMzIiBpZD0ibGlua19PcmRlcl9QYXltZW50Ij48cGF0aCBjb2RlTGluZT0iMjAxIiBkPSJNMTE5NS4yNCw4NjguMDggQzEwNDIuMzQsODgyLjQzIDgwNy42NSw5MTYuODcgNjIwLjUsOTk5IEM2MTQuODcsMTAwMS40NyA2MTQuNTQ0MiwxMDAxLjQyNDUgNjA4Ljk1NDIsMTAwNC4zNTQ1IiBmaWxsPSJub25lIiBpZD0iT3JkZXItdG8tUGF5bWVudCIgc3R5bGU9InN0cm9rZTojMDAwMDAwO3N0cm9rZS13aWR0aDoxOyIvPjxwb2x5Z29uIGZpbGw9IiMwMDAwMDAiIHBvaW50cz0iNjAzLjY0LDEwMDcuMTQsNjEzLjQ2ODMsMTAwNi41MDQ2LDYwOC4wNjg1LDEwMDQuODE4OCw2MDkuNzU0NCw5OTkuNDE5LDYwMy42NCwxMDA3LjE0IiBzdHlsZT0ic3Ryb2tlOiMwMDAwMDA7c3Ryb2tlLXdpZHRoOjE7Ii8+PHRleHQgZmlsbD0iIzAwMDAwMCIgZm9udC1mYW1pbHk9IlZlcmRhbmEiIGZvbnQtc2l6ZT0iMTMiIGxlbmd0aEFkanVzdD0ic3BhY2luZyIgdGV4dExlbmd0aD0iMTkuNSIgeD0iNzM1LjUiIHk9Ijk2Ny4yODkxIj5oYXM8L3RleHQ+PHRleHQgZmlsbD0iIzAwMDAwMCIgZm9udC1mYW1pbHk9IlZlcmRhbmEiIGZvbnQtc2l6ZT0iMTMiIGxlbmd0aEFkanVzdD0ic3BhY2luZyIgdGV4dExlbmd0aD0iNi41IiB4PSIxMTgwLjg4NjQiIHk9Ijg2Ny42MzEyIj4xPC90ZXh0Pjx0ZXh0IGZpbGw9IiMwMDAwMDAiIGZvbnQtZmFtaWx5PSJWZXJkYW5hIiBmb250LXNpemU9IjEzIiBsZW5ndGhBZGp1c3Q9InNwYWNpbmciIHRleHRMZW5ndGg9IjYuNSIgeD0iNjExLjM1MjUiIHk9IjEwMDAuMzU0MyI+MTwvdGV4dD48L2c+PCEtLWxpbmsgUGF5bWVudCB0byBPcmRlci0tPjxnIGNsYXNzPSJsaW5rIiBkYXRhLWVudGl0eS0xPSJQYXltZW50IiBkYXRhLWVudGl0eS0yPSJPcmRlciIgZGF0YS1zb3VyY2UtbGluZT0iMjA1IiBkYXRhLXVpZD0ibG5rMzUiIGlkPSJsaW5rX1BheW1lbnRfT3JkZXIiPjxwYXRoIGNvZGVMaW5lPSIyMDUiIGQ9Ik02MDMuNTksMTAwNy4wMyBDNjA5LjIsMTAwNC4xMyA2MTQuODUsMTAwMS40MyA2MjAuNSw5OTkgQzYzMy43Niw5OTMuMyA5NzcuNTQyNCw5MjguNDYzNyAxMTg5LjQwMjQsODg4LjgxMzciIGZpbGw9Im5vbmUiIGlkPSJQYXltZW50LXRvLU9yZGVyIiBzdHlsZT0ic3Ryb2tlOiMwMDAwMDA7c3Ryb2tlLXdpZHRoOjE7Ii8+PHBvbHlnb24gZmlsbD0iIzAwMDAwMCIgcG9pbnRzPSIxMTk1LjMsODg3LjcxLDExODUuNzE3OCw4ODUuNDMzOSwxMTkwLjM4NTMsODg4LjYyOTgsMTE4Ny4xODk0LDg5My4yOTc0LDExOTUuMyw4ODcuNzEiIHN0eWxlPSJzdHJva2U6IzAwMDAwMDtzdHJva2Utd2lkdGg6MTsiLz48dGV4dCBmaWxsPSIjMDAwMDAwIiBmb250LWZhbWlseT0iVmVyZGFuYSIgZm9udC1zaXplPSIxMyIgbGVuZ3RoQWRqdXN0PSJzcGFjaW5nIiB0ZXh0TGVuZ3RoPSI1OC41IiB4PSI4MjcuNSIgeT0iOTY3LjI4OTEiPnByb2Nlc3NlczwvdGV4dD48L2c+PCEtLXJldmVyc2UgbGluayBPcmRlckl0ZW1zIHRvIE1lbnVJdGVtLS0+PGcgY2xhc3M9ImxpbmsiIGRhdGEtZW50aXR5LTE9Ik9yZGVySXRlbXMiIGRhdGEtZW50aXR5LTI9Ik1lbnVJdGVtIiBkYXRhLXNvdXJjZS1saW5lPSIyMDMiIGRhdGEtdWlkPSJsbmszNCIgaWQ9ImxpbmtfT3JkZXJJdGVtc19NZW51SXRlbSI+PHBhdGggY29kZUxpbmU9IjIwMyIgZD0iTTExNTguNTk2OCwxMTcwLjA0NzggQzEyMDMuODk2OCwxMjAyLjc3NzggMTI0OC43NCwxMjM1LjE4IDEyOTQuMDYsMTI2Ny45MyIgZmlsbD0ibm9uZSIgaWQ9Ik9yZGVySXRlbXMtYmFja3RvLU1lbnVJdGVtIiBzdHlsZT0ic3Ryb2tlOiMwMDAwMDA7c3Ryb2tlLXdpZHRoOjE7Ii8+PHBvbHlnb24gZmlsbD0iIzAwMDAwMCIgcG9pbnRzPSIxMTQ4Ljg3LDExNjMuMDIsMTE1MS4zOTA4LDExNjkuNzc2MSwxMTU4LjU5NjgsMTE3MC4wNDc4LDExNTYuMDc2LDExNjMuMjkxNiwxMTQ4Ljg3LDExNjMuMDIiIHN0eWxlPSJzdHJva2U6IzAwMDAwMDtzdHJva2Utd2lkdGg6MTsiLz48dGV4dCBmaWxsPSIjMDAwMDAwIiBmb250LWZhbWlseT0iVmVyZGFuYSIgZm9udC1zaXplPSIxMyIgbGVuZ3RoQWRqdXN0PSJzcGFjaW5nIiB0ZXh0TGVuZ3RoPSI2LjUiIHg9IjExNTIuNTYyOCIgeT0iMTE4My40MDU0Ij4xPC90ZXh0Pjx0ZXh0IGZpbGw9IiMwMDAwMDAiIGZvbnQtZmFtaWx5PSJWZXJkYW5hIiBmb250LXNpemU9IjEzIiBsZW5ndGhBZGp1c3Q9InNwYWNpbmciIHRleHRMZW5ndGg9IjI2IiB4PSIxMjU1LjMzMTQiIHk9IjEyNTguMzE0MSI+MS4uKjwvdGV4dD48L2c+PCEtLWxpbmsgTG95YWx0eVByb2dyYW0gdG8gU3R1ZGVudC0tPjxnIGNsYXNzPSJsaW5rIiBkYXRhLWVudGl0eS0xPSJMb3lhbHR5UHJvZ3JhbSIgZGF0YS1lbnRpdHktMj0iU3R1ZGVudCIgZGF0YS1zb3VyY2UtbGluZT0iMjA3IiBkYXRhLXVpZD0ibG5rMzYiIGlkPSJsaW5rX0xveWFsdHlQcm9ncmFtX1N0dWRlbnQiPjxwYXRoIGNvZGVMaW5lPSIyMDciIGQ9Ik02OTguMDYsMTM4Mi44NiBDNzM1LjM5LDEzOTAuMDUgNzczLjk5LDEzOTYuOCA4MTAuNSwxNDAyIEMxMzg1LjMxLDE0ODMuOTIgMjA3NS45OCwxNTIyLjc5IDIzNzMuODUsMTUzNi43MSIgZmlsbD0ibm9uZSIgaWQ9IkxveWFsdHlQcm9ncmFtLVN0dWRlbnQiIHN0eWxlPSJzdHJva2U6IzAwMDAwMDtzdHJva2Utd2lkdGg6MTsiLz48cG9seWdvbiBmaWxsPSIjMDAwMDAwIiBwb2ludHM9IjExNDcuNDc5MSwxNDQwLjQxNDEsMTEzOC43NDA1LDE0MzYuNjYwNiwxMTM4LjIwMzIsMTQ0Mi41MTM4LDExNDcuNDc5MSwxNDQwLjQxNDEiIHN0eWxlPSJzdHJva2U6IzAwMDAwMDtzdHJva2Utd2lkdGg6MTsiLz48dGV4dCBmaWxsPSIjMDAwMDAwIiBmb250LWZhbWlseT0iVmVyZGFuYSIgZm9udC1zaXplPSIxMyIgbGVuZ3RoQWRqdXN0PSJzcGFjaW5nIiB0ZXh0TGVuZ3RoPSI0NS41IiB4PSIxMTUxLjUiIHk9IjE0NDUuMjg5MSI+bWFuYWdlczwvdGV4dD48dGV4dCBmaWxsPSIjMDAwMDAwIiBmb250LWZhbWlseT0iVmVyZGFuYSIgZm9udC1zaXplPSIxMyIgbGVuZ3RoQWRqdXN0PSJzcGFjaW5nIiB0ZXh0TGVuZ3RoPSI2LjUiIHg9IjcwNS43Nzk3IiB5PSIxMzgzLjY1MzMiPjE8L3RleHQ+PHRleHQgZmlsbD0iIzAwMDAwMCIgZm9udC1mYW1pbHk9IlZlcmRhbmEiIGZvbnQtc2l6ZT0iMTMiIGxlbmd0aEFkanVzdD0ic3BhY2luZyIgdGV4dExlbmd0aD0iNi41IiB4PSIyMzU5LjU3MDMiIHk9IjE1MzUuMjcyNSI+MTwvdGV4dD48L2c+PCEtLXJldmVyc2UgbGluayBMb3lhbHR5UHJvZ3JhbSB0byBSZXdhcmQtLT48ZyBjbGFzcz0ibGluayIgZGF0YS1lbnRpdHktMT0iTG95YWx0eVByb2dyYW0iIGRhdGEtZW50aXR5LTI9IlJld2FyZCIgZGF0YS1zb3VyY2UtbGluZT0iMjA4IiBkYXRhLXVpZD0ibG5rMzciIGlkPSJsaW5rX0xveWFsdHlQcm9ncmFtX1Jld2FyZCI+PHBhdGggY29kZUxpbmU9IjIwOCIgZD0iTTQ4Ni41LDE0MDYuNzYgQzQ4Ni41LDE0MzQuODUgNDg2LjUsMTQ1Ni4zOSA0ODYuNSwxNDg0LjQ1IiBmaWxsPSJub25lIiBpZD0iTG95YWx0eVByb2dyYW0tYmFja3RvLVJld2FyZCIgc3R5bGU9InN0cm9rZTojMDAwMDAwO3N0cm9rZS13aWR0aDoxOyIvPjxwb2x5Z29uIGZpbGw9IiMwMDAwMDAiIHBvaW50cz0iNDg2LjUsMTM5NC43Niw0ODIuNSwxNDAwLjc2LDQ4Ni41LDE0MDYuNzYsNDkwLjUsMTQwMC43Niw0ODYuNSwxMzk0Ljc2IiBzdHlsZT0ic3Ryb2tlOiMwMDAwMDA7c3Ryb2tlLXdpZHRoOjE7Ii8+PHRleHQgZmlsbD0iIzAwMDAwMCIgZm9udC1mYW1pbHk9IlZlcmRhbmEiIGZvbnQtc2l6ZT0iMTMiIGxlbmd0aEFkanVzdD0ic3BhY2luZyIgdGV4dExlbmd0aD0iNi41IiB4PSI0ODAuMTgyIiB5PSIxNDE0Ljc2NzciPjE8L3RleHQ+PHRleHQgZmlsbD0iIzAwMDAwMCIgZm9udC1mYW1pbHk9IlZlcmRhbmEiIGZvbnQtc2l6ZT0iMTMiIGxlbmd0aEFkanVzdD0ic3BhY2luZyIgdGV4dExlbmd0aD0iMjYiIHg9IjQ1OC43NTMxIiB5PSIxNDc0LjkzMDMiPjAuLio8L3RleHQ+PC9nPjwhLS1saW5rIE9yZGVyUHJvY2Vzc29yIHRvIElPcmRlclByb2Nlc3Nvci0tPjxnIGNsYXNzPSJsaW5rIiBkYXRhLWVudGl0eS0xPSJPcmRlclByb2Nlc3NvciIgZGF0YS1lbnRpdHktMj0iSU9yZGVyUHJvY2Vzc29yIiBkYXRhLXNvdXJjZS1saW5lPSIyMTAiIGRhdGEtdWlkPSJsbmszOCIgaWQ9ImxpbmtfT3JkZXJQcm9jZXNzb3JfSU9yZGVyUHJvY2Vzc29yIj48cGF0aCBjb2RlTGluZT0iMjEwIiBkPSJNMzc5Ni4wNiwxMTYuMTEgQzM3MjIuNTUsMTQ4LjM1IDM2NDAuMTI0NywxODQuNDkxNCAzNTcxLjA5NDcsMjE0Ljc2MTQiIGZpbGw9Im5vbmUiIGlkPSJPcmRlclByb2Nlc3Nvci10by1JT3JkZXJQcm9jZXNzb3IiIHN0eWxlPSJzdHJva2U6IzAwMDAwMDtzdHJva2Utd2lkdGg6MTtzdHJva2UtZGFzaGFycmF5OjcuMCw3LjA7Ii8+PHBvbHlnb24gZmlsbD0ibm9uZSIgcG9pbnRzPSIzNTU0LjYxLDIyMS45OSwzNTczLjUwNDMsMjIwLjI1NjMsMzU2OC42ODUyLDIwOS4yNjY0LDM1NTQuNjEsMjIxLjk5IiBzdHlsZT0ic3Ryb2tlOiMwMDAwMDA7c3Ryb2tlLXdpZHRoOjE7Ii8+PC9nPjwhLS1saW5rIE9yZGVyUHJvY2Vzc29yIHRvIElNZW51UHJvdmlkZXItLT48ZyBjbGFzcz0ibGluayIgZGF0YS1lbnRpdHktMT0iT3JkZXJQcm9jZXNzb3IiIGRhdGEtZW50aXR5LTI9IklNZW51UHJvdmlkZXIiIGRhdGEtc291cmNlLWxpbmU9IjIxMSIgZGF0YS11aWQ9ImxuazM5IiBpZD0ibGlua19PcmRlclByb2Nlc3Nvcl9JTWVudVByb3ZpZGVyIj48cGF0aCBjb2RlTGluZT0iMjExIiBkPSJNMzcyOS4zNSw5Ni45NiBDMzU5MS43MSwxMTguMzkgMzM5MS4zOCwxNTIuMjYgMzIxOC41LDE5MiBDMzE5OS4wMSwxOTYuNDggMzE4NC41MTksMjAwLjA0MDEgMzE2NC40MDksMjA1LjM4MDEiIGZpbGw9Im5vbmUiIGlkPSJPcmRlclByb2Nlc3Nvci10by1JTWVudVByb3ZpZGVyIiBzdHlsZT0ic3Ryb2tlOiMwMDAwMDA7c3Ryb2tlLXdpZHRoOjE7Ii8+PHBvbHlnb24gZmlsbD0iIzAwMDAwMCIgcG9pbnRzPSIzMTU4LjYxLDIwNi45MiwzMTY4LjMzNTEsMjA4LjQ3NjIsMzE2My40NDI1LDIwNS42MzY4LDMxNjYuMjgyLDIwMC43NDQyLDMxNTguNjEsMjA2LjkyIiBzdHlsZT0ic3Ryb2tlOiMwMDAwMDA7c3Ryb2tlLXdpZHRoOjE7Ii8+PC9nPjwhLS1saW5rIE9yZGVyUHJvY2Vzc29yIHRvIElTdHVkZW50UmVwb3NpdG9yeS0tPjxnIGNsYXNzPSJsaW5rIiBkYXRhLWVudGl0eS0xPSJPcmRlclByb2Nlc3NvciIgZGF0YS1lbnRpdHktMj0iSVN0dWRlbnRSZXBvc2l0b3J5IiBkYXRhLXNvdXJjZS1saW5lPSIyMTIiIGRhdGEtdWlkPSJsbms0MCIgaWQ9ImxpbmtfT3JkZXJQcm9jZXNzb3JfSVN0dWRlbnRSZXBvc2l0b3J5Ij48cGF0aCBjb2RlTGluZT0iMjEyIiBkPSJNMzg5NS41LDExNi40NiBDMzg5NS41LDE0OC42IDM4OTUuNSwxODUuNjcgMzg5NS41LDIxNS44MyIgZmlsbD0ibm9uZSIgaWQ9Ik9yZGVyUHJvY2Vzc29yLXRvLUlTdHVkZW50UmVwb3NpdG9yeSIgc3R5bGU9InN0cm9rZTojMDAwMDAwO3N0cm9rZS13aWR0aDoxOyIvPjxwb2x5Z29uIGZpbGw9IiMwMDAwMDAiIHBvaW50cz0iMzg5NS41LDIyMS44MywzODk5LjUsMjEyLjgzLDM4OTUuNSwyMTYuODMsMzg5MS41LDIxMi44MywzODk1LjUsMjIxLjgzIiBzdHlsZT0ic3Ryb2tlOiMwMDAwMDA7c3Ryb2tlLXdpZHRoOjE7Ii8+PC9nPjwhLS1saW5rIE9yZGVyUHJvY2Vzc29yIHRvIElQYXltZW50UHJvY2Vzc29yLS0+PGcgY2xhc3M9ImxpbmsiIGRhdGEtZW50aXR5LTE9Ik9yZGVyUHJvY2Vzc29yIiBkYXRhLWVudGl0eS0yPSJJUGF5bWVudFByb2Nlc3NvciIgZGF0YS1zb3VyY2UtbGluZT0iMjEzIiBkYXRhLXVpZD0ibG5rNDEiIGlkPSJsaW5rX09yZGVyUHJvY2Vzc29yX0lQYXltZW50UHJvY2Vzc29yIj48cGF0aCBjb2RlTGluZT0iMjEzIiBkPSJNMzk3Ni4zNSwxMTYuMjMgQzQwMzUuODcsMTQ4LjQxIDQxMTAuNTQyMSwxODguODA2MyA0MTY2LjQ1MjEsMjE5LjAzNjMiIGZpbGw9Im5vbmUiIGlkPSJPcmRlclByb2Nlc3Nvci10by1JUGF5bWVudFByb2Nlc3NvciIgc3R5bGU9InN0cm9rZTojMDAwMDAwO3N0cm9rZS13aWR0aDoxOyIvPjxwb2x5Z29uIGZpbGw9IiMwMDAwMDAiIHBvaW50cz0iNDE3MS43MywyMjEuODksNDE2NS43MTU2LDIxNC4wOTA4LDQxNjcuMzMxNywyMTkuNTExOSw0MTYxLjkxMDcsMjIxLjEyOCw0MTcxLjczLDIyMS44OSIgc3R5bGU9InN0cm9rZTojMDAwMDAwO3N0cm9rZS13aWR0aDoxOyIvPjwvZz48IS0tbGluayBPcmRlckNhbGN1bGF0b3IgdG8gSU9yZGVyQ2FsY3VsYXRvci0tPjxnIGNsYXNzPSJsaW5rIiBkYXRhLWVudGl0eS0xPSJPcmRlckNhbGN1bGF0b3IiIGRhdGEtZW50aXR5LTI9IklPcmRlckNhbGN1bGF0b3IiIGRhdGEtc291cmNlLWxpbmU9IjIxNSIgZGF0YS11aWQ9ImxuazQyIiBpZD0ibGlua19PcmRlckNhbGN1bGF0b3JfSU9yZGVyQ2FsY3VsYXRvciI+PHBhdGggY29kZUxpbmU9IjIxNSIgZD0iTTIyODUuNSwxMTYzLjAyIEMyMjg1LjUsMTIwOS44NiAyMjg1LjUsMTI1Mi40MSAyMjg1LjUsMTI4Ny40NiIgZmlsbD0ibm9uZSIgaWQ9Ik9yZGVyQ2FsY3VsYXRvci10by1JT3JkZXJDYWxjdWxhdG9yIiBzdHlsZT0ic3Ryb2tlOiMwMDAwMDA7c3Ryb2tlLXdpZHRoOjE7c3Ryb2tlLWRhc2hhcnJheTo3LjAsNy4wOyIvPjxwb2x5Z29uIGZpbGw9Im5vbmUiIHBvaW50cz0iMjI4NS41LDEzMDUuNDYsMjI5MS41LDEyODcuNDYsMjI3OS41LDEyODcuNDYsMjI4NS41LDEzMDUuNDYiIHN0eWxlPSJzdHJva2U6IzAwMDAwMDtzdHJva2Utd2lkdGg6MTsiLz48L2c+PCEtLWxpbmsgT3JkZXJJdGVtcyB0byBJT3JkZXJJdGVtcy0tPjxnIGNsYXNzPSJsaW5rIiBkYXRhLWVudGl0eS0xPSJPcmRlckl0ZW1zIiBkYXRhLWVudGl0eS0yPSJJT3JkZXJJdGVtcyIgZGF0YS1zb3VyY2UtbGluZT0iMjE2IiBkYXRhLXVpZD0ibG5rNDMiIGlkPSJsaW5rX09yZGVySXRlbXNfSU9yZGVySXRlbXMiPjxwYXRoIGNvZGVMaW5lPSIyMTYiIGQ9Ik0xMDMxLjA0LDExNjMuMDIgQzEwMTQuNzMsMTIwMy43IDEwMDAuOTc4LDEyMzguMDEyNiA5ODYuNjc4LDEyNzMuNjgyNiIgZmlsbD0ibm9uZSIgaWQ9Ik9yZGVySXRlbXMtdG8tSU9yZGVySXRlbXMiIHN0eWxlPSJzdHJva2U6IzAwMDAwMDtzdHJva2Utd2lkdGg6MTtzdHJva2UtZGFzaGFycmF5OjcuMCw3LjA7Ii8+PHBvbHlnb24gZmlsbD0ibm9uZSIgcG9pbnRzPSI5NzkuOTgsMTI5MC4zOSw5OTIuMjQ3MSwxMjc1LjkxNTIsOTgxLjEwODgsMTI3MS40NDk5LDk3OS45OCwxMjkwLjM5IiBzdHlsZT0ic3Ryb2tlOiMwMDAwMDA7c3Ryb2tlLXdpZHRoOjE7Ii8+PC9nPjwhLS1saW5rIFN0YWZmIHRvIFJlcG9ydEdlbmVyYXRvci0tPjxnIGNsYXNzPSJsaW5rIiBkYXRhLWVudGl0eS0xPSJTdGFmZiIgZGF0YS1lbnRpdHktMj0iUmVwb3J0R2VuZXJhdG9yIiBkYXRhLXNvdXJjZS1saW5lPSIyMTgiIGRhdGEtdWlkPSJsbms0NCIgaWQ9ImxpbmtfU3RhZmZfUmVwb3J0R2VuZXJhdG9yIj48cGF0aCBjb2RlTGluZT0iMjE4IiBkPSJNMTY1MS4zNyw0OTIuNTIgQzE1MzUuMSw1MTYuMTYgMTM5My4yNCw1NDcuMjEgMTI2Ny41LDU4MSBDMTI2MS45Myw1ODIuNSAxMjYyLjA1Niw1ODIuNDM1OCAxMjU2LjM2Niw1ODQuMDM1OCIgZmlsbD0ibm9uZSIgaWQ9IlN0YWZmLXRvLVJlcG9ydEdlbmVyYXRvciIgc3R5bGU9InN0cm9rZTojMDAwMDAwO3N0cm9rZS13aWR0aDoxOyIvPjxwb2x5Z29uIGZpbGw9IiMwMDAwMDAiIHBvaW50cz0iMTI1MC41OSw1ODUuNjYsMTI2MC4zMzY4LDU4Ny4wNzQ0LDEyNTUuNDAzMyw1ODQuMzA2NSwxMjU4LjE3MTIsNTc5LjM3MzEsMTI1MC41OSw1ODUuNjYiIHN0eWxlPSJzdHJva2U6IzAwMDAwMDtzdHJva2Utd2lkdGg6MTsiLz48cG9seWdvbiBmaWxsPSIjMDAwMDAwIiBwb2ludHM9IjE0MzcuNjI5LDU0NS4wODU2LDE0NDcuMTA0LDU0NS45MDcxLDE0NDUuNzc3NCw1NDAuMTgwOSwxNDM3LjYyOSw1NDUuMDg1NiIgc3R5bGU9InN0cm9rZTojMDAwMDAwO3N0cm9rZS13aWR0aDoxOyIvPjx0ZXh0IGZpbGw9IiMwMDAwMDAiIGZvbnQtZmFtaWx5PSJWZXJkYW5hIiBmb250LXNpemU9IjEzIiBsZW5ndGhBZGp1c3Q9InNwYWNpbmciIHRleHRMZW5ndGg9IjI2IiB4PSIxNDUxLjUiIHk9IjU0OS4yODkxIj51c2VzPC90ZXh0PjwvZz48IS0tbGluayBOb3RpZmljYXRpb25TZXJ2aWNlIHRvIE9yZGVyLS0+PGcgY2xhc3M9ImxpbmsiIGRhdGEtZW50aXR5LTE9Ik5vdGlmaWNhdGlvblNlcnZpY2UiIGRhdGEtZW50aXR5LTI9Ik9yZGVyIiBkYXRhLXNvdXJjZS1saW5lPSIyMTkiIGRhdGEtdWlkPSJsbms0NSIgaWQ9ImxpbmtfTm90aWZpY2F0aW9uU2VydmljZV9PcmRlciI+PHBhdGggY29kZUxpbmU9IjIxOSIgZD0iTTE0NjguMTUsNjc3Ljc4IEMxNDQ5LjczLDcwNi42NyAxNDIzLjkzNTYsNzQ3LjExMDggMTM5OS44MzU2LDc4NC45MTA4IiBmaWxsPSJub25lIiBpZD0iTm90aWZpY2F0aW9uU2VydmljZS10by1PcmRlciIgc3R5bGU9InN0cm9rZTojMDAwMDAwO3N0cm9rZS13aWR0aDoxOyIvPjxwb2x5Z29uIGZpbGw9IiMwMDAwMDAiIHBvaW50cz0iMTM5Ni42MSw3ODkuOTcsMTQwNC44MjEyLDc4NC41MzE2LDEzOTkuMjk4LDc4NS43NTQsMTM5OC4wNzU2LDc4MC4yMzA4LDEzOTYuNjEsNzg5Ljk3IiBzdHlsZT0ic3Ryb2tlOiMwMDAwMDA7c3Ryb2tlLXdpZHRoOjE7Ii8+PHBvbHlnb24gZmlsbD0iIzAwMDAwMCIgcG9pbnRzPSIxNDI2LjgxMTcsNzU3LjE3MjgsMTQzNC4xNTI5LDc1MS4xMjY1LDE0MjkuMTk2OSw3NDcuOTY2MiwxNDI2LjgxMTcsNzU3LjE3MjgiIHN0eWxlPSJzdHJva2U6IzAwMDAwMDtzdHJva2Utd2lkdGg6MTsiLz48dGV4dCBmaWxsPSIjMDAwMDAwIiBmb250LWZhbWlseT0iVmVyZGFuYSIgZm9udC1zaXplPSIxMyIgbGVuZ3RoQWRqdXN0PSJzcGFjaW5nIiB0ZXh0TGVuZ3RoPSI1MiIgeD0iMTQzOC41IiB5PSI3NTguMjg5MSI+bW9uaXRvcnM8L3RleHQ+PC9nPjwhLS1saW5rIFJlcG9ydEdlbmVyYXRvciB0byBPcmRlci0tPjxnIGNsYXNzPSJsaW5rIiBkYXRhLWVudGl0eS0xPSJSZXBvcnRHZW5lcmF0b3IiIGRhdGEtZW50aXR5LTI9Ik9yZGVyIiBkYXRhLXNvdXJjZS1saW5lPSIyMjAiIGRhdGEtdWlkPSJsbms0NiIgaWQ9ImxpbmtfUmVwb3J0R2VuZXJhdG9yX09yZGVyIj48cGF0aCBjb2RlTGluZT0iMjIwIiBkPSJNMTE1Ni4zNyw3MTUuMDcgQzExODkuOTcsNzM4Ljk3IDEyMjMuMDEwOSw3NjIuNDYxOSAxMjU2LjYyMDksNzg2LjM3MTkiIGZpbGw9Im5vbmUiIGlkPSJSZXBvcnRHZW5lcmF0b3ItdG8tT3JkZXIiIHN0eWxlPSJzdHJva2U6IzAwMDAwMDtzdHJva2Utd2lkdGg6MTsiLz48cG9seWdvbiBmaWxsPSIjMDAwMDAwIiBwb2ludHM9IjEyNjEuNTEsNzg5Ljg1LDEyNTYuNDk1MSw3ODEuMzczNSwxMjU3LjQzNTgsNzg2Ljk1MTYsMTI1MS44NTc3LDc4Ny44OTIzLDEyNjEuNTEsNzg5Ljg1IiBzdHlsZT0ic3Ryb2tlOiMwMDAwMDA7c3Ryb2tlLXdpZHRoOjE7Ii8+PHBvbHlnb24gZmlsbD0iIzAwMDAwMCIgcG9pbnRzPSIxMjI3LjU3NDUsNzU1Ljg1NSwxMjIxLjkwNyw3NDguMjE3NiwxMjE4LjUwMDMsNzUzLjAwNzUsMTIyNy41NzQ1LDc1NS44NTUiIHN0eWxlPSJzdHJva2U6IzAwMDAwMDtzdHJva2Utd2lkdGg6MTsiLz48dGV4dCBmaWxsPSIjMDAwMDAwIiBmb250LWZhbWlseT0iVmVyZGFuYSIgZm9udC1zaXplPSIxMyIgbGVuZ3RoQWRqdXN0PSJzcGFjaW5nIiB0ZXh0TGVuZ3RoPSI1MiIgeD0iMTIzMi41IiB5PSI3NTguMjg5MSI+YW5hbHl6ZXM8L3RleHQ+PC9nPjwhLS1saW5rIFJlcG9ydEdlbmVyYXRvciB0byBMb3lhbHR5UHJvZ3JhbS0tPjxnIGNsYXNzPSJsaW5rIiBkYXRhLWVudGl0eS0xPSJSZXBvcnRHZW5lcmF0b3IiIGRhdGEtZW50aXR5LTI9IkxveWFsdHlQcm9ncmFtIiBkYXRhLXNvdXJjZS1saW5lPSIyMjEiIGRhdGEtdWlkPSJsbms0NyIgaWQ9ImxpbmtfUmVwb3J0R2VuZXJhdG9yX0xveWFsdHlQcm9ncmFtIj48cGF0aCBjb2RlTGluZT0iMjIxIiBkPSJNODc2LjQ4LDY4My40OSBDNzA2LjU1LDcyNS44MSA0NjUuNTQsODE1Ljg3IDM1MS41LDk5OSBDMzA1LjkyLDEwNzIuMTkgMzE5LjM3LDExMTIuOTkgMzUxLjUsMTE5MyBDMzY0LjA3LDEyMjQuMjkgMzgyLjk0NTksMTI0OC4zOSA0MDYuNjA1OSwxMjcxLjI2IiBmaWxsPSJub25lIiBpZD0iUmVwb3J0R2VuZXJhdG9yLXRvLUxveWFsdHlQcm9ncmFtIiBzdHlsZT0ic3Ryb2tlOiMwMDAwMDA7c3Ryb2tlLXdpZHRoOjE7Ii8+PHBvbHlnb24gZmlsbD0iIzAwMDAwMCIgcG9pbnRzPSI0MTAuOTIsMTI3NS40Myw0MDcuMjI4OSwxMjY2LjI5OSw0MDcuMzI1LDEyNzEuOTU1LDQwMS42Njg5LDEyNzIuMDUxLDQxMC45MiwxMjc1LjQzIiBzdHlsZT0ic3Ryb2tlOiMwMDAwMDA7c3Ryb2tlLXdpZHRoOjE7Ii8+PHBvbHlnb24gZmlsbD0iIzAwMDAwMCIgcG9pbnRzPSIzODEuMzc3OSw5NjUuODYyNSwzODkuMzIxNCw5NjAuNjMyNiwzODQuNzMwMyw5NTYuOTYyMywzODEuMzc3OSw5NjUuODYyNSIgc3R5bGU9InN0cm9rZTojMDAwMDAwO3N0cm9rZS13aWR0aDoxOyIvPjx0ZXh0IGZpbGw9IiMwMDAwMDAiIGZvbnQtZmFtaWx5PSJWZXJkYW5hIiBmb250LXNpemU9IjEzIiBsZW5ndGhBZGp1c3Q9InNwYWNpbmciIHRleHRMZW5ndGg9IjUyIiB4PSIzOTMuNSIgeT0iOTY3LjI4OTEiPmFuYWx5emVzPC90ZXh0PjwvZz48IS0tbGluayBQYXltZW50IHRvIExveWFsdHlQcm9ncmFtLS0+PGcgY2xhc3M9ImxpbmsiIGRhdGEtZW50aXR5LTE9IlBheW1lbnQiIGRhdGEtZW50aXR5LTI9IkxveWFsdHlQcm9ncmFtIiBkYXRhLXNvdXJjZS1saW5lPSIyMjIiIGRhdGEtdWlkPSJsbms0OCIgaWQ9ImxpbmtfUGF5bWVudF9Mb3lhbHR5UHJvZ3JhbSI+PHBhdGggY29kZUxpbmU9IjIyMiIgZD0iTTQ4Ni41LDExOTMuMDYgQzQ4Ni41LDEyMjAuOSA0ODYuNSwxMjQ0LjQ2IDQ4Ni41LDEyNjkuMjgiIGZpbGw9Im5vbmUiIGlkPSJQYXltZW50LXRvLUxveWFsdHlQcm9ncmFtIiBzdHlsZT0ic3Ryb2tlOiMwMDAwMDA7c3Ryb2tlLXdpZHRoOjE7Ii8+PHBvbHlnb24gZmlsbD0iIzAwMDAwMCIgcG9pbnRzPSI0ODYuNSwxMjc1LjI4LDQ5MC41LDEyNjYuMjgsNDg2LjUsMTI3MC4yOCw0ODIuNSwxMjY2LjI4LDQ4Ni41LDEyNzUuMjgiIHN0eWxlPSJzdHJva2U6IzAwMDAwMDtzdHJva2Utd2lkdGg6MTsiLz48cG9seWdvbiBmaWxsPSIjMDAwMDAwIiBwb2ludHM9IjQ5MS41LDEyMzUuOTU3LDQ5NC40Mzg5LDEyMjYuOTExOSw0ODguNTYxMSwxMjI2LjkxMTksNDkxLjUsMTIzNS45NTciIHN0eWxlPSJzdHJva2U6IzAwMDAwMDtzdHJva2Utd2lkdGg6MTsiLz48dGV4dCBmaWxsPSIjMDAwMDAwIiBmb250LWZhbWlseT0iVmVyZGFuYSIgZm9udC1zaXplPSIxMyIgbGVuZ3RoQWRqdXN0PSJzcGFjaW5nIiB0ZXh0TGVuZ3RoPSI3OCIgeD0iNTAwLjUiIHk9IjEyMzYuMjg5MSI+ZWFybnMgcG9pbnRzPC90ZXh0PjwvZz48IS0tbGluayBPcmRlclByb2Nlc3NvciB0byBHTU42MS0tPjxnIGNsYXNzPSJsaW5rIiBkYXRhLWVudGl0eS0xPSJPcmRlclByb2Nlc3NvciIgZGF0YS1lbnRpdHktMj0iR01ONjEiIGRhdGEtc291cmNlLWxpbmU9IjI1MCIgZGF0YS11aWQ9ImxuazYzIiBpZD0ibGlua19PcmRlclByb2Nlc3Nvcl9HTU42MSI+PHBhdGggZD0iTTQwNjEuNTEsOTkuMjIgQzQxNjQuMzMsMTE4LjYxIDQyOTcuOTgsMTQ5LjA0IDQ0MTEuNSwxOTIgQzQ0NDAuMSwyMDIuODIgNDQ3MC4zNSwyMTkuMTUgNDQ5My41NywyMzIuODYiIGZpbGw9Im5vbmUiIGlkPSJPcmRlclByb2Nlc3Nvci1HTU42MSIgc3R5bGU9InN0cm9rZTojMDAwMDAwO3N0cm9rZS13aWR0aDoxO3N0cm9rZS1kYXNoYXJyYXk6Ny4wLDcuMDsiLz48L2c+PCEtLVNSQz1bbExYQlItQ3M0QnhoTHgzZmVTdms0a21VVVg3STA1eEJzSk5nRThSYmpEWkpXZlBlY3dXYTJZSUxyRGxqVi1fbThPZEttLWEzUTB1bkhTdUNsdGNGejlxeWFmb1dDaUVxMjg4VnFGVkQ3dmVOTEl3U1pPMzAxZGVJWDZ6T0hqMFYwT0FfVUZpS3BMVFJrdnhVdC1sTEQ3Zk9oODhfMHlGb281RjJPdWJiOUlwTlVod0E1Z2tGUGhzUGh3VVItY2FwZHFRVnpNaHMtQjFVcGhWcG8zbkRMeEZ2U1diRmpURzctM18zYVhtT0ZyY24zekY1d2lsaXlNYUpwbXNXck5Kc2lydjVTODVUcFVEdWxqYXNPalJ1YjlEMmRlN3RFMEVNLWo1N1RKelRCRXJvQ3h6X01hS0VGWWx1V1NXWkl3dFdzSkotUDFRUlVSSk9WZmJERHY1NXpTNXpOM3YtZFl3dGR4LWk3blVoUlFuNFVmdnYwNlVYTU9RNTg5dzM0aE1iRk1KbGt3dldsS1gzNTRqRVlxRXhMLTJTLUJpYmlCdW10ZzdidUVjbXlSZFVVdmtuMG9xY05JYk5nMmxYQ2FHeDFib3VRRlhPOUlVbV9TbmVnZkdvVTZEUGZNMmU2aDhtWnJ0S1ZTR2FucEpoQUM1ZThTSzdkRTRZME1mdUM1U19LX0FvVGl5S1lrUUthdklHdDluRkU3ZDFGNXFDUVU0V25sanpZblNVTmFOeGpZZkoyNU9kNUlQQ2hMbDZBb0pxVmtaY0l6VTZNWDVJZjQybGdPSElQNGM1bERNRlR1UmdHMGgydVJPREFIY05lOUJ3c1B2QW5yYUFKOFdZLTdfUHU2cHFLd2NyYTJJbExRSW1WanFWQUg0OWZ3TWFoRVh1WExGYlpQSExFbmozcnViRHREMUJPelRJNFA3V05aN25Pc3BXM1dXeUx4dUpOYnhFUkNXVTl2QTFodXJ6bl9GNzc1bExFcXhvR1pJaUd4UzlYQXh4NzFiSE90MlpQTkI0bk83T0syWjhJcHBlVkFzQXpRY2pLU2haeFhNRHJfSWNTZmxtbTVsZ3JmRjJIYXBqUEhpcUU0dExxcUlIWDRxOFUxV3VvVGFwUVFXTWV3YUVPM01HOVpleFRvTWkwRXlNdWhtZU54Q1BwZjhnbS0zMkx6TGhCTTZsaXdtYWhkUUlJUG1mTjR1dWpXSFJfRmx1c0gwZEJpbGk1NTZIaUFnR2F6R2tyZUdkNDFWdXU4UWJQVWplbk9lenZKYk00SnNnYnhBTmVqOHhhd3duZ1IxMkkzZVBTOEh4bXZSY2tsSmZDNm8wczR2TE5yLVFuc3hHendzRFN3TWhkellNa0hGakpNdnV0VE9TdlJmMVhkd19ERVhCcFg4WVgzdGZBU1Y5bFloSWlMREd0SHhMZlVKSWh5WXE1WG5OWVJmY05zTUplVVhSaVhGRXY2ZERzTzdaZllRUUxXRUVkYk1TYW84dnJOUDBGdzV0RC16ai16SkQxRkgtbUVMak5RdXNVbEVrNHJzc19NV2hKcHQzemJrTGFKM2ZiZzRoVEFQdnJKYmtVR3JiUUM3cVVoQlBoZE5qWVh0aDBEZWNDb1BhWXRZcUF2WkM2VDVhbzBxaDlrY1U5WmdFT3lBVmVVUFJWNnk1VDRKdE0weWRQY292R1pjdUxZVllVN3FuVlZBWndQZkRWTWRRUTBKSFN1Zm5IZUhqZzRGRHEtRnViUDNWVjFQODBFdmFuR1lWM0pOQkNxODRYSjF4X2I3R2ZoLV8ya1NOYzFoLTRTRElaTld6NTd4Yk1mbGFSQ2puZVhEMWNoYmFPMmduc01vQWM1akQxWkJ0cDlwS1J0elVkcnlLYWQxZXpOdmRmX0trTWdYTTFEWVZRVGxick9yclhuaGpNUDB4ekt3X0h0aHVwRzNaNFJqWjdaSnhuTGItcXNQNy1GdHVUVkdRVENoVkRfZl9kYXp6RDNRSExHbjF1Qk1sUTZRRXFNVUp0Z0hfd0t6SzViRTdWQUg4RTdWUmladmNZeGZYczVSTFQ5eHB4UU5ONVN5eGVaVWpaQ3lIMHpwazVGVF8zTVJ6V0pkSm5MR1NRVWRiYWR3X2xGcnNWVHF1b3pzMWJ3NFdnNV9mQmp2VmUzVW1WVjdrdmtSRFhQcVQwWkRXRHNWbEJ6cEhES0pyUzNYNnZ2V3NINTNmbm1kVHNJZjRFSXdXM3haS3J6VHQtaFNVVzQ5cW5DQllDc1hRY0xnMXNiZjFLQkNlNEtQV1k2bnltSEwxUHNPbWItY1ZzWkdEN2RHdEhFck9wVkg4MndpRHdma1JSdFZUaEVfSUE3SFVtSGlhd0VOZzg1S3Rnb21Xbm5pRWVkUk5qUVAzT0FScG1CbjlBX2RUN2NuUzJ5T1B3bGtrck5ETUFEMkFqMmwzOUdEWlB3VWxQOG9pdW1BRnRsTHJadXZXTldYYWZhNld6TkM4aUZqemc4MEQ5NWM5czV3RjlwZWhGczExYUVjaVV1MDN4SHM5YXIzbHRzZ0VDTUZvYXBBNi1YZnBsR0ZnNTY0emlrZlNXTHJEaWlaQloyWVcwazVBN2M1WGhIUjBVOEpLcE82dmR6RjNLSWU0eElvX09Zem1UdlFuNXU1WWcxaW1uY3c4QTI3eHdPdmNMOXhHNmlmOUdhaXh2eXpuU2FIT2IySkhXZEloaTA2akpLSzVmNUFIUGlHS2dEcTlPSUg4WVRMbVdIR1JuSGR6MmRmZWpSaTBDeEJOT2RyWmNvemtES1lmSDFxMDV2UEdFcXJ2S3pQQndOdkZyMW5ZWHM0YUpvS25EakpydTUxbmhBUHF3eDRJUzJUc1dYLXJhbXEwQlVJSkxhamVCemNVSzJULUZLUjFGR0tPZmx3SXk0QmJTS1lMazJmTDcwZ0tMdmJLYmN0YWNMVVlkYmJzSjRnTUR1dmhDejVTb2U2WTBYMGdCakd0a2lJd205bjdmMEhuMGE0Zm4zaTFyYWpxU0tVSlFCNi1EN1lDdHhkbHpxY3lXVkVwNFRJLVFKU24wdDlPYVBzcUh0SE9yQlExazRKd0JIdFU0MjM3SkVKdWRkcWJfNFBZZkxqc0hrN0tWTFhmaHdjdVFkR0dZZkJQRURRVjJDSV8wbEtOXS0tPjwvZz48L3N2Zz4=;" vertex="1" parent="WIyWlLk6GJQsqaUBKTNV-1">
            <mxGeometry x="-1830" y="-180" width="4645" height="1617" as="geometry" />
          </mxCell>
        </UserObject>
      </root>
    </mxGraphModel>
  </diagram>
</mxfile>
